<svg xmlns="http://www.w3.org/2000/svg" xmlns:xlink="http://www.w3.org/1999/xlink" width="1200" zoomAndPan="magnify" viewBox="0 0 900 899.99999" height="1200" preserveAspectRatio="xMidYMid meet" version="1.0"><defs><filter x="0%" y="0%" width="100%" height="100%" id="cdb45b2386"><feColorMatrix values="0 0 0 0 1 0 0 0 0 1 0 0 0 0 1 0 0 0 1 0" color-interpolation-filters="sRGB"/></filter><clipPath id="b0ede6c8aa"><path d="M 43 669 L 136 669 L 136 726.75 L 43 726.75 Z M 43 669 " clip-rule="nonzero"/></clipPath><clipPath id="d1999d2a30"><path d="M 165 471 L 413 471 L 413 726.75 L 165 726.75 Z M 165 471 " clip-rule="nonzero"/></clipPath><clipPath id="25d853dd4e"><path d="M 342 0 L 726.75 0 L 726.75 387 L 342 387 Z M 342 0 " clip-rule="nonzero"/></clipPath><mask id="aa9b7ebde2"><g filter="url(#cdb45b2386)"><rect x="-90" width="1080" fill="#000000" y="-89.999999" height="1079.999988" fill-opacity="0.75"/></g></mask><clipPath id="0a0ce36b33"><path d="M 287 2.171875 L 396 2.171875 L 396 105 L 287 105 Z M 287 2.171875 " clip-rule="nonzero"/></clipPath><clipPath id="3738fc2edc"><path d="M 0.921875 241 L 108 241 L 108 347 L 0.921875 347 Z M 0.921875 241 " clip-rule="nonzero"/></clipPath><clipPath id="8018bda48f"><path d="M 194 565 L 298 565 L 298 672.671875 L 194 672.671875 Z M 194 565 " clip-rule="nonzero"/></clipPath><clipPath id="c25e56df65"><path d="M 385 565 L 490 565 L 490 672.671875 L 385 672.671875 Z M 385 565 " clip-rule="nonzero"/></clipPath><clipPath id="29f1ad0c88"><path d="M 576 241 L 682.28125 241 L 682.28125 347 L 576 347 Z M 576 241 " clip-rule="nonzero"/></clipPath><clipPath id="34ed63b9c1"><rect x="0" width="683" y="0" height="673"/></clipPath></defs><path fill="#22a472" d="M 299.441406 235.582031 C 299.441406 176.890625 251.695312 129.144531 193.003906 129.144531 C 134.316406 129.144531 86.570312 176.890625 86.570312 235.582031 C 86.570312 294.269531 134.316406 343.4375 193.003906 343.4375 C 251.695312 343.4375 299.441406 294.269531 299.441406 235.582031 Z M 299.441406 235.582031 " fill-opacity="1" fill-rule="nonzero"/><path fill="#22a472" d="M 384.59375 556.308594 L 363.304688 556.308594 C 351.542969 556.308594 342.015625 565.835938 342.015625 577.597656 L 342.015625 620.171875 C 342.015625 631.933594 351.542969 641.460938 363.304688 641.460938 L 384.59375 641.460938 C 408.105469 641.460938 427.167969 622.398438 427.167969 598.886719 C 427.167969 575.371094 408.105469 556.308594 384.59375 556.308594 Z M 384.59375 556.308594 " fill-opacity="1" fill-rule="nonzero"/><g clip-path="url(#b0ede6c8aa)"><path fill="#22a472" d="M 121.058594 726.609375 L 135.109375 684.035156 L 107.855469 684.035156 C 84.867188 684.035156 63.152344 678.925781 43.992188 669.132812 L 43.992188 705.320312 C 43.992188 717.246094 53.359375 726.609375 65.28125 726.609375 Z M 121.058594 726.609375 " fill-opacity="1" fill-rule="nonzero"/></g><path fill="#22a472" d="M 107.855469 641.445312 L 149.582031 641.445312 C 147.835938 646.707031 176.199219 560.796875 177.675781 556.308594 L 107.855469 556.308594 C 95.933594 556.308594 86.570312 546.945312 86.570312 535.023438 L 86.570312 449.875 C 86.570312 437.949219 95.933594 428.585938 107.855469 428.585938 C 119.777344 428.585938 129.144531 437.949219 129.144531 449.875 L 129.144531 513.722656 L 191.726562 513.722656 C 190.21875 518.199219 214.0625 447.539062 215.570312 443.058594 C 218.128906 434.542969 226.214844 428.585938 235.582031 428.585938 L 382.464844 428.585938 C 372.667969 380.054688 329.671875 343.4375 278.15625 343.4375 L 107.855469 343.4375 C 48.925781 343.4375 0 391.199219 0 449.875 L 0 535.023438 C 0 595.90625 52.265625 641.445312 107.855469 641.445312 Z M 107.855469 641.445312 " fill-opacity="1" fill-rule="nonzero"/><g clip-path="url(#d1999d2a30)"><path fill="#22a472" d="M 391.679688 471.160156 L 250.925781 471.160156 L 165.769531 726.609375 L 320.730469 726.609375 C 329.886719 726.609375 338.019531 720.746094 340.914062 712.0625 L 350.6875 682.757812 C 321.5 676.878906 299.441406 651.070312 299.441406 620.171875 L 299.441406 577.597656 C 299.441406 542.386719 328.09375 513.734375 363.304688 513.734375 L 384.59375 513.734375 C 392.027344 513.734375 399.125 515 406.003906 516.796875 L 411.875 499.175781 C 416.472656 485.398438 406.210938 471.160156 391.679688 471.160156 Z M 391.679688 471.160156 " fill-opacity="1" fill-rule="nonzero"/></g><g clip-path="url(#25d853dd4e)"><path fill="#22a472" d="M 662.746094 0 L 405.878906 0 C 370.667969 0 342.015625 28.648438 342.015625 63.863281 L 342.015625 235.582031 C 342.015625 270.792969 370.667969 300.863281 405.878906 300.863281 L 427.167969 300.863281 L 427.167969 364.722656 C 427.167969 373.328125 432.339844 381.101562 440.308594 384.390625 C 448.160156 387.667969 457.367188 385.90625 463.503906 379.773438 L 542.421875 300.863281 L 662.746094 300.863281 C 697.960938 300.863281 726.609375 270.792969 726.609375 235.582031 L 726.609375 63.863281 C 726.609375 28.648438 697.960938 0 662.746094 0 Z M 591.226562 144.191406 L 527.367188 208.054688 C 523.210938 212.214844 517.765625 214.292969 512.316406 214.292969 C 506.867188 214.292969 501.421875 212.214844 497.265625 208.054688 L 465.335938 176.125 C 457.019531 167.808594 457.019531 154.339844 465.335938 146.027344 C 473.652344 137.710938 487.117188 137.710938 495.433594 146.027344 L 512.316406 162.898438 L 561.128906 114.09375 C 569.445312 105.777344 582.910156 105.777344 591.226562 114.09375 C 599.542969 122.410156 599.542969 135.878906 591.226562 144.191406 Z M 591.226562 144.191406 " fill-opacity="1" fill-rule="nonzero"/></g><g mask="url(#aa9b7ebde2)"><g transform="matrix(1, 0, 0, 1, 217, 227)"><g clip-path="url(#34ed63b9c1)"><g clip-path="url(#0a0ce36b33)"><path fill="#cbff8b" d="M 341.609375 19.566406 L 374.761719 2.128906 L 368.421875 39.054688 L 395.238281 65.179688 L 358.183594 70.566406 L 341.609375 104.15625 L 325.03125 70.566406 L 287.976562 65.179688 L 314.792969 39.054688 L 308.453125 2.128906 L 341.609375 19.566406 " fill-opacity="1" fill-rule="nonzero"/></g><path fill="#cbff8b" d="M 134.242188 95.046875 L 148.425781 60.375 L 167.304688 92.730469 L 204.652344 95.515625 L 179.71875 123.460938 L 188.625 159.839844 L 154.328125 144.765625 L 122.488281 164.472656 L 126.230469 127.199219 L 97.644531 103 L 134.242188 95.046875 " fill-opacity="1" fill-rule="nonzero"/><g clip-path="url(#3738fc2edc)"><path fill="#cbff8b" d="M 23.902344 286.148438 L 12.488281 250.472656 L 47.742188 263.121094 L 78.15625 241.253906 L 77.015625 278.679688 L 107.210938 300.832031 L 71.253906 311.335938 L 59.511719 346.898438 L 38.425781 315.9375 L 0.984375 315.765625 L 23.902344 286.148438 " fill-opacity="1" fill-rule="nonzero"/></g><path fill="#cbff8b" d="M 62.222656 503.46875 L 30.554688 483.476562 L 65.679688 470.5 L 74.917969 434.214844 L 98.113281 463.613281 L 135.480469 461.171875 L 114.691406 492.320312 L 128.546875 527.105469 L 92.511719 516.960938 L 63.707031 540.894531 L 62.222656 503.46875 " fill-opacity="1" fill-rule="nonzero"/><g clip-path="url(#8018bda48f)"><path fill="#cbff8b" d="M 231.265625 645.320312 L 194.164062 650.359375 L 212.730469 617.832031 L 196.46875 584.097656 L 233.144531 591.722656 L 260.207031 565.832031 L 264.292969 603.054688 L 297.277344 620.792969 L 263.136719 636.179688 L 256.453125 673.042969 L 231.265625 645.320312 " fill-opacity="1" fill-rule="nonzero"/></g><g clip-path="url(#c25e56df65)"><path fill="#cbff8b" d="M 451.949219 645.320312 L 426.746094 673.042969 L 420.078125 636.179688 L 385.9375 620.792969 L 418.921875 603.054688 L 423.007812 565.832031 L 450.070312 591.722656 L 486.75 584.097656 L 470.484375 617.832031 L 489.050781 650.359375 L 451.949219 645.320312 " fill-opacity="1" fill-rule="nonzero"/></g><path fill="#cbff8b" d="M 620.992188 503.46875 L 619.507812 540.894531 L 590.703125 516.960938 L 554.652344 527.105469 L 568.539062 492.320312 L 547.734375 461.171875 L 585.101562 463.613281 L 608.300781 434.214844 L 617.535156 470.5 L 652.660156 483.476562 L 620.992188 503.46875 " fill-opacity="1" fill-rule="nonzero"/><g clip-path="url(#29f1ad0c88)"><path fill="#cbff8b" d="M 659.3125 286.148438 L 682.230469 315.765625 L 644.789062 315.9375 L 623.703125 346.898438 L 611.960938 311.335938 L 576.003906 300.832031 L 606.203125 278.679688 L 605.058594 241.253906 L 635.472656 263.121094 L 670.726562 250.472656 L 659.3125 286.148438 " fill-opacity="1" fill-rule="nonzero"/></g><path fill="#cbff8b" d="M 548.972656 95.046875 L 585.570312 103 L 556.984375 127.199219 L 560.726562 164.472656 L 528.886719 144.765625 L 494.605469 159.839844 L 503.480469 123.460938 L 478.5625 95.515625 L 515.910156 92.730469 L 534.789062 60.375 L 548.972656 95.046875 " fill-opacity="1" fill-rule="nonzero"/><path fill="#cbff8b" d="M 328.441406 403.691406 C 328.363281 403.691406 328.285156 403.691406 328.222656 403.691406 C 328.222656 408.152344 328.207031 412.597656 328.222656 417.042969 C 328.222656 417.589844 328.347656 418.15625 328.441406 418.71875 C 329.492188 425.308594 335.472656 429.972656 342.421875 429.628906 C 348.917969 429.300781 354.617188 423.820312 354.726562 417.339844 C 354.882812 408.089844 354.804688 398.839844 354.695312 389.601562 C 354.679688 388.226562 355.023438 387.503906 356.101562 386.707031 C 364.570312 380.398438 368.296875 371.898438 366.371094 361.550781 C 364.414062 351.015625 357.855469 344.066406 347.429688 341.609375 C 337.113281 339.183594 328.222656 342.34375 321.632812 350.71875 C 312.695312 362.097656 315.277344 378.300781 327.128906 386.800781 C 327.707031 387.222656 328.363281 388.039062 328.378906 388.695312 C 328.472656 393.6875 328.441406 398.699219 328.441406 403.691406 Z M 467.449219 310.941406 C 467.449219 360.363281 467.449219 409.796875 467.449219 459.230469 C 467.304688 459.699219 467.117188 460.152344 467.039062 460.625 C 465.003906 473.019531 456.410156 482.257812 444.1875 485.167969 C 443.183594 485.402344 442.183594 485.667969 441.179688 485.917969 C 374.792969 485.917969 308.421875 485.917969 242.035156 485.917969 C 241.722656 485.792969 241.425781 485.589844 241.09375 485.542969 C 230.496094 483.757812 222.921875 477.9375 218.429688 468.230469 C 217.175781 465.539062 216.644531 462.515625 215.769531 459.652344 C 215.769531 410.078125 215.769531 360.503906 215.769531 310.941406 C 216.660156 308 217.191406 304.871094 218.507812 302.144531 C 224.171875 290.484375 233.644531 284.660156 246.605469 284.644531 C 296.023438 284.628906 345.457031 284.644531 394.875 284.644531 C 409.136719 284.644531 423.414062 284.488281 437.675781 284.691406 C 450.195312 284.878906 459.277344 290.890625 464.707031 302.144531 C 466.023438 304.886719 466.554688 308 467.449219 310.941406 " fill-opacity="1" fill-rule="nonzero"/><path fill="#cbff8b" d="M 348.386719 158.835938 C 352.488281 159.476562 356.652344 159.839844 360.671875 160.808594 C 395.285156 169.199219 416.746094 190.894531 425.449219 225.300781 C 429.175781 240.046875 430.066406 255.089844 429.566406 270.257812 C 429.535156 270.886719 429.425781 271.511719 429.363281 272.214844 C 417.214844 272.214844 405.175781 272.214844 392.859375 272.214844 C 392.859375 271.371094 392.828125 270.554688 392.859375 269.742188 C 393.203125 258.925781 392.890625 248.140625 390.320312 237.558594 C 386.171875 220.417969 377.375 206.769531 360.265625 200.335938 C 340.386719 192.851562 322.179688 196.234375 306.683594 211.058594 C 298.667969 218.710938 294.789062 228.730469 292.488281 239.390625 C 290.546875 248.34375 290.089844 257.40625 290.277344 266.535156 C 290.324219 268.363281 290.292969 270.195312 290.292969 272.183594 C 278.164062 272.183594 266.078125 272.183594 253.539062 272.183594 C 253.539062 267.847656 253.460938 263.558594 253.554688 259.269531 C 253.882812 244.757812 255.496094 230.390625 260.332031 216.613281 C 271.949219 183.460938 295.585938 164.894531 330.039062 159.632812 C 332.058594 159.335938 334.078125 159.101562 336.097656 158.835938 C 340.199219 158.835938 344.300781 158.835938 348.386719 158.835938 " fill-opacity="1" fill-rule="nonzero"/></g></g></g></svg>