<svg xmlns="http://www.w3.org/2000/svg" xmlns:xlink="http://www.w3.org/1999/xlink" width="1200" zoomAndPan="magnify" viewBox="0 0 900 899.99999" height="1200" preserveAspectRatio="xMidYMid meet" version="1.0"><defs><filter x="0%" y="0%" width="100%" height="100%" id="dca43e0272"><feColorMatrix values="0 0 0 0 1 0 0 0 0 1 0 0 0 0 1 0 0 0 1 0" color-interpolation-filters="sRGB"/></filter><mask id="c3eb2f79ea"><g filter="url(#dca43e0272)"><rect x="-90" width="1080" fill="#000000" y="-89.999999" height="1079.999988" fill-opacity="0.75"/></g></mask><clipPath id="cfcc137905"><path d="M 1 1.855469 L 439.75 1.855469 L 439.75 537.355469 L 1 537.355469 Z M 1 1.855469 " clip-rule="nonzero"/></clipPath><clipPath id="c894ccc5e5"><rect x="0" width="441" y="0" height="538"/></clipPath></defs><path fill="#22a472" d="M 138.785156 496.289062 L 261.792969 496.289062 L 261.792969 447.265625 L 233.425781 447.265625 L 233.425781 467.9375 L 138.785156 467.9375 C 138.257812 466.867188 137.667969 465.832031 137.023438 464.828125 C 136.378906 463.824219 135.683594 462.859375 134.929688 461.933594 C 134.175781 461.011719 133.375 460.128906 132.523438 459.292969 C 131.671875 458.457031 130.777344 457.671875 129.839844 456.9375 C 128.902344 456.203125 127.921875 455.519531 126.910156 454.894531 C 125.894531 454.269531 124.847656 453.703125 123.769531 453.191406 C 122.691406 452.683594 121.585938 452.234375 120.457031 451.851562 C 119.328125 451.464844 118.183594 451.144531 117.019531 450.886719 C 115.855469 450.628906 114.679688 450.4375 113.492188 450.3125 C 112.304688 450.1875 111.117188 450.125 109.925781 450.132812 C 108.730469 450.140625 107.542969 450.214844 106.359375 450.355469 C 105.175781 450.496094 104 450.703125 102.839844 450.972656 C 101.679688 451.246094 100.535156 451.578125 99.414062 451.980469 C 98.289062 452.378906 97.191406 452.839844 96.117188 453.359375 C 95.046875 453.882812 94.007812 454.464844 93 455.101562 C 91.992188 455.742188 91.023438 456.433594 90.09375 457.179688 C 89.164062 457.925781 88.277344 458.722656 87.4375 459.570312 C 86.597656 460.414062 85.804688 461.304688 85.066406 462.238281 C 84.324219 463.171875 83.636719 464.144531 83.003906 465.15625 C 82.371094 466.167969 81.796875 467.210938 81.28125 468.289062 C 80.765625 469.363281 80.3125 470.464844 79.921875 471.589844 C 79.527344 472.714844 79.199219 473.859375 78.9375 475.023438 C 78.671875 476.1875 78.472656 477.359375 78.339844 478.546875 C 78.207031 479.730469 78.140625 480.917969 78.140625 482.113281 C 78.140625 483.304688 78.207031 484.492188 78.339844 485.679688 C 78.472656 486.863281 78.671875 488.039062 78.9375 489.203125 C 79.199219 490.363281 79.527344 491.507812 79.921875 492.636719 C 80.3125 493.761719 80.765625 494.863281 81.28125 495.9375 C 81.796875 497.011719 82.371094 498.054688 83.003906 499.066406 C 83.636719 500.078125 84.324219 501.050781 85.066406 501.984375 C 85.804688 502.921875 86.597656 503.808594 87.4375 504.65625 C 88.277344 505.5 89.164062 506.296875 90.09375 507.046875 C 91.023438 507.792969 91.992188 508.484375 93 509.121094 C 94.007812 509.761719 95.046875 510.339844 96.117188 510.863281 C 97.191406 511.386719 98.289062 511.847656 99.414062 512.246094 C 100.535156 512.644531 101.679688 512.980469 102.839844 513.253906 C 104 513.523438 105.175781 513.730469 106.359375 513.871094 C 107.542969 514.011719 108.730469 514.082031 109.925781 514.089844 C 111.117188 514.097656 112.304688 514.039062 113.492188 513.914062 C 114.679688 513.789062 115.851562 513.597656 117.019531 513.339844 C 118.183594 513.082031 119.328125 512.761719 120.457031 512.375 C 121.585938 511.988281 122.691406 511.542969 123.769531 511.03125 C 124.847656 510.523438 125.894531 509.957031 126.910156 509.328125 C 127.921875 508.703125 128.902344 508.023438 129.839844 507.289062 C 130.777344 506.550781 131.671875 505.765625 132.523438 504.929688 C 133.375 504.09375 134.175781 503.214844 134.929688 502.289062 C 135.683594 501.363281 136.378906 500.398438 137.023438 499.398438 C 137.667969 498.394531 138.257812 497.355469 138.785156 496.289062 Z M 138.785156 496.289062 " fill-opacity="1" fill-rule="nonzero"/><path fill="#22a472" d="M 302.8125 536.167969 L 60.652344 536.167969 C 60.121094 535.097656 59.535156 534.0625 58.890625 533.058594 C 58.246094 532.054688 57.546875 531.089844 56.796875 530.167969 C 56.042969 529.242188 55.242188 528.359375 54.390625 527.523438 C 53.539062 526.6875 52.644531 525.902344 51.707031 525.167969 C 50.765625 524.433594 49.789062 523.753906 48.773438 523.125 C 47.761719 522.5 46.714844 521.933594 45.632812 521.421875 C 44.554688 520.914062 43.453125 520.46875 42.324219 520.082031 C 41.195312 519.695312 40.050781 519.375 38.882812 519.117188 C 37.71875 518.859375 36.542969 518.667969 35.359375 518.542969 C 34.171875 518.417969 32.984375 518.359375 31.789062 518.363281 C 30.597656 518.371094 29.410156 518.445312 28.226562 518.585938 C 27.039062 518.726562 25.867188 518.933594 24.707031 519.203125 C 23.546875 519.476562 22.402344 519.8125 21.277344 520.210938 C 20.15625 520.609375 19.058594 521.070312 17.984375 521.59375 C 16.914062 522.113281 15.875 522.695312 14.867188 523.332031 C 13.859375 523.972656 12.890625 524.664062 11.960938 525.410156 C 11.03125 526.15625 10.144531 526.953125 9.304688 527.800781 C 8.464844 528.644531 7.671875 529.535156 6.929688 530.46875 C 6.191406 531.40625 5.503906 532.378906 4.871094 533.386719 C 4.238281 534.398438 3.664062 535.441406 3.148438 536.519531 C 2.632812 537.59375 2.179688 538.695312 1.789062 539.820312 C 1.394531 540.945312 1.066406 542.089844 0.800781 543.253906 C 0.539062 544.417969 0.339844 545.589844 0.207031 546.777344 C 0.0742188 547.960938 0.0078125 549.152344 0.0078125 550.34375 C 0.0078125 551.535156 0.0742188 552.726562 0.207031 553.910156 C 0.339844 555.09375 0.539062 556.269531 0.800781 557.433594 C 1.066406 558.59375 1.394531 559.738281 1.789062 560.867188 C 2.179688 561.992188 2.632812 563.09375 3.148438 564.167969 C 3.664062 565.242188 4.238281 566.289062 4.871094 567.296875 C 5.503906 568.308594 6.191406 569.28125 6.929688 570.214844 C 7.671875 571.152344 8.464844 572.042969 9.304688 572.886719 C 10.144531 573.734375 11.03125 574.527344 11.960938 575.277344 C 12.890625 576.023438 13.859375 576.714844 14.867188 577.355469 C 15.875 577.992188 16.914062 578.574219 17.984375 579.09375 C 19.058594 579.617188 20.15625 580.078125 21.277344 580.476562 C 22.402344 580.875 23.546875 581.210938 24.707031 581.484375 C 25.867188 581.753906 27.039062 581.960938 28.226562 582.101562 C 29.410156 582.242188 30.597656 582.316406 31.789062 582.320312 C 32.984375 582.328125 34.171875 582.269531 35.359375 582.144531 C 36.542969 582.019531 37.71875 581.828125 38.882812 581.570312 C 40.046875 581.3125 41.195312 580.992188 42.324219 580.605469 C 43.453125 580.21875 44.554688 579.773438 45.632812 579.261719 C 46.714844 578.753906 47.761719 578.1875 48.773438 577.5625 C 49.789062 576.933594 50.765625 576.253906 51.707031 575.519531 C 52.644531 574.78125 53.539062 573.996094 54.390625 573.160156 C 55.242188 572.328125 56.042969 571.445312 56.796875 570.519531 C 57.546875 569.59375 58.246094 568.632812 58.890625 567.628906 C 59.535156 566.625 60.121094 565.589844 60.652344 564.519531 L 331.164062 564.519531 L 331.164062 447.265625 L 302.8125 447.265625 Z M 302.8125 536.167969 " fill-opacity="1" fill-rule="nonzero"/><path fill="#22a472" d="M 499.246094 447.265625 L 499.246094 496.289062 L 622.253906 496.289062 C 622.78125 497.355469 623.367188 498.394531 624.011719 499.398438 C 624.65625 500.402344 625.355469 501.363281 626.109375 502.289062 C 626.859375 503.214844 627.664062 504.097656 628.511719 504.933594 C 629.363281 505.769531 630.257812 506.554688 631.199219 507.289062 C 632.136719 508.023438 633.113281 508.707031 634.128906 509.332031 C 635.144531 509.957031 636.191406 510.523438 637.269531 511.035156 C 638.347656 511.542969 639.453125 511.992188 640.582031 512.375 C 641.710938 512.761719 642.855469 513.082031 644.019531 513.339844 C 645.183594 513.597656 646.359375 513.789062 647.546875 513.914062 C 648.734375 514.042969 649.921875 514.101562 651.113281 514.09375 C 652.308594 514.085938 653.496094 514.011719 654.679688 513.871094 C 655.867188 513.730469 657.039062 513.527344 658.199219 513.253906 C 659.359375 512.984375 660.503906 512.648438 661.628906 512.25 C 662.75 511.847656 663.851562 511.390625 664.921875 510.867188 C 665.996094 510.34375 667.035156 509.765625 668.042969 509.125 C 669.050781 508.488281 670.019531 507.792969 670.949219 507.046875 C 671.878906 506.300781 672.761719 505.503906 673.605469 504.660156 C 674.445312 503.8125 675.234375 502.921875 675.976562 501.988281 C 676.71875 501.054688 677.40625 500.082031 678.039062 499.070312 C 678.667969 498.058594 679.242188 497.015625 679.757812 495.9375 C 680.273438 494.863281 680.730469 493.761719 681.121094 492.636719 C 681.515625 491.511719 681.84375 490.363281 682.105469 489.203125 C 682.371094 488.039062 682.570312 486.863281 682.703125 485.679688 C 682.835938 484.496094 682.902344 483.304688 682.902344 482.113281 C 682.902344 480.917969 682.835938 479.730469 682.703125 478.546875 C 682.570312 477.359375 682.371094 476.1875 682.105469 475.023438 C 681.84375 473.859375 681.515625 472.714844 681.121094 471.589844 C 680.730469 470.460938 680.273438 469.363281 679.757812 468.285156 C 679.242188 467.210938 678.667969 466.167969 678.039062 465.15625 C 677.40625 464.144531 676.71875 463.171875 675.976562 462.238281 C 675.234375 461.304688 674.445312 460.414062 673.605469 459.566406 C 672.761719 458.722656 671.878906 457.925781 670.949219 457.175781 C 670.019531 456.429688 669.050781 455.738281 668.042969 455.097656 C 667.035156 454.460938 665.996094 453.878906 664.921875 453.359375 C 663.851562 452.835938 662.75 452.375 661.628906 451.976562 C 660.503906 451.578125 659.359375 451.242188 658.199219 450.96875 C 657.039062 450.699219 655.867188 450.492188 654.679688 450.351562 C 653.496094 450.210938 652.308594 450.136719 651.113281 450.132812 C 649.921875 450.125 648.734375 450.183594 647.546875 450.308594 C 646.359375 450.433594 645.183594 450.625 644.019531 450.882812 C 642.855469 451.140625 641.710938 451.460938 640.582031 451.847656 C 639.453125 452.234375 638.347656 452.679688 637.269531 453.191406 C 636.191406 453.699219 635.144531 454.265625 634.128906 454.894531 C 633.113281 455.519531 632.136719 456.199219 631.199219 456.9375 C 630.257812 457.671875 629.363281 458.457031 628.511719 459.292969 C 627.664062 460.128906 626.859375 461.007812 626.109375 461.933594 C 625.355469 462.859375 624.65625 463.824219 624.011719 464.828125 C 623.367188 465.832031 622.78125 466.867188 622.253906 467.9375 L 527.605469 467.9375 L 527.605469 447.265625 Z M 499.246094 447.265625 " fill-opacity="1" fill-rule="nonzero"/><path fill="#22a472" d="M 458.222656 435.113281 L 627.71875 435.113281 C 681.003906 435.113281 724.203125 391.917969 724.203125 338.628906 C 724.203125 335.808594 724.078125 332.992188 723.832031 330.183594 C 723.585938 327.371094 723.214844 324.578125 722.722656 321.796875 C 722.230469 319.019531 721.617188 316.269531 720.882812 313.542969 C 720.148438 310.820312 719.296875 308.132812 718.328125 305.484375 C 717.359375 302.832031 716.277344 300.230469 715.078125 297.675781 C 713.878906 295.121094 712.574219 292.625 711.15625 290.183594 C 709.738281 287.746094 708.21875 285.371094 706.59375 283.066406 C 704.96875 280.757812 703.246094 278.527344 701.425781 276.371094 C 699.605469 274.214844 697.695312 272.144531 695.691406 270.15625 C 693.6875 268.167969 691.605469 266.273438 689.433594 264.46875 C 687.265625 262.664062 685.023438 260.957031 682.703125 259.347656 C 680.386719 257.742188 678 256.238281 675.550781 254.839844 C 673.101562 253.441406 670.59375 252.152344 668.03125 250.972656 C 665.46875 249.792969 662.859375 248.726562 660.203125 247.777344 C 657.542969 246.828125 654.851562 245.996094 652.121094 245.28125 C 649.390625 244.566406 646.636719 243.976562 643.855469 243.503906 L 630.527344 241.242188 C 630.640625 239.324219 630.699219 237.398438 630.699219 235.453125 C 630.699219 181.226562 586.742188 137.265625 532.515625 137.265625 C 526.023438 137.261719 519.59375 137.890625 513.226562 139.164062 C 506.859375 140.4375 500.679688 142.324219 494.6875 144.824219 C 479.628906 62.472656 407.515625 0.0625 320.820312 0.0625 C 226.125 0.0625 148.824219 74.527344 144.273438 168.09375 C 83.855469 180.640625 36.832031 234.152344 36.832031 300.222656 C 36.832031 302.429688 36.886719 304.636719 36.996094 306.84375 C 37.101562 309.046875 37.265625 311.25 37.480469 313.445312 C 37.699219 315.640625 37.96875 317.832031 38.292969 320.015625 C 38.613281 322.199219 38.992188 324.375 39.421875 326.539062 C 39.855469 328.703125 40.335938 330.859375 40.875 333 C 41.410156 335.140625 42 337.269531 42.640625 339.378906 C 43.28125 341.492188 43.972656 343.589844 44.714844 345.667969 C 45.460938 347.746094 46.253906 349.804688 47.097656 351.84375 C 47.941406 353.882812 48.835938 355.902344 49.78125 357.898438 C 50.726562 359.894531 51.71875 361.863281 52.757812 363.8125 C 53.796875 365.757812 54.886719 367.679688 56.023438 369.570312 C 57.15625 371.464844 58.335938 373.328125 59.5625 375.164062 C 60.789062 377 62.0625 378.804688 63.375 380.578125 C 64.691406 382.351562 66.046875 384.089844 67.449219 385.796875 C 68.847656 387.503906 70.292969 389.175781 71.773438 390.8125 C 73.257812 392.449219 74.777344 394.046875 76.339844 395.605469 C 77.898438 397.167969 79.5 398.691406 81.132812 400.171875 C 82.769531 401.65625 84.441406 403.097656 86.148438 404.496094 C 87.855469 405.898438 89.59375 407.253906 91.367188 408.570312 C 93.140625 409.886719 94.945312 411.15625 96.78125 412.382812 C 98.617188 413.609375 100.480469 414.789062 102.375 415.925781 C 104.265625 417.058594 106.1875 418.148438 108.132812 419.1875 C 110.082031 420.226562 112.050781 421.21875 114.046875 422.164062 C 116.042969 423.109375 118.0625 424.003906 120.101562 424.847656 C 122.140625 425.691406 124.199219 426.484375 126.277344 427.230469 C 128.355469 427.972656 130.453125 428.664062 132.566406 429.304688 C 134.675781 429.945312 136.804688 430.535156 138.945312 431.070312 C 141.085938 431.609375 143.242188 432.09375 145.40625 432.523438 C 147.570312 432.953125 149.746094 433.332031 151.929688 433.652344 C 154.113281 433.976562 156.304688 434.25 158.5 434.464844 C 160.699219 434.679688 162.898438 434.84375 165.101562 434.953125 C 167.308594 435.058594 169.515625 435.113281 171.722656 435.113281 Z M 458.222656 435.113281 " fill-opacity="1" fill-rule="nonzero"/><path fill="#22a472" d="M 729.046875 518.359375 C 727.5625 518.359375 726.085938 518.460938 724.617188 518.667969 C 723.148438 518.875 721.703125 519.179688 720.273438 519.585938 C 718.847656 519.992188 717.457031 520.496094 716.101562 521.097656 C 714.742188 521.699219 713.433594 522.390625 712.175781 523.175781 C 710.914062 523.957031 709.714844 524.824219 708.574219 525.773438 C 707.4375 526.722656 706.367188 527.746094 705.371094 528.847656 C 704.375 529.945312 703.457031 531.109375 702.621094 532.332031 C 701.785156 533.558594 701.039062 534.835938 700.382812 536.167969 L 458.222656 536.167969 L 458.222656 447.265625 L 429.871094 447.265625 L 429.871094 564.515625 L 700.382812 564.515625 C 700.800781 565.359375 701.257812 566.1875 701.75 566.996094 C 702.242188 567.800781 702.769531 568.585938 703.332031 569.34375 C 703.894531 570.105469 704.488281 570.839844 705.113281 571.546875 C 705.742188 572.253906 706.398438 572.933594 707.085938 573.582031 C 707.773438 574.230469 708.484375 574.847656 709.226562 575.433594 C 709.96875 576.019531 710.734375 576.570312 711.527344 577.089844 C 712.316406 577.605469 713.128906 578.089844 713.960938 578.535156 C 714.796875 578.980469 715.648438 579.390625 716.515625 579.757812 C 717.386719 580.128906 718.269531 580.460938 719.167969 580.753906 C 720.066406 581.042969 720.976562 581.296875 721.898438 581.507812 C 722.820312 581.71875 723.75 581.890625 724.6875 582.019531 C 725.621094 582.148438 726.5625 582.234375 727.507812 582.28125 C 728.449219 582.324219 729.394531 582.328125 730.339844 582.292969 C 731.285156 582.253906 732.222656 582.171875 733.160156 582.050781 C 734.097656 581.929688 735.027344 581.765625 735.953125 581.5625 C 736.875 581.359375 737.785156 581.113281 738.6875 580.832031 C 739.589844 580.546875 740.476562 580.222656 741.347656 579.859375 C 742.222656 579.492188 743.074219 579.09375 743.914062 578.652344 C 744.75 578.214844 745.566406 577.738281 746.359375 577.226562 C 747.15625 576.714844 747.925781 576.167969 748.671875 575.589844 C 749.417969 575.007812 750.136719 574.398438 750.828125 573.753906 C 751.519531 573.109375 752.183594 572.4375 752.816406 571.734375 C 753.449219 571.03125 754.046875 570.304688 754.617188 569.546875 C 755.183594 568.792969 755.714844 568.011719 756.214844 567.210938 C 756.714844 566.40625 757.175781 565.582031 757.601562 564.738281 C 758.027344 563.894531 758.414062 563.035156 758.765625 562.15625 C 759.113281 561.277344 759.421875 560.386719 759.691406 559.480469 C 759.964844 558.574219 760.191406 557.660156 760.382812 556.734375 C 760.570312 555.808594 760.71875 554.875 760.824219 553.933594 C 760.929688 552.996094 760.996094 552.054688 761.019531 551.109375 C 761.042969 550.164062 761.023438 549.21875 760.960938 548.277344 C 760.902344 547.332031 760.796875 546.394531 760.652344 545.460938 C 760.511719 544.527344 760.324219 543.601562 760.097656 542.683594 C 759.871094 541.765625 759.605469 540.859375 759.300781 539.964844 C 758.992188 539.070312 758.648438 538.191406 758.261719 537.328125 C 757.878906 536.464844 757.457031 535.621094 756.996094 534.796875 C 756.539062 533.96875 756.042969 533.164062 755.511719 532.382812 C 754.980469 531.601562 754.417969 530.84375 753.820312 530.113281 C 753.222656 529.378906 752.59375 528.675781 751.933594 528 C 751.273438 527.324219 750.582031 526.675781 749.867188 526.0625 C 749.148438 525.445312 748.40625 524.863281 747.636719 524.316406 C 746.867188 523.765625 746.074219 523.25 745.261719 522.773438 C 744.445312 522.292969 743.609375 521.851562 742.757812 521.445312 C 741.902344 521.039062 741.03125 520.675781 740.144531 520.347656 C 739.261719 520.019531 738.359375 519.730469 737.449219 519.480469 C 736.535156 519.234375 735.617188 519.027344 734.683594 518.859375 C 733.753906 518.691406 732.820312 518.566406 731.878906 518.484375 C 730.9375 518.402344 729.992188 518.359375 729.046875 518.359375 Z M 729.046875 518.359375 " fill-opacity="1" fill-rule="nonzero"/><g mask="url(#c3eb2f79ea)"><g transform="matrix(1, 0, 0, 1, 449, 357)"><g clip-path="url(#c894ccc5e5)"><g clip-path="url(#cfcc137905)"><path fill="#cbff8b" d="M 391.855469 231.222656 C 386.257812 234.085938 380.152344 236.832031 373.703125 239.390625 C 372.453125 239.882812 371.167969 240.117188 369.902344 240.117188 C 365.761719 240.117188 361.851562 237.609375 360.242188 233.503906 C 358.144531 228.136719 360.765625 222.078125 366.097656 219.964844 C 371.9375 217.652344 377.433594 215.179688 382.445312 212.613281 C 387.550781 210 393.796875 212.046875 396.398438 217.183594 C 398.996094 222.324219 396.960938 228.609375 391.855469 231.222656 M 136.210938 247.324219 C 135.242188 252.304688 130.902344 255.765625 126.035156 255.765625 C 125.378906 255.765625 124.710938 255.699219 124.039062 255.570312 C 116.125 254.015625 108.375 252.25 100.996094 250.320312 C 95.449219 248.871094 92.121094 243.171875 93.5625 237.59375 C 95.003906 232.011719 100.667969 228.660156 106.21875 230.117188 C 113.183594 231.9375 120.515625 233.605469 128.011719 235.078125 C 133.636719 236.183594 137.308594 241.664062 136.210938 247.324219 M 80.636719 233.503906 C 79.03125 237.609375 75.121094 240.117188 70.980469 240.117188 C 69.714844 240.117188 68.429688 239.882812 67.183594 239.390625 C 60.730469 236.832031 54.625 234.085938 49.027344 231.222656 C 43.921875 228.609375 41.886719 222.324219 44.488281 217.183594 C 47.085938 212.046875 53.332031 210 58.441406 212.613281 C 63.449219 215.179688 68.949219 217.652344 74.789062 219.964844 C 80.117188 222.078125 82.738281 228.136719 80.636719 233.503906 M 387.859375 176.316406 C 409.679688 166.597656 427.003906 155.164062 439.398438 142.550781 L 439.398438 222.167969 C 433.472656 240.996094 412.480469 259.417969 379.789062 273.980469 C 337.398438 292.863281 280.808594 303.265625 220.445312 303.265625 C 160.082031 303.265625 103.492188 292.863281 61.101562 273.980469 C 28.410156 259.417969 7.417969 240.996094 1.492188 222.167969 L 1.492188 142.550781 C 13.886719 155.164062 31.210938 166.597656 53.03125 176.316406 C 97.917969 196.3125 157.375 207.324219 220.445312 207.324219 C 283.515625 207.324219 342.96875 196.3125 387.859375 176.316406 Z M 371.605469 26.101562 C 415.421875 43.019531 439.554688 66.910156 439.554688 93.375 C 439.554688 119.835938 415.421875 143.726562 371.605469 160.644531 C 331.070312 176.300781 277.382812 184.921875 220.441406 184.921875 C 163.5 184.921875 109.816406 176.300781 69.277344 160.644531 C 25.460938 143.726562 1.328125 119.835938 1.328125 93.375 C 1.328125 66.910156 25.460938 43.019531 69.277344 26.101562 C 109.816406 10.445312 163.5 1.824219 220.441406 1.824219 C 277.382812 1.824219 331.070312 10.445312 371.605469 26.101562 Z M 396.398438 333.5 C 398.996094 338.640625 396.960938 344.925781 391.855469 347.539062 C 386.257812 350.402344 380.148438 353.152344 373.703125 355.707031 C 372.453125 356.203125 371.167969 356.4375 369.902344 356.4375 C 365.765625 356.4375 361.851562 353.929688 360.242188 349.820312 C 358.144531 344.457031 360.765625 338.394531 366.097656 336.28125 C 371.933594 333.96875 377.433594 331.496094 382.445312 328.929688 C 387.550781 326.316406 393.796875 328.363281 396.398438 333.5 M 136.210938 363.640625 C 135.242188 368.625 130.902344 372.082031 126.035156 372.082031 C 125.378906 372.082031 124.710938 372.019531 124.039062 371.886719 C 116.125 370.332031 108.375 368.566406 100.996094 366.640625 C 95.449219 365.191406 92.121094 359.492188 93.5625 353.910156 C 95.003906 348.332031 100.667969 344.980469 106.214844 346.433594 C 113.183594 348.253906 120.519531 349.921875 128.011719 351.394531 C 133.636719 352.5 137.308594 357.984375 136.210938 363.640625 M 80.636719 349.820312 C 79.03125 353.925781 75.121094 356.4375 70.980469 356.4375 C 69.714844 356.4375 68.429688 356.203125 67.183594 355.707031 C 60.734375 353.152344 54.625 350.402344 49.03125 347.539062 C 43.921875 344.925781 41.886719 338.640625 44.488281 333.5 C 47.085938 328.363281 53.332031 326.316406 58.441406 328.929688 C 63.453125 331.496094 68.949219 333.96875 74.785156 336.28125 C 80.117188 338.394531 82.738281 344.453125 80.636719 349.820312 M 220.445312 325.222656 C 157.375 325.222656 97.917969 314.210938 53.03125 294.214844 C 31.210938 284.496094 13.886719 273.0625 1.492188 260.449219 L 1.492188 340.066406 C 7.417969 358.894531 28.410156 377.320312 61.101562 391.878906 C 103.492188 410.765625 160.082031 421.164062 220.445312 421.164062 C 280.808594 421.164062 337.398438 410.765625 379.789062 391.878906 C 412.480469 377.316406 433.472656 358.894531 439.398438 340.066406 L 439.398438 260.449219 C 427.003906 273.0625 409.679688 284.496094 387.859375 294.214844 C 342.96875 314.210938 283.515625 325.222656 220.445312 325.222656 M 396.398438 453.859375 C 398.996094 458.996094 396.960938 465.28125 391.855469 467.898438 C 386.261719 470.757812 380.152344 473.507812 373.703125 476.066406 C 372.453125 476.558594 371.167969 476.792969 369.902344 476.792969 C 365.761719 476.792969 361.851562 474.285156 360.242188 470.179688 C 358.144531 464.8125 360.765625 458.75 366.097656 456.640625 C 371.9375 454.324219 377.4375 451.851562 382.441406 449.289062 C 387.550781 446.671875 393.796875 448.722656 396.398438 453.859375 M 136.210938 484 C 135.242188 488.980469 130.898438 492.441406 126.035156 492.441406 C 125.378906 492.441406 124.710938 492.375 124.039062 492.246094 C 116.125 490.691406 108.375 488.925781 100.996094 487 C 95.449219 485.546875 92.121094 479.847656 93.5625 474.269531 C 95.003906 468.6875 100.667969 465.339844 106.214844 466.789062 C 113.183594 468.613281 120.519531 470.28125 128.011719 471.753906 C 133.636719 472.859375 137.308594 478.339844 136.210938 484 M 80.636719 470.175781 C 79.03125 474.285156 75.121094 476.792969 70.980469 476.792969 C 69.714844 476.792969 68.429688 476.558594 67.183594 476.066406 C 60.726562 473.507812 54.621094 470.757812 49.027344 467.894531 C 43.921875 465.28125 41.886719 458.996094 44.488281 453.859375 C 47.085938 448.71875 53.335938 446.675781 58.441406 449.289062 C 63.445312 451.851562 68.945312 454.324219 74.785156 456.640625 C 80.117188 458.75 82.738281 464.8125 80.636719 470.175781 M 220.445312 441.226562 C 157.375 441.226562 97.917969 430.214844 53.03125 410.222656 C 31.210938 400.5 13.886719 389.070312 1.492188 376.453125 L 1.492188 456.070312 C 7.417969 474.898438 28.410156 493.320312 61.101562 507.882812 C 103.492188 526.765625 160.082031 537.167969 220.445312 537.167969 C 280.808594 537.167969 337.398438 526.765625 379.789062 507.882812 C 412.480469 493.320312 433.472656 474.898438 439.398438 456.070312 L 439.398438 376.453125 C 427.003906 389.070312 409.679688 400.5 387.859375 410.222656 C 342.96875 430.214844 283.515625 441.226562 220.445312 441.226562 " fill-opacity="1" fill-rule="evenodd"/></g></g></g></g></svg>