<svg xmlns="http://www.w3.org/2000/svg" xmlns:xlink="http://www.w3.org/1999/xlink" width="1200" zoomAndPan="magnify" viewBox="0 0 900 899.99999" height="1200" preserveAspectRatio="xMidYMid meet" version="1.0"><defs><filter x="0%" y="0%" width="100%" height="100%" id="789ab74618"><feColorMatrix values="0 0 0 0 1 0 0 0 0 1 0 0 0 0 1 0 0 0 1 0" color-interpolation-filters="sRGB"/></filter><clipPath id="bb7df5cddd"><path d="M 0 719 L 782.414062 719 L 782.414062 738 L 0 738 Z M 0 719 " clip-rule="nonzero"/></clipPath><clipPath id="e6904cec86"><path d="M 249 6.324219 L 709 6.324219 L 709 700 L 249 700 Z M 249 6.324219 " clip-rule="nonzero"/></clipPath><mask id="ff5c1040ba"><g filter="url(#789ab74618)"><rect x="-90" width="1080" fill="#000000" y="-89.999999" height="1079.999988" fill-opacity="0.75"/></g></mask><clipPath id="341e10d3e7"><path d="M 0.308594 0.484375 L 537 0.484375 L 537 537 L 0.308594 537 Z M 0.308594 0.484375 " clip-rule="nonzero"/></clipPath><clipPath id="6dd2a3fca8"><rect x="0" width="537" y="0" height="537"/></clipPath></defs><g clip-path="url(#bb7df5cddd)"><path fill="#22a472" d="M -54.484375 719.027344 C -59.691406 719.027344 -63.925781 723.238281 -63.925781 728.46875 C -63.925781 733.675781 -59.691406 737.890625 -54.484375 737.890625 L 49.25 737.890625 C 49.269531 737.910156 49.289062 737.890625 49.308594 737.890625 L 527.441406 737.890625 L 527.441406 737.910156 C 527.460938 737.910156 527.460938 737.890625 527.480469 737.890625 L 772.730469 737.890625 C 777.9375 737.890625 782.167969 733.675781 782.167969 728.46875 C 782.167969 723.238281 777.9375 719.027344 772.730469 719.027344 Z M -54.484375 719.027344 " fill-opacity="1" fill-rule="nonzero"/></g><path fill="#22a472" d="M 457.84375 443.738281 C 447.933594 398.777344 405.410156 404.121094 403.597656 404.375 C 403.167969 404.433594 402.738281 404.472656 402.289062 404.472656 L 49.933594 404.472656 C 22.488281 404.472656 10.023438 427.644531 9.730469 450.894531 L 57.207031 699.519531 L 515.640625 699.519531 C 505.378906 654.382812 468.003906 489.910156 457.84375 443.738281 Z M 245.285156 593.914062 C 218.875 593.914062 197.398438 572.4375 197.398438 546.046875 C 197.398438 519.636719 218.875 498.160156 245.285156 498.160156 C 271.675781 498.160156 293.152344 519.636719 293.152344 546.046875 C 293.152344 572.4375 271.675781 593.914062 245.285156 593.914062 Z M 274.269531 546.046875 C 274.269531 562.023438 261.261719 575.03125 245.285156 575.03125 C 229.289062 575.03125 216.28125 562.023438 216.28125 546.046875 C 216.28125 530.050781 229.289062 517.042969 245.285156 517.042969 C 261.261719 517.042969 274.269531 530.050781 274.269531 546.046875 Z M 274.269531 546.046875 " fill-opacity="1" fill-rule="nonzero"/><g clip-path="url(#e6904cec86)"><path fill="#22a472" d="M 701.960938 677.441406 C 701.628906 678.042969 701.296875 678.628906 700.945312 679.195312 C 693.222656 691.738281 678.847656 699.519531 663.398438 699.519531 L 570.257812 699.519531 C 548.664062 699.519531 530.386719 683.71875 526.816406 661.953125 C 522.816406 637.472656 539.085938 614.238281 563.097656 610.183594 L 590.933594 605.460938 L 616.425781 601.386719 C 621.578125 600.566406 625.085938 595.730469 624.269531 590.578125 C 623.449219 585.429688 618.613281 581.917969 613.460938 582.757812 L 595.398438 585.625 L 555.179688 482.554688 C 553.285156 477.699219 547.804688 475.296875 542.949219 477.191406 C 538.089844 479.082031 535.691406 484.5625 537.582031 489.421875 L 576.363281 588.785156 L 559.9375 591.554688 C 541.523438 594.675781 526.308594 605.65625 517.0625 620.558594 C 502.160156 554.84375 483.082031 470.617188 476.277344 439.660156 C 465.488281 390.738281 423.179688 382.898438 401.683594 385.589844 L 265.042969 385.589844 C 340.417969 353.074219 454.019531 362.007812 455.328125 362.125 C 455.578125 362.144531 455.832031 362.144531 456.105469 362.144531 C 522.542969 362.144531 584.457031 395.050781 621.730469 450.15625 C 637.472656 474.65625 651.382812 500.578125 663.046875 527.242188 L 704.710938 622.453125 C 711.285156 637.589844 708.710938 665.328125 701.960938 677.441406 Z M 416.976562 6.273438 C 324.421875 6.273438 249.128906 81.589844 249.128906 174.125 C 249.128906 265.160156 321.984375 339.496094 412.433594 341.914062 C 415.535156 341.894531 418.519531 341.894531 421.367188 341.933594 C 511.914062 339.59375 584.828125 265.21875 584.828125 174.125 C 584.828125 81.589844 509.535156 6.273438 416.976562 6.273438 Z M 416.976562 6.273438 " fill-opacity="1" fill-rule="nonzero"/></g><g mask="url(#ff5c1040ba)"><g transform="matrix(1, 0, 0, 1, 363, 363)"><g clip-path="url(#6dd2a3fca8)"><g clip-path="url(#341e10d3e7)"><path fill="#cbff8b" d="M 268.652344 379.5 C 207.527344 379.5 157.980469 329.953125 157.980469 268.828125 C 157.980469 207.703125 207.527344 158.15625 268.652344 158.15625 C 329.777344 158.15625 379.324219 207.703125 379.324219 268.828125 C 379.324219 329.953125 329.777344 379.5 268.652344 379.5 Z M 522.503906 217.085938 L 472.957031 211.21875 C 468.480469 195.300781 462.128906 179.800781 453.871094 165.082031 L 484.742188 125.917969 C 489.898438 119.382812 489.339844 110.023438 483.457031 104.144531 L 433.335938 54.023438 C 427.457031 48.140625 418.097656 47.582031 411.5625 52.738281 L 372.398438 83.609375 C 357.679688 75.351562 342.175781 69 326.261719 64.523438 L 320.398438 14.972656 C 319.417969 6.707031 312.414062 0.484375 304.089844 0.484375 L 233.207031 0.484375 C 224.890625 0.484375 217.886719 6.707031 216.910156 14.972656 L 211.042969 64.523438 C 195.125 69 179.625 75.351562 164.90625 83.609375 L 125.734375 52.738281 C 119.207031 47.582031 109.847656 48.140625 103.964844 54.023438 L 53.847656 104.144531 C 47.964844 110.023438 47.40625 119.382812 52.5625 125.917969 L 83.433594 165.082031 C 75.175781 179.800781 68.820312 195.300781 64.347656 211.21875 L 14.796875 217.085938 C 6.53125 218.0625 0.308594 225.066406 0.308594 233.382812 L 0.308594 304.265625 C 0.308594 312.589844 6.53125 319.59375 14.796875 320.574219 L 64.347656 326.4375 C 68.820312 342.351562 75.175781 357.855469 83.433594 372.574219 L 52.5625 411.738281 C 47.40625 418.273438 47.964844 427.632812 53.847656 433.511719 L 103.964844 483.632812 C 109.847656 489.515625 119.207031 490.074219 125.734375 484.917969 L 164.90625 454.046875 C 179.625 462.304688 195.125 468.65625 211.042969 473.132812 L 216.910156 522.679688 C 217.886719 530.949219 224.890625 537.167969 233.207031 537.167969 L 302.917969 537.167969 C 311.089844 537.167969 318.019531 531.15625 319.171875 523.058594 L 326.261719 473.132812 C 342.175781 468.65625 357.679688 462.304688 372.398438 454.046875 L 411.5625 484.917969 C 418.097656 490.074219 427.457031 489.515625 433.335938 483.632812 L 483.457031 433.511719 C 489.339844 427.632812 489.898438 418.273438 484.742188 411.738281 L 453.871094 372.574219 C 462.128906 357.855469 468.480469 342.351562 472.957031 326.4375 L 522.503906 320.574219 C 530.773438 319.59375 536.992188 312.589844 536.992188 304.265625 L 536.992188 233.382812 C 536.992188 225.066406 530.773438 218.0625 522.503906 217.085938 " fill-opacity="1" fill-rule="nonzero"/></g></g></g></g></svg>