<svg xmlns="http://www.w3.org/2000/svg" xmlns:xlink="http://www.w3.org/1999/xlink" width="1200" zoomAndPan="magnify" viewBox="0 0 900 899.99999" height="1200" preserveAspectRatio="xMidYMid meet" version="1.0"><defs><filter x="0%" y="0%" width="100%" height="100%" id="9b8368bf33"><feColorMatrix values="0 0 0 0 1 0 0 0 0 1 0 0 0 0 1 0 0 0 1 0" color-interpolation-filters="sRGB"/></filter><clipPath id="b8b87877a5"><path d="M 4.5 4 L 705 4 L 705 688 L 4.5 688 Z M 4.5 4 " clip-rule="nonzero"/></clipPath><mask id="dbe4ff3932"><g filter="url(#9b8368bf33)"><rect x="-90" width="1080" fill="#000000" y="-89.999999" height="1079.999988" fill-opacity="0.75"/></g></mask><clipPath id="099bc208dd"><path d="M 48 0.078125 L 419 0.078125 L 419 370 L 48 370 Z M 48 0.078125 " clip-rule="nonzero"/></clipPath><clipPath id="034acda230"><rect x="0" width="467" y="0" height="552"/></clipPath></defs><path fill="#2bb787" d="M 250.792969 290.554688 L 237.097656 276.859375 C 230.417969 286.027344 224.902344 295.851562 220.554688 306.328125 C 216.207031 316.808594 213.148438 327.648438 211.371094 338.851562 L 230.773438 338.851562 C 232.367188 330.1875 234.847656 321.785156 238.222656 313.644531 C 241.597656 305.503906 245.785156 297.808594 250.792969 290.554688 Z M 250.792969 290.554688 " fill-opacity="1" fill-rule="nonzero"/><path fill="#2bb787" d="M 260.304688 300.066406 C 256.410156 305.960938 253.105469 312.171875 250.390625 318.695312 C 247.675781 325.21875 245.597656 331.9375 244.160156 338.851562 L 299.128906 338.851562 Z M 260.304688 300.066406 " fill-opacity="1" fill-rule="nonzero"/><path fill="#2bb787" d="M 377.160156 251.675781 L 377.160156 306.566406 L 415.945312 267.777344 C 410.050781 263.890625 403.839844 260.589844 397.316406 257.882812 C 390.796875 255.171875 384.074219 253.105469 377.160156 251.675781 Z M 377.160156 251.675781 " fill-opacity="1" fill-rule="nonzero"/><path fill="#2bb787" d="M 331.417969 251.675781 C 324.503906 253.097656 317.785156 255.160156 311.261719 257.863281 C 304.738281 260.5625 298.527344 263.855469 292.632812 267.738281 L 331.417969 306.566406 Z M 331.417969 251.675781 " fill-opacity="1" fill-rule="nonzero"/><path fill="#2bb787" d="M 331.417969 238.207031 L 331.417969 218.820312 C 320.210938 220.585938 309.371094 223.644531 298.890625 227.988281 C 288.414062 232.335938 278.589844 237.847656 269.425781 244.53125 L 283.105469 258.214844 C 290.363281 253.214844 298.0625 249.027344 306.203125 245.65625 C 314.347656 242.285156 322.75 239.800781 331.417969 238.207031 Z M 331.417969 238.207031 " fill-opacity="1" fill-rule="nonzero"/><path fill="#2bb787" d="M 250.792969 432.90625 C 245.785156 425.652344 241.597656 417.953125 238.222656 409.8125 C 234.847656 401.667969 232.367188 393.261719 230.773438 384.59375 L 211.371094 384.59375 C 213.144531 395.800781 216.207031 406.640625 220.554688 417.117188 C 224.902344 427.597656 230.414062 437.421875 237.097656 446.589844 Z M 250.792969 432.90625 " fill-opacity="1" fill-rule="nonzero"/><g clip-path="url(#b8b87877a5)"><path fill="#2bb787" d="M 635.316406 139.648438 L 354.289062 4.320312 L 73.261719 139.648438 L 3.867188 443.789062 L 198.335938 687.578125 L 510.238281 687.578125 L 704.707031 443.789062 Z M 499.300781 658.144531 C 498.664062 658.941406 497.886719 659.5625 496.96875 660.003906 C 496.046875 660.449219 495.078125 660.671875 494.054688 660.671875 L 214.519531 660.671875 C 213.5 660.671875 212.53125 660.449219 211.609375 660.003906 C 210.691406 659.5625 209.910156 658.941406 209.273438 658.144531 L 35.011719 439.621094 C 34.367188 438.824219 33.925781 437.925781 33.6875 436.929688 C 33.453125 435.929688 33.445312 434.929688 33.667969 433.929688 L 95.863281 161.429688 C 96.085938 160.429688 96.519531 159.53125 97.15625 158.726562 C 97.792969 157.925781 98.574219 157.300781 99.496094 156.855469 L 351.367188 35.585938 C 352.292969 35.144531 353.265625 34.921875 354.289062 34.921875 C 355.3125 34.921875 356.285156 35.144531 357.207031 35.585938 L 609.042969 156.855469 C 609.964844 157.300781 610.742188 157.925781 611.378906 158.726562 C 612.015625 159.53125 612.449219 160.429688 612.675781 161.429688 L 674.871094 433.929688 C 675.089844 434.929688 675.082031 435.929688 674.847656 436.929688 C 674.613281 437.925781 674.171875 438.824219 673.523438 439.621094 Z M 499.300781 658.144531 " fill-opacity="1" fill-rule="nonzero"/></g><path fill="#2bb787" d="M 354.289062 49.109375 L 108.292969 167.578125 L 47.550781 433.765625 L 217.777344 647.21875 L 490.800781 647.21875 L 661.027344 433.765625 L 600.285156 167.578125 Z M 572.085938 393.515625 C 564.953125 393.25 558.027344 391.90625 551.3125 389.476562 C 540.890625 386.136719 530.210938 384.53125 519.265625 384.664062 L 510.699219 384.664062 C 509.765625 391.125 508.4375 397.507812 506.707031 403.804688 C 504.976562 410.101562 502.859375 416.269531 500.355469 422.300781 C 497.855469 428.332031 494.984375 434.1875 491.75 439.859375 C 488.515625 445.53125 484.9375 450.980469 481.019531 456.207031 L 487.074219 462.246094 C 494.71875 470.097656 503.429688 476.5 513.199219 481.460938 C 519.671875 484.519531 525.527344 488.488281 530.769531 493.367188 C 531.507812 494.097656 532.207031 494.867188 532.871094 495.671875 C 533.53125 496.472656 534.152344 497.304688 534.734375 498.171875 C 535.3125 499.035156 535.847656 499.925781 536.339844 500.839844 C 536.832031 501.757812 537.277344 502.695312 537.679688 503.65625 C 538.078125 504.617188 538.429688 505.597656 538.730469 506.589844 C 539.035156 507.585938 539.289062 508.59375 539.492188 509.613281 C 539.695312 510.636719 539.847656 511.664062 539.953125 512.699219 C 540.054688 513.734375 540.105469 514.773438 540.105469 515.8125 C 540.105469 516.851562 540.054688 517.890625 539.953125 518.925781 C 539.847656 519.960938 539.695312 520.988281 539.492188 522.011719 C 539.289062 523.03125 539.035156 524.039062 538.730469 525.035156 C 538.429688 526.027344 538.078125 527.007812 537.679688 527.96875 C 537.277344 528.929688 536.832031 529.867188 536.339844 530.785156 C 535.847656 531.699219 535.3125 532.589844 534.734375 533.457031 C 534.152344 534.320312 533.53125 535.152344 532.871094 535.957031 C 532.207031 536.757812 531.507812 537.527344 530.769531 538.257812 C 529.3125 539.734375 527.726562 541.050781 526.007812 542.207031 C 524.292969 543.367188 522.476562 544.34375 520.5625 545.140625 C 518.652344 545.9375 516.679688 546.539062 514.648438 546.941406 C 512.613281 547.347656 510.5625 547.546875 508.492188 547.542969 L 508.410156 547.542969 C 506.320312 547.546875 504.25 547.347656 502.199219 546.941406 C 500.148438 546.539062 498.160156 545.9375 496.230469 545.136719 C 494.296875 544.335938 492.464844 543.351562 490.730469 542.1875 C 488.992188 541.023438 487.390625 539.703125 485.917969 538.21875 C 481.039062 532.980469 477.074219 527.125 474.023438 520.648438 C 469.042969 510.878906 462.628906 502.171875 454.773438 494.523438 L 448.730469 488.480469 C 443.503906 492.394531 438.054688 495.964844 432.378906 499.191406 C 426.707031 502.421875 420.851562 505.28125 414.820312 507.777344 C 408.785156 510.273438 402.621094 512.382812 396.324219 514.105469 C 390.027344 515.832031 383.648438 517.15625 377.1875 518.078125 L 377.1875 526.648438 C 377.054688 537.605469 378.667969 548.300781 382.015625 558.734375 C 384.4375 565.441406 385.785156 572.355469 386.050781 579.480469 C 386.050781 580.519531 386 581.558594 385.898438 582.589844 C 385.796875 583.625 385.644531 584.652344 385.441406 585.671875 C 385.238281 586.691406 384.988281 587.699219 384.683594 588.695312 C 384.382812 589.6875 384.035156 590.664062 383.636719 591.625 C 383.238281 592.585938 382.792969 593.523438 382.304688 594.441406 C 381.8125 595.359375 381.28125 596.25 380.703125 597.113281 C 380.125 597.976562 379.507812 598.8125 378.847656 599.613281 C 378.1875 600.417969 377.492188 601.1875 376.757812 601.921875 C 376.019531 602.65625 375.253906 603.355469 374.449219 604.011719 C 373.644531 604.671875 372.8125 605.292969 371.945312 605.867188 C 371.082031 606.445312 370.191406 606.980469 369.277344 607.46875 C 368.359375 607.960938 367.421875 608.402344 366.460938 608.800781 C 365.5 609.199219 364.523438 609.550781 363.527344 609.851562 C 362.53125 610.152344 361.527344 610.40625 360.507812 610.605469 C 359.488281 610.808594 358.460938 610.960938 357.425781 611.066406 C 356.390625 611.167969 355.355469 611.21875 354.316406 611.21875 C 353.277344 611.21875 352.238281 611.167969 351.203125 611.0625 C 350.171875 610.960938 349.144531 610.808594 348.125 610.605469 C 347.105469 610.40625 346.097656 610.152344 345.101562 609.851562 C 344.109375 609.550781 343.128906 609.199219 342.171875 608.800781 C 341.210938 608.402344 340.269531 607.960938 339.355469 607.46875 C 338.4375 606.980469 337.546875 606.445312 336.683594 605.867188 C 335.820312 605.292969 334.984375 604.671875 334.183594 604.011719 C 333.378906 603.355469 332.609375 602.65625 331.875 601.921875 C 331.140625 601.1875 330.441406 600.417969 329.78125 599.613281 C 329.125 598.8125 328.503906 597.976562 327.925781 597.113281 C 327.351562 596.25 326.816406 595.359375 326.324219 594.441406 C 325.835938 593.523438 325.390625 592.585938 324.996094 591.625 C 324.597656 590.664062 324.246094 589.6875 323.945312 588.691406 C 323.644531 587.699219 323.390625 586.691406 323.1875 585.671875 C 322.984375 584.652344 322.832031 583.625 322.730469 582.589844 C 322.628906 581.558594 322.578125 580.519531 322.578125 579.480469 C 322.847656 572.34375 324.195312 565.414062 326.613281 558.695312 C 329.96875 548.277344 331.578125 537.59375 331.445312 526.648438 L 331.445312 518.078125 C 324.980469 517.15625 318.601562 515.832031 312.304688 514.105469 C 306.007812 512.382812 299.84375 510.273438 293.8125 507.777344 C 287.777344 505.28125 281.925781 502.421875 276.25 499.191406 C 270.578125 495.964844 265.125 492.394531 259.898438 488.480469 L 253.859375 494.523438 C 246.007812 502.167969 239.59375 510.871094 234.621094 520.636719 C 231.5625 527.113281 227.59375 532.976562 222.714844 538.21875 C 221.238281 539.699219 219.636719 541.023438 217.898438 542.1875 C 216.164062 543.347656 214.332031 544.332031 212.398438 545.132812 C 210.46875 545.929688 208.480469 546.535156 206.429688 546.941406 C 204.378906 547.347656 202.308594 547.546875 200.21875 547.542969 L 200.113281 547.542969 C 199.078125 547.535156 198.046875 547.480469 197.019531 547.375 C 195.988281 547.269531 194.96875 547.113281 193.953125 546.90625 C 192.941406 546.699219 191.9375 546.445312 190.949219 546.140625 C 189.960938 545.835938 188.988281 545.488281 188.035156 545.089844 C 187.082031 544.691406 186.148438 544.246094 185.238281 543.757812 C 184.324219 543.265625 183.441406 542.734375 182.582031 542.160156 C 181.722656 541.582031 180.894531 540.964844 180.09375 540.308594 C 179.292969 539.652344 178.53125 538.960938 177.796875 538.226562 C 177.066406 537.496094 176.371094 536.730469 175.714844 535.933594 C 175.058594 535.132812 174.441406 534.304688 173.867188 533.445312 C 173.292969 532.585938 172.757812 531.699219 172.269531 530.789062 C 171.78125 529.878906 171.335938 528.945312 170.9375 527.992188 C 170.539062 527.035156 170.1875 526.0625 169.882812 525.074219 C 169.582031 524.085938 169.324219 523.085938 169.121094 522.070312 C 168.914062 521.058594 168.757812 520.035156 168.652344 519.007812 C 168.546875 517.980469 168.488281 516.949219 168.484375 515.914062 C 168.476562 513.820312 168.671875 511.746094 169.078125 509.6875 C 169.480469 507.632812 170.082031 505.640625 170.882812 503.703125 C 171.683594 501.769531 172.664062 499.929688 173.832031 498.191406 C 174.996094 496.449219 176.320312 494.84375 177.808594 493.367188 C 183.046875 488.488281 188.902344 484.527344 195.375 481.472656 C 205.148438 476.492188 213.855469 470.070312 221.503906 462.207031 L 227.558594 456.167969 C 223.636719 450.941406 220.058594 445.488281 216.824219 439.8125 C 213.589844 434.136719 210.71875 428.28125 208.214844 422.246094 C 205.714844 416.210938 203.597656 410.046875 201.867188 403.746094 C 200.140625 397.445312 198.808594 391.0625 197.878906 384.59375 L 189.308594 384.59375 C 178.355469 384.460938 167.664062 386.070312 157.238281 389.425781 C 150.53125 391.847656 143.617188 393.191406 136.492188 393.460938 C 135.453125 393.460938 134.414062 393.410156 133.378906 393.308594 C 132.347656 393.207031 131.320312 393.054688 130.300781 392.851562 C 129.28125 392.648438 128.273438 392.394531 127.277344 392.09375 C 126.285156 391.792969 125.304688 391.441406 124.347656 391.042969 C 123.386719 390.648438 122.449219 390.203125 121.53125 389.714844 C 120.613281 389.222656 119.722656 388.691406 118.859375 388.113281 C 117.996094 387.535156 117.160156 386.917969 116.359375 386.257812 C 115.554688 385.597656 114.785156 384.898438 114.050781 384.164062 C 113.316406 383.429688 112.617188 382.660156 111.957031 381.859375 C 111.300781 381.054688 110.679688 380.21875 110.101562 379.355469 C 109.527344 378.492188 108.992188 377.601562 108.503906 376.683594 C 108.011719 375.769531 107.566406 374.828125 107.171875 373.867188 C 106.773438 372.910156 106.421875 371.929688 106.121094 370.9375 C 105.820312 369.941406 105.566406 368.933594 105.363281 367.914062 C 105.160156 366.894531 105.007812 365.871094 104.90625 364.835938 C 104.804688 363.800781 104.753906 362.761719 104.753906 361.722656 C 104.753906 360.683594 104.804688 359.648438 104.90625 358.613281 C 105.007812 357.578125 105.160156 356.550781 105.363281 355.53125 C 105.566406 354.511719 105.820312 353.507812 106.121094 352.511719 C 106.421875 351.515625 106.773438 350.539062 107.171875 349.578125 C 107.566406 348.617188 108.011719 347.679688 108.503906 346.761719 C 108.992188 345.847656 109.527344 344.957031 110.101562 344.09375 C 110.679688 343.226562 111.300781 342.394531 111.957031 341.589844 C 112.617188 340.789062 113.316406 340.019531 114.050781 339.28125 C 114.785156 338.546875 115.554688 337.851562 116.359375 337.191406 C 117.160156 336.53125 117.996094 335.914062 118.859375 335.335938 C 119.722656 334.757812 120.613281 334.226562 121.53125 333.734375 C 122.449219 333.246094 123.386719 332.800781 124.347656 332.402344 C 125.304688 332.003906 126.285156 331.65625 127.277344 331.355469 C 128.273438 331.050781 129.28125 330.800781 130.300781 330.597656 C 131.320312 330.394531 132.347656 330.242188 133.378906 330.140625 C 134.414062 330.039062 135.453125 329.988281 136.492188 329.988281 C 143.625 330.253906 150.550781 331.597656 157.261719 334.023438 C 167.683594 337.367188 178.367188 338.972656 189.308594 338.839844 L 197.878906 338.839844 C 198.808594 332.375 200.140625 325.996094 201.871094 319.699219 C 203.597656 313.402344 205.714844 307.238281 208.21875 301.207031 C 210.71875 295.175781 213.589844 289.324219 216.824219 283.652344 C 220.0625 277.980469 223.640625 272.53125 227.558594 267.308594 L 221.503906 261.253906 C 213.855469 253.394531 205.148438 246.972656 195.375 241.988281 C 188.902344 238.933594 183.042969 234.964844 177.804688 230.082031 C 177.070312 229.347656 176.367188 228.582031 175.707031 227.777344 C 175.042969 226.976562 174.421875 226.140625 173.84375 225.277344 C 173.265625 224.414062 172.726562 223.523438 172.234375 222.605469 C 171.742188 221.691406 171.296875 220.75 170.898438 219.792969 C 170.5 218.832031 170.148438 217.851562 169.84375 216.855469 C 169.542969 215.863281 169.289062 214.855469 169.085938 213.832031 C 168.878906 212.8125 168.726562 211.785156 168.625 210.75 C 168.523438 209.714844 168.472656 208.675781 168.472656 207.636719 C 168.472656 206.59375 168.523438 205.558594 168.625 204.523438 C 168.726562 203.484375 168.878906 202.457031 169.085938 201.4375 C 169.289062 200.417969 169.542969 199.410156 169.84375 198.414062 C 170.148438 197.417969 170.5 196.441406 170.898438 195.480469 C 171.296875 194.519531 171.742188 193.582031 172.234375 192.664062 C 172.726562 191.746094 173.265625 190.855469 173.84375 189.992188 C 174.421875 189.128906 175.042969 188.296875 175.707031 187.492188 C 176.367188 186.691406 177.070312 185.921875 177.804688 185.1875 C 179.261719 183.714844 180.851562 182.402344 182.570312 181.242188 C 184.289062 180.085938 186.101562 179.109375 188.015625 178.3125 C 189.925781 177.515625 191.898438 176.914062 193.929688 176.507812 C 195.960938 176.105469 198.015625 175.902344 200.085938 175.90625 L 200.167969 175.90625 C 202.253906 175.898438 204.324219 176.097656 206.375 176.5 C 208.421875 176.902344 210.414062 177.503906 212.34375 178.300781 C 214.273438 179.101562 216.109375 180.078125 217.84375 181.242188 C 219.582031 182.402344 221.1875 183.722656 222.660156 185.203125 C 227.527344 190.453125 231.492188 196.3125 234.554688 202.785156 C 239.527344 212.554688 245.945312 221.265625 253.804688 228.914062 L 259.84375 234.953125 C 265.074219 231.042969 270.523438 227.476562 276.199219 224.246094 C 281.875 221.019531 287.726562 218.160156 293.761719 215.664062 C 299.792969 213.167969 305.957031 211.058594 312.253906 209.332031 C 318.550781 207.609375 324.929688 206.28125 331.390625 205.355469 L 331.390625 196.800781 C 331.523438 185.839844 329.910156 175.144531 326.5625 164.710938 C 324.140625 158.007812 322.792969 151.09375 322.523438 143.96875 C 322.523438 142.929688 322.574219 141.890625 322.675781 140.855469 C 322.78125 139.824219 322.933594 138.796875 323.132812 137.777344 C 323.335938 136.757812 323.589844 135.75 323.890625 134.753906 C 324.191406 133.761719 324.542969 132.78125 324.941406 131.824219 C 325.339844 130.863281 325.78125 129.921875 326.273438 129.007812 C 326.761719 128.089844 327.296875 127.199219 327.875 126.335938 C 328.449219 125.472656 329.070312 124.636719 329.730469 123.832031 C 330.386719 123.03125 331.085938 122.261719 331.820312 121.527344 C 332.554688 120.792969 333.324219 120.09375 334.128906 119.433594 C 334.929688 118.773438 335.765625 118.15625 336.628906 117.578125 C 337.492188 117.003906 338.382812 116.46875 339.300781 115.976562 C 340.21875 115.488281 341.15625 115.042969 342.117188 114.648438 C 343.078125 114.25 344.054688 113.898438 345.046875 113.597656 C 346.042969 113.296875 347.050781 113.042969 348.070312 112.839844 C 349.089844 112.636719 350.117188 112.484375 351.152344 112.382812 C 352.183594 112.28125 353.222656 112.230469 354.261719 112.230469 C 355.300781 112.230469 356.335938 112.28125 357.371094 112.382812 C 358.40625 112.484375 359.433594 112.636719 360.453125 112.839844 C 361.472656 113.042969 362.480469 113.296875 363.472656 113.597656 C 364.46875 113.898438 365.445312 114.25 366.40625 114.648438 C 367.367188 115.042969 368.304688 115.488281 369.222656 115.976562 C 370.136719 116.46875 371.027344 117.003906 371.894531 117.578125 C 372.757812 118.15625 373.589844 118.773438 374.394531 119.433594 C 375.199219 120.09375 375.96875 120.792969 376.703125 121.527344 C 377.4375 122.261719 378.132812 123.03125 378.792969 123.832031 C 379.453125 124.636719 380.070312 125.472656 380.648438 126.335938 C 381.226562 127.199219 381.761719 128.089844 382.25 129.007812 C 382.742188 129.921875 383.183594 130.863281 383.582031 131.824219 C 383.980469 132.78125 384.328125 133.761719 384.632812 134.753906 C 384.933594 135.75 385.183594 136.757812 385.386719 137.777344 C 385.589844 138.796875 385.742188 139.824219 385.84375 140.855469 C 385.945312 141.890625 385.996094 142.929688 385.996094 143.96875 C 385.726562 151.101562 384.382812 158.023438 381.960938 164.738281 C 378.609375 175.164062 377 185.851562 377.132812 196.800781 L 377.132812 205.355469 C 383.59375 206.28125 389.972656 207.609375 396.269531 209.332031 C 402.566406 211.058594 408.730469 213.167969 414.761719 215.664062 C 420.796875 218.160156 426.648438 221.019531 432.324219 224.246094 C 437.996094 227.476562 443.449219 231.042969 448.675781 234.953125 L 454.71875 228.914062 C 462.574219 221.269531 468.984375 212.566406 473.957031 202.800781 C 477.019531 196.324219 480.988281 190.464844 485.863281 185.214844 C 487.335938 183.734375 488.941406 182.410156 490.675781 181.25 C 492.414062 180.085938 494.246094 179.105469 496.175781 178.304688 C 498.105469 177.507812 500.097656 176.90625 502.148438 176.5 C 504.199219 176.097656 506.265625 175.898438 508.355469 175.90625 L 508.4375 175.90625 C 509.996094 175.910156 511.546875 176.027344 513.089844 176.257812 C 514.628906 176.492188 516.148438 176.835938 517.636719 177.292969 C 519.128906 177.746094 520.578125 178.308594 521.988281 178.980469 C 523.394531 179.648438 524.746094 180.417969 526.039062 181.289062 C 527.335938 182.15625 528.558594 183.117188 529.710938 184.167969 C 530.863281 185.214844 531.933594 186.34375 532.921875 187.550781 C 533.90625 188.757812 534.800781 190.03125 535.597656 191.371094 C 536.398438 192.710938 537.09375 194.101562 537.6875 195.542969 C 538.28125 196.984375 538.765625 198.460938 539.140625 199.976562 C 539.515625 201.488281 539.78125 203.023438 539.929688 204.574219 C 540.078125 206.125 540.113281 207.679688 540.035156 209.238281 C 539.953125 210.792969 539.761719 212.335938 539.453125 213.867188 C 539.144531 215.394531 538.726562 216.890625 538.199219 218.359375 C 537.671875 219.828125 537.039062 221.246094 536.300781 222.621094 C 535.5625 223.992188 534.730469 225.304688 533.796875 226.554688 C 532.867188 227.808594 531.847656 228.980469 530.742188 230.082031 C 525.507812 234.964844 519.648438 238.929688 513.171875 241.976562 C 503.40625 246.960938 494.699219 253.382812 487.046875 261.242188 L 480.992188 267.292969 C 484.914062 272.519531 488.496094 277.96875 491.734375 283.644531 C 494.972656 289.316406 497.84375 295.171875 500.347656 301.203125 C 502.855469 307.238281 504.972656 313.40625 506.703125 319.703125 C 508.433594 326.003906 509.765625 332.386719 510.699219 338.851562 L 519.265625 338.851562 C 530.222656 338.988281 540.910156 337.375 551.339844 334.023438 C 558.046875 331.601562 564.960938 330.253906 572.085938 329.988281 C 573.125 329.988281 574.160156 330.039062 575.195312 330.140625 C 576.230469 330.242188 577.257812 330.394531 578.277344 330.597656 C 579.296875 330.800781 580.304688 331.050781 581.296875 331.355469 C 582.292969 331.65625 583.269531 332.003906 584.230469 332.402344 C 585.191406 332.800781 586.128906 333.246094 587.046875 333.734375 C 587.960938 334.226562 588.851562 334.757812 589.71875 335.335938 C 590.582031 335.914062 591.414062 336.53125 592.21875 337.191406 C 593.023438 337.851562 593.792969 338.546875 594.527344 339.28125 C 595.261719 340.019531 595.957031 340.789062 596.617188 341.589844 C 597.277344 342.394531 597.894531 343.226562 598.472656 344.09375 C 599.050781 344.957031 599.585938 345.847656 600.074219 346.761719 C 600.5625 347.679688 601.007812 348.617188 601.40625 349.578125 C 601.804688 350.539062 602.152344 351.515625 602.457031 352.511719 C 602.757812 353.507812 603.007812 354.511719 603.210938 355.53125 C 603.414062 356.550781 603.566406 357.578125 603.667969 358.613281 C 603.769531 359.648438 603.820312 360.683594 603.820312 361.722656 C 603.820312 362.761719 603.769531 363.800781 603.667969 364.835938 C 603.566406 365.871094 603.414062 366.894531 603.210938 367.914062 C 603.007812 368.933594 602.757812 369.941406 602.457031 370.9375 C 602.152344 371.929688 601.804688 372.910156 601.40625 373.871094 C 601.007812 374.828125 600.5625 375.769531 600.074219 376.683594 C 599.585938 377.601562 599.050781 378.492188 598.472656 379.355469 C 597.894531 380.21875 597.277344 381.054688 596.617188 381.859375 C 595.957031 382.660156 595.261719 383.429688 594.527344 384.164062 C 593.792969 384.898438 593.023438 385.597656 592.21875 386.257812 C 591.414062 386.917969 590.582031 387.535156 589.71875 388.113281 C 588.851562 388.691406 587.960938 389.222656 587.046875 389.714844 C 586.128906 390.203125 585.191406 390.648438 584.230469 391.042969 C 583.269531 391.441406 582.292969 391.792969 581.296875 392.09375 C 580.304688 392.394531 579.296875 392.648438 578.277344 392.851562 C 577.257812 393.054688 576.230469 393.207031 575.195312 393.308594 C 574.160156 393.410156 573.125 393.460938 572.085938 393.460938 Z M 572.085938 393.515625 " fill-opacity="1" fill-rule="nonzero"/><path fill="#2bb787" d="M 572.085938 343.441406 C 566.445312 343.722656 560.976562 344.832031 555.671875 346.765625 C 543.839844 350.59375 531.703125 352.441406 519.265625 352.308594 L 393.304688 352.308594 C 392.636719 352.304688 391.988281 352.210938 391.351562 352.015625 C 390.710938 351.824219 390.117188 351.542969 389.566406 351.171875 C 389.011719 350.800781 388.523438 350.359375 388.101562 349.84375 C 387.679688 349.328125 387.34375 348.765625 387.089844 348.148438 C 386.832031 347.535156 386.675781 346.894531 386.609375 346.234375 C 386.546875 345.570312 386.578125 344.914062 386.707031 344.261719 C 386.839844 343.609375 387.0625 342.988281 387.375 342.402344 C 387.691406 341.816406 388.082031 341.289062 388.554688 340.816406 L 444.425781 284.933594 L 477.589844 251.769531 C 486.269531 242.835938 496.15625 235.539062 507.253906 229.882812 C 512.382812 227.464844 517.050781 224.355469 521.257812 220.558594 C 522.988281 218.835938 524.320312 216.847656 525.253906 214.59375 C 526.1875 212.335938 526.648438 209.988281 526.640625 207.546875 C 526.636719 206.953125 526.605469 206.359375 526.542969 205.765625 C 526.480469 205.175781 526.390625 204.585938 526.273438 204.003906 C 526.152344 203.421875 526.007812 202.84375 525.832031 202.273438 C 525.65625 201.707031 525.457031 201.144531 525.226562 200.597656 C 524.996094 200.046875 524.742188 199.511719 524.460938 198.984375 C 524.175781 198.460938 523.871094 197.953125 523.539062 197.457031 C 523.207031 196.960938 522.855469 196.484375 522.476562 196.023438 C 522.097656 195.566406 521.699219 195.125 521.277344 194.703125 C 520.855469 194.28125 520.417969 193.882812 519.957031 193.503906 C 519.496094 193.125 519.019531 192.769531 518.527344 192.441406 C 518.03125 192.109375 517.523438 191.800781 516.996094 191.519531 C 516.472656 191.238281 515.9375 190.980469 515.386719 190.75 C 514.839844 190.523438 514.277344 190.320312 513.710938 190.144531 C 513.140625 189.96875 512.566406 189.820312 511.980469 189.703125 C 511.398438 189.582031 510.8125 189.492188 510.21875 189.429688 C 509.625 189.367188 509.03125 189.335938 508.4375 189.332031 C 506 189.324219 503.65625 189.789062 501.40625 190.71875 C 499.15625 191.652344 497.171875 192.984375 495.453125 194.714844 C 491.652344 198.925781 488.539062 203.597656 486.117188 208.730469 C 480.484375 219.828125 473.214844 229.71875 464.308594 238.410156 L 454.167969 248.554688 L 375.277344 327.445312 C 374.398438 328.273438 373.371094 328.820312 372.195312 329.085938 C 371.914062 329.085938 371.671875 329.207031 371.386719 329.246094 C 371.105469 329.289062 370.808594 329.410156 370.511719 329.410156 C 369.621094 329.414062 368.765625 329.242188 367.945312 328.898438 C 367.324219 328.652344 366.75 328.320312 366.230469 327.902344 C 365.707031 327.484375 365.257812 327 364.882812 326.449219 C 364.503906 325.898438 364.214844 325.304688 364.015625 324.667969 C 363.816406 324.03125 363.710938 323.378906 363.707031 322.710938 L 363.707031 196.757812 C 363.582031 184.351562 365.425781 172.242188 369.234375 160.433594 C 371.175781 155.117188 372.289062 149.632812 372.570312 143.980469 C 372.570312 143.382812 372.542969 142.785156 372.484375 142.1875 C 372.425781 141.59375 372.335938 141 372.21875 140.414062 C 372.101562 139.828125 371.957031 139.246094 371.785156 138.671875 C 371.609375 138.101562 371.410156 137.539062 371.179688 136.984375 C 370.949219 136.429688 370.695312 135.890625 370.414062 135.363281 C 370.128906 134.835938 369.824219 134.320312 369.488281 133.824219 C 369.15625 133.324219 368.800781 132.84375 368.421875 132.382812 C 368.042969 131.917969 367.640625 131.476562 367.214844 131.054688 C 366.792969 130.628906 366.351562 130.226562 365.886719 129.847656 C 365.425781 129.46875 364.945312 129.113281 364.445312 128.777344 C 363.949219 128.445312 363.433594 128.140625 362.90625 127.855469 C 362.378906 127.574219 361.839844 127.320312 361.285156 127.089844 C 360.730469 126.859375 360.167969 126.660156 359.59375 126.484375 C 359.023438 126.3125 358.441406 126.164062 357.855469 126.050781 C 357.269531 125.933594 356.675781 125.84375 356.082031 125.785156 C 355.484375 125.726562 354.886719 125.699219 354.289062 125.699219 C 353.691406 125.699219 353.09375 125.726562 352.496094 125.785156 C 351.898438 125.84375 351.308594 125.933594 350.722656 126.050781 C 350.132812 126.164062 349.554688 126.3125 348.980469 126.484375 C 348.40625 126.660156 347.84375 126.859375 347.292969 127.089844 C 346.738281 127.320312 346.199219 127.574219 345.667969 127.855469 C 345.140625 128.140625 344.628906 128.445312 344.128906 128.777344 C 343.632812 129.113281 343.152344 129.46875 342.691406 129.847656 C 342.226562 130.226562 341.785156 130.628906 341.359375 131.054688 C 340.9375 131.476562 340.535156 131.917969 340.15625 132.382812 C 339.773438 132.84375 339.417969 133.324219 339.085938 133.824219 C 338.753906 134.320312 338.445312 134.835938 338.164062 135.363281 C 337.882812 135.890625 337.625 136.429688 337.398438 136.984375 C 337.167969 137.539062 336.964844 138.101562 336.792969 138.671875 C 336.617188 139.246094 336.472656 139.828125 336.355469 140.414062 C 336.238281 141 336.152344 141.59375 336.09375 142.1875 C 336.035156 142.785156 336.003906 143.382812 336.003906 143.980469 C 336.285156 149.625 337.398438 155.101562 339.339844 160.40625 C 343.152344 172.242188 344.996094 184.378906 344.871094 196.8125 L 344.871094 322.710938 C 344.871094 323.375 344.773438 324.027344 344.582031 324.664062 C 344.386719 325.300781 344.105469 325.894531 343.734375 326.449219 C 343.367188 327 342.921875 327.488281 342.410156 327.910156 C 341.894531 328.332031 341.328125 328.671875 340.714844 328.925781 C 339.890625 329.269531 339.035156 329.441406 338.144531 329.4375 C 337.855469 329.402344 337.566406 329.347656 337.28125 329.273438 C 337 329.234375 336.722656 329.175781 336.449219 329.101562 C 335.277344 328.839844 334.253906 328.296875 333.382812 327.472656 L 244.347656 238.4375 C 235.410156 229.753906 228.109375 219.859375 222.445312 208.757812 C 220.027344 203.628906 216.917969 198.953125 213.121094 194.742188 C 211.402344 193.011719 209.417969 191.683594 207.167969 190.75 C 204.917969 189.816406 202.574219 189.355469 200.140625 189.359375 C 199.542969 189.363281 198.949219 189.398438 198.359375 189.460938 C 197.765625 189.523438 197.179688 189.613281 196.597656 189.734375 C 196.015625 189.851562 195.4375 190 194.871094 190.175781 C 194.300781 190.351562 193.742188 190.554688 193.191406 190.785156 C 192.644531 191.015625 192.109375 191.269531 191.582031 191.554688 C 191.058594 191.835938 190.550781 192.144531 190.058594 192.476562 C 189.5625 192.804688 189.085938 193.160156 188.625 193.539062 C 188.167969 193.917969 187.726562 194.316406 187.304688 194.738281 C 186.886719 195.160156 186.484375 195.597656 186.109375 196.058594 C 185.730469 196.519531 185.375 196.996094 185.042969 197.492188 C 184.714844 197.984375 184.40625 198.492188 184.125 199.019531 C 183.84375 199.542969 183.585938 200.078125 183.359375 200.628906 C 183.128906 201.175781 182.925781 201.734375 182.75 202.304688 C 182.574219 202.875 182.425781 203.449219 182.308594 204.03125 C 182.1875 204.617188 182.097656 205.203125 182.035156 205.792969 C 181.972656 206.386719 181.941406 206.980469 181.9375 207.574219 C 181.925781 210.015625 182.386719 212.359375 183.320312 214.613281 C 184.253906 216.867188 185.585938 218.851562 187.316406 220.570312 C 191.519531 224.402344 196.1875 227.542969 201.324219 229.988281 C 212.425781 235.617188 222.324219 242.886719 231.015625 251.796875 L 241.199219 261.980469 L 264.152344 284.917969 L 320.035156 340.804688 C 320.507812 341.273438 320.898438 341.800781 321.214844 342.390625 C 321.527344 342.976562 321.75 343.59375 321.882812 344.246094 C 322.011719 344.898438 322.046875 345.558594 321.980469 346.21875 C 321.914062 346.882812 321.757812 347.519531 321.5 348.136719 C 321.246094 348.75 320.910156 349.316406 320.488281 349.832031 C 320.066406 350.34375 319.578125 350.789062 319.023438 351.15625 C 318.472656 351.527344 317.878906 351.808594 317.242188 352.003906 C 316.601562 352.195312 315.953125 352.292969 315.285156 352.292969 L 189.308594 352.292969 C 176.902344 352.425781 164.792969 350.582031 152.984375 346.765625 C 147.667969 344.824219 142.183594 343.710938 136.53125 343.425781 C 135.933594 343.425781 135.335938 343.457031 134.738281 343.515625 C 134.144531 343.574219 133.550781 343.660156 132.964844 343.777344 C 132.378906 343.894531 131.796875 344.039062 131.222656 344.214844 C 130.652344 344.386719 130.089844 344.589844 129.535156 344.820312 C 128.980469 345.046875 128.441406 345.304688 127.914062 345.585938 C 127.386719 345.867188 126.871094 346.175781 126.375 346.507812 C 125.875 346.839844 125.394531 347.199219 124.933594 347.578125 C 124.46875 347.957031 124.027344 348.359375 123.601562 348.78125 C 123.179688 349.207031 122.777344 349.648438 122.398438 350.113281 C 122.019531 350.574219 121.664062 351.054688 121.328125 351.554688 C 120.996094 352.050781 120.691406 352.5625 120.40625 353.09375 C 120.125 353.621094 119.871094 354.160156 119.640625 354.714844 C 119.410156 355.265625 119.210938 355.832031 119.035156 356.402344 C 118.863281 356.976562 118.714844 357.554688 118.601562 358.144531 C 118.484375 358.730469 118.394531 359.324219 118.335938 359.917969 C 118.277344 360.515625 118.25 361.113281 118.25 361.710938 C 118.25 362.308594 118.277344 362.90625 118.335938 363.503906 C 118.394531 364.097656 118.484375 364.691406 118.601562 365.277344 C 118.714844 365.863281 118.863281 366.445312 119.035156 367.019531 C 119.210938 367.589844 119.410156 368.152344 119.640625 368.707031 C 119.871094 369.261719 120.125 369.800781 120.40625 370.328125 C 120.691406 370.855469 120.996094 371.371094 121.328125 371.867188 C 121.664062 372.367188 122.019531 372.847656 122.398438 373.308594 C 122.777344 373.773438 123.179688 374.214844 123.601562 374.640625 C 124.027344 375.0625 124.46875 375.464844 124.933594 375.84375 C 125.394531 376.222656 125.875 376.578125 126.375 376.914062 C 126.871094 377.246094 127.386719 377.550781 127.914062 377.835938 C 128.441406 378.117188 128.980469 378.371094 129.535156 378.601562 C 130.089844 378.832031 130.652344 379.03125 131.222656 379.207031 C 131.796875 379.378906 132.378906 379.527344 132.964844 379.640625 C 133.550781 379.757812 134.144531 379.847656 134.738281 379.90625 C 135.335938 379.964844 135.933594 379.992188 136.53125 379.992188 C 142.171875 379.71875 147.640625 378.609375 152.945312 376.671875 C 164.777344 372.847656 176.914062 371 189.351562 371.128906 L 315.273438 371.128906 C 315.9375 371.128906 316.589844 371.226562 317.226562 371.417969 C 317.863281 371.613281 318.457031 371.894531 319.011719 372.261719 C 319.566406 372.632812 320.050781 373.074219 320.472656 373.589844 C 320.894531 374.105469 321.234375 374.671875 321.488281 375.285156 C 321.742188 375.898438 321.902344 376.539062 321.96875 377.203125 C 322.03125 377.863281 322 378.519531 321.867188 379.171875 C 321.738281 379.828125 321.515625 380.445312 321.199219 381.03125 C 320.886719 381.617188 320.492188 382.148438 320.023438 382.617188 L 264.152344 438.53125 L 241.171875 461.519531 L 230.988281 471.707031 C 222.300781 480.625 212.414062 487.910156 201.324219 493.566406 C 196.199219 495.988281 191.53125 499.097656 187.316406 502.890625 C 185.585938 504.613281 184.253906 506.605469 183.324219 508.863281 C 182.390625 511.121094 181.925781 513.46875 181.9375 515.914062 C 181.941406 516.507812 181.972656 517.101562 182.035156 517.695312 C 182.097656 518.285156 182.1875 518.875 182.304688 519.457031 C 182.425781 520.039062 182.574219 520.617188 182.746094 521.183594 C 182.921875 521.753906 183.125 522.3125 183.355469 522.859375 C 183.582031 523.410156 183.839844 523.945312 184.121094 524.46875 C 184.402344 524.996094 184.710938 525.503906 185.042969 525.996094 C 185.371094 526.492188 185.726562 526.96875 186.105469 527.429688 C 186.484375 527.886719 186.882812 528.328125 187.304688 528.75 C 187.722656 529.171875 188.164062 529.570312 188.625 529.949219 C 189.082031 530.324219 189.5625 530.679688 190.054688 531.011719 C 190.550781 531.34375 191.058594 531.648438 191.582031 531.929688 C 192.105469 532.214844 192.644531 532.46875 193.191406 532.699219 C 193.742188 532.929688 194.300781 533.128906 194.867188 533.304688 C 195.4375 533.480469 196.011719 533.628906 196.597656 533.746094 C 197.179688 533.867188 197.765625 533.957031 198.359375 534.015625 C 198.949219 534.078125 199.542969 534.113281 200.140625 534.117188 C 202.574219 534.121094 204.917969 533.660156 207.167969 532.726562 C 209.421875 531.792969 211.402344 530.460938 213.121094 528.734375 C 216.921875 524.523438 220.035156 519.855469 222.457031 514.730469 C 228.089844 503.628906 235.359375 493.734375 244.265625 485.039062 L 254.410156 474.894531 L 277.484375 451.863281 L 333.382812 395.976562 C 334.253906 395.148438 335.277344 394.601562 336.449219 394.335938 C 336.722656 394.261719 337 394.207031 337.28125 394.171875 C 337.566406 394.101562 337.855469 394.046875 338.144531 394.011719 C 339.035156 394.007812 339.890625 394.179688 340.714844 394.523438 C 341.328125 394.777344 341.894531 395.117188 342.410156 395.539062 C 342.921875 395.960938 343.367188 396.445312 343.734375 397 C 344.105469 397.554688 344.386719 398.148438 344.582031 398.785156 C 344.773438 399.421875 344.871094 400.074219 344.871094 400.738281 L 344.871094 526.757812 C 344.996094 539.164062 343.152344 551.273438 339.339844 563.082031 C 337.398438 568.402344 336.285156 573.890625 336.003906 579.546875 C 336.003906 580.148438 336.035156 580.746094 336.09375 581.339844 C 336.152344 581.9375 336.238281 582.527344 336.355469 583.113281 C 336.472656 583.703125 336.617188 584.28125 336.792969 584.855469 C 336.964844 585.429688 337.167969 585.992188 337.398438 586.542969 C 337.625 587.097656 337.882812 587.636719 338.164062 588.167969 C 338.445312 588.695312 338.753906 589.207031 339.085938 589.707031 C 339.417969 590.203125 339.773438 590.683594 340.15625 591.148438 C 340.535156 591.609375 340.9375 592.054688 341.359375 592.476562 C 341.785156 592.898438 342.226562 593.300781 342.691406 593.679688 C 343.152344 594.0625 343.632812 594.417969 344.128906 594.75 C 344.628906 595.082031 345.140625 595.390625 345.667969 595.671875 C 346.199219 595.953125 346.738281 596.210938 347.292969 596.4375 C 347.84375 596.667969 348.40625 596.871094 348.980469 597.042969 C 349.554688 597.21875 350.132812 597.363281 350.722656 597.480469 C 351.308594 597.597656 351.898438 597.683594 352.496094 597.742188 C 353.09375 597.800781 353.691406 597.832031 354.289062 597.832031 C 354.886719 597.832031 355.484375 597.800781 356.082031 597.742188 C 356.675781 597.683594 357.269531 597.597656 357.855469 597.480469 C 358.441406 597.363281 359.023438 597.21875 359.59375 597.042969 C 360.167969 596.871094 360.730469 596.667969 361.285156 596.441406 C 361.839844 596.210938 362.378906 595.953125 362.90625 595.671875 C 363.433594 595.390625 363.949219 595.082031 364.445312 594.75 C 364.945312 594.417969 365.425781 594.0625 365.886719 593.679688 C 366.351562 593.300781 366.792969 592.898438 367.214844 592.476562 C 367.640625 592.054688 368.042969 591.609375 368.421875 591.148438 C 368.800781 590.683594 369.15625 590.203125 369.488281 589.707031 C 369.824219 589.207031 370.128906 588.695312 370.414062 588.167969 C 370.695312 587.636719 370.949219 587.097656 371.179688 586.542969 C 371.410156 585.992188 371.609375 585.429688 371.785156 584.855469 C 371.957031 584.28125 372.101562 583.703125 372.21875 583.113281 C 372.335938 582.527344 372.425781 581.9375 372.484375 581.339844 C 372.542969 580.746094 372.570312 580.148438 372.570312 579.546875 C 372.292969 573.898438 371.179688 568.417969 369.234375 563.109375 C 365.429688 551.296875 363.585938 539.191406 363.707031 526.785156 L 363.707031 400.738281 C 363.707031 400.074219 363.800781 399.421875 363.996094 398.785156 C 364.1875 398.148438 364.472656 397.554688 364.839844 397 C 365.210938 396.449219 365.652344 395.960938 366.167969 395.539062 C 366.683594 395.117188 367.246094 394.777344 367.863281 394.523438 C 368.476562 394.269531 369.117188 394.109375 369.777344 394.046875 C 370.441406 393.980469 371.097656 394.015625 371.75 394.144531 C 372.402344 394.273438 373.023438 394.496094 373.609375 394.8125 C 374.195312 395.125 374.726562 395.519531 375.195312 395.988281 L 431.09375 451.863281 L 454.085938 474.839844 L 464.230469 484.984375 C 473.167969 493.683594 480.46875 503.589844 486.132812 514.703125 C 488.554688 519.828125 491.660156 524.496094 495.453125 528.707031 C 497.175781 530.433594 499.160156 531.761719 501.410156 532.695312 C 503.660156 533.628906 506 534.09375 508.4375 534.089844 C 509.03125 534.085938 509.625 534.050781 510.21875 533.988281 C 510.808594 533.925781 511.394531 533.835938 511.976562 533.714844 C 512.5625 533.59375 513.136719 533.449219 513.703125 533.273438 C 514.273438 533.097656 514.832031 532.894531 515.378906 532.664062 C 515.929688 532.433594 516.464844 532.179688 516.988281 531.898438 C 517.511719 531.613281 518.023438 531.308594 518.515625 530.976562 C 519.007812 530.644531 519.484375 530.289062 519.945312 529.914062 C 520.40625 529.535156 520.84375 529.136719 521.265625 528.714844 C 521.6875 528.292969 522.085938 527.855469 522.464844 527.394531 C 522.839844 526.933594 523.195312 526.457031 523.527344 525.964844 C 523.859375 525.472656 524.164062 524.960938 524.449219 524.4375 C 524.730469 523.914062 524.984375 523.378906 525.214844 522.828125 C 525.445312 522.28125 525.648438 521.722656 525.824219 521.152344 C 526 520.585938 526.144531 520.011719 526.265625 519.425781 C 526.386719 518.84375 526.476562 518.257812 526.539062 517.667969 C 526.601562 517.074219 526.636719 516.480469 526.640625 515.886719 C 526.648438 513.445312 526.1875 511.097656 525.253906 508.839844 C 524.324219 506.585938 522.988281 504.597656 521.257812 502.878906 C 517.050781 499.046875 512.375 495.910156 507.238281 493.460938 C 496.148438 487.828125 486.253906 480.5625 477.5625 471.664062 L 467.378906 461.480469 L 444.425781 438.53125 L 388.539062 382.628906 C 388.070312 382.160156 387.675781 381.632812 387.363281 381.042969 C 387.046875 380.457031 386.824219 379.835938 386.695312 379.183594 C 386.5625 378.53125 386.53125 377.871094 386.597656 377.210938 C 386.660156 376.546875 386.820312 375.90625 387.078125 375.292969 C 387.332031 374.675781 387.671875 374.113281 388.09375 373.597656 C 388.515625 373.082031 389.003906 372.640625 389.558594 372.269531 C 390.113281 371.902344 390.710938 371.621094 391.347656 371.429688 C 391.984375 371.234375 392.636719 371.140625 393.304688 371.140625 L 519.320312 371.140625 C 531.730469 371.015625 543.835938 372.859375 555.644531 376.671875 C 560.960938 378.617188 566.445312 379.730469 572.097656 380.007812 C 572.699219 380.007812 573.296875 379.976562 573.890625 379.917969 C 574.488281 379.859375 575.078125 379.773438 575.664062 379.65625 C 576.253906 379.539062 576.832031 379.394531 577.40625 379.21875 C 577.980469 379.046875 578.542969 378.84375 579.09375 378.617188 C 579.648438 378.386719 580.1875 378.128906 580.71875 377.847656 C 581.246094 377.566406 581.757812 377.257812 582.257812 376.925781 C 582.753906 376.59375 583.234375 376.238281 583.699219 375.855469 C 584.160156 375.476562 584.601562 375.074219 585.027344 374.652344 C 585.449219 374.230469 585.851562 373.785156 586.230469 373.324219 C 586.613281 372.859375 586.96875 372.378906 587.300781 371.882812 C 587.632812 371.382812 587.941406 370.871094 588.222656 370.34375 C 588.503906 369.816406 588.761719 369.273438 588.988281 368.722656 C 589.21875 368.167969 589.421875 367.605469 589.59375 367.03125 C 589.769531 366.457031 589.914062 365.878906 590.03125 365.289062 C 590.148438 364.703125 590.234375 364.113281 590.292969 363.515625 C 590.351562 362.921875 590.382812 362.324219 590.382812 361.722656 C 590.382812 361.125 590.351562 360.527344 590.292969 359.933594 C 590.234375 359.335938 590.148438 358.746094 590.03125 358.15625 C 589.914062 357.570312 589.769531 356.988281 589.59375 356.417969 C 589.421875 355.84375 589.21875 355.28125 588.988281 354.726562 C 588.761719 354.175781 588.503906 353.632812 588.222656 353.105469 C 587.941406 352.578125 587.632812 352.0625 587.300781 351.566406 C 586.96875 351.070312 586.613281 350.589844 586.230469 350.125 C 585.851562 349.664062 585.449219 349.21875 585.027344 348.796875 C 584.601562 348.371094 584.160156 347.972656 583.699219 347.589844 C 583.234375 347.210938 582.753906 346.855469 582.257812 346.523438 C 581.757812 346.191406 581.246094 345.882812 580.71875 345.601562 C 580.1875 345.316406 579.648438 345.0625 579.09375 344.832031 C 578.542969 344.605469 577.980469 344.402344 577.40625 344.226562 C 576.832031 344.054688 576.253906 343.910156 575.664062 343.792969 C 575.078125 343.675781 574.488281 343.585938 573.890625 343.527344 C 573.296875 343.46875 572.699219 343.441406 572.097656 343.441406 Z M 572.085938 343.441406 " fill-opacity="1" fill-rule="nonzero"/><path fill="#2bb787" d="M 299.128906 384.59375 L 244.226562 384.59375 C 245.664062 391.511719 247.738281 398.234375 250.453125 404.757812 C 253.167969 411.277344 256.472656 417.488281 260.371094 423.382812 Z M 299.128906 384.59375 " fill-opacity="1" fill-rule="nonzero"/><path fill="#2bb787" d="M 439.152344 244.53125 C 429.984375 237.847656 420.164062 232.335938 409.683594 227.988281 C 399.207031 223.644531 388.363281 220.585938 377.160156 218.820312 L 377.160156 238.207031 C 385.828125 239.800781 394.230469 242.285156 402.371094 245.65625 C 410.515625 249.027344 418.214844 253.214844 425.46875 258.214844 Z M 439.152344 244.53125 " fill-opacity="1" fill-rule="nonzero"/><path fill="#2bb787" d="M 377.160156 485.238281 L 377.160156 504.640625 C 388.363281 502.871094 399.207031 499.8125 409.683594 495.464844 C 420.164062 491.117188 429.984375 485.601562 439.152344 478.917969 L 425.457031 465.234375 C 418.203125 470.234375 410.507812 474.421875 402.367188 477.792969 C 394.226562 481.164062 385.824219 483.648438 377.160156 485.238281 Z M 377.160156 485.238281 " fill-opacity="1" fill-rule="nonzero"/><path fill="#2bb787" d="M 377.160156 471.785156 C 384.078125 470.347656 390.796875 468.273438 397.320312 465.558594 C 403.84375 462.84375 410.050781 459.539062 415.945312 455.640625 L 377.160156 416.882812 Z M 377.160156 471.785156 " fill-opacity="1" fill-rule="nonzero"/><path fill="#2bb787" d="M 331.417969 471.785156 L 331.417969 416.882812 L 292.632812 455.667969 C 298.527344 459.558594 304.734375 462.859375 311.257812 465.570312 C 317.78125 468.28125 324.5 470.351562 331.417969 471.785156 Z M 331.417969 471.785156 " fill-opacity="1" fill-rule="nonzero"/><path fill="#2bb787" d="M 457.785156 432.90625 L 471.480469 446.589844 C 478.160156 437.421875 483.675781 427.597656 488.023438 417.117188 C 492.371094 406.640625 495.429688 395.800781 497.203125 384.59375 L 477.804688 384.59375 C 476.210938 393.261719 473.726562 401.667969 470.351562 409.8125 C 466.980469 417.953125 462.789062 425.652344 457.785156 432.90625 Z M 457.785156 432.90625 " fill-opacity="1" fill-rule="nonzero"/><path fill="#2bb787" d="M 269.425781 478.917969 C 278.589844 485.601562 288.414062 491.117188 298.890625 495.464844 C 309.371094 499.8125 320.210938 502.871094 331.417969 504.640625 L 331.417969 485.238281 C 322.753906 483.648438 314.347656 481.164062 306.210938 477.792969 C 298.070312 474.421875 290.371094 470.234375 283.121094 465.234375 Z M 269.425781 478.917969 " fill-opacity="1" fill-rule="nonzero"/><path fill="#2bb787" d="M 409.445312 338.851562 L 464.296875 338.851562 C 462.855469 331.9375 460.78125 325.21875 458.066406 318.695312 C 455.351562 312.171875 452.046875 305.960938 448.152344 300.066406 Z M 409.445312 338.851562 " fill-opacity="1" fill-rule="nonzero"/><path fill="#2bb787" d="M 448.273438 423.382812 C 452.167969 417.488281 455.476562 411.277344 458.191406 404.757812 C 460.90625 398.234375 462.980469 391.511719 464.417969 384.59375 L 409.445312 384.59375 Z M 448.273438 423.382812 " fill-opacity="1" fill-rule="nonzero"/><path fill="#2bb787" d="M 457.785156 290.554688 C 462.789062 297.808594 466.980469 305.503906 470.351562 313.644531 C 473.726562 321.785156 476.210938 330.1875 477.804688 338.851562 L 497.203125 338.851562 C 495.429688 327.648438 492.371094 316.808594 488.023438 306.328125 C 483.675781 295.851562 478.160156 286.027344 471.480469 276.859375 Z M 457.785156 290.554688 " fill-opacity="1" fill-rule="nonzero"/><g mask="url(#dbe4ff3932)"><g transform="matrix(1, 0, 0, 1, 430, 346)"><g clip-path="url(#034acda230)"><path fill="#cbff8b" d="M 209.351562 401.300781 L 129.585938 543.628906 C 123.675781 553.996094 108.382812 553.242188 103.519531 542.179688 L 78.726562 485.992188 L 17.902344 494.390625 C 5.96875 496.011719 -2.601562 483.328125 3.246094 472.785156 L 85.097656 326.519531 L 86.546875 335.613281 C 90.136719 357.394531 108.5 373.09375 130.394531 373.09375 C 132.714844 373.09375 135.03125 372.917969 137.347656 372.570312 L 151.769531 370.425781 L 159.824219 382.535156 C 168.046875 395.21875 181.949219 402.867188 197.128906 402.867188 C 201.296875 402.925781 205.410156 402.402344 209.351562 401.300781 Z M 209.351562 401.300781 " fill-opacity="1" fill-rule="nonzero"/><path fill="#cbff8b" d="M 449.398438 494.449219 L 388.574219 486.046875 L 363.78125 542.238281 C 358.972656 553.300781 343.625 553.996094 337.714844 543.6875 L 258.007812 401.300781 C 261.949219 402.34375 266.058594 402.925781 270.113281 402.925781 C 285.292969 402.925781 299.195312 395.277344 307.417969 382.59375 L 315.296875 370.484375 L 329.722656 372.628906 C 332.210938 372.976562 334.527344 373.148438 336.847656 373.148438 C 358.800781 373.148438 377.164062 357.453125 380.695312 335.671875 L 382.144531 326.578125 L 463.996094 472.839844 C 469.960938 483.382812 461.386719 496.011719 449.398438 494.449219 Z M 449.398438 494.449219 " fill-opacity="1" fill-rule="nonzero"/><g clip-path="url(#099bc208dd)"><path fill="#cbff8b" d="M 416.496094 198.445312 L 397.902344 175.503906 C 395.234375 172.203125 394.773438 167.683594 396.683594 163.863281 L 410.125 137.503906 C 412.789062 132.234375 410.703125 125.746094 405.429688 123.082031 L 379.074219 109.644531 C 375.308594 107.730469 372.992188 103.734375 373.222656 99.503906 L 374.789062 70.019531 C 375.078125 64.113281 370.558594 59.074219 364.652344 58.726562 L 335.167969 57.160156 C 330.9375 56.929688 327.230469 54.265625 325.722656 50.269531 L 315.125 22.695312 C 312.980469 17.132812 306.78125 14.410156 301.28125 16.496094 L 273.707031 27.097656 C 269.765625 28.605469 265.25 27.675781 262.296875 24.664062 L 241.382812 3.753906 C 237.210938 -0.417969 230.378906 -0.417969 226.207031 3.753906 L 205.296875 24.664062 C 202.285156 27.675781 197.824219 28.605469 193.882812 27.097656 L 166.3125 16.496094 C 160.75 14.355469 154.550781 17.132812 152.464844 22.695312 L 141.867188 50.269531 C 140.359375 54.207031 136.652344 56.929688 132.425781 57.160156 L 102.9375 58.726562 C 97.03125 59.015625 92.453125 64.113281 92.800781 70.019531 L 94.367188 99.503906 C 94.597656 103.734375 92.28125 107.730469 88.515625 109.644531 L 62.160156 123.082031 C 56.886719 125.746094 54.800781 132.234375 57.46875 137.503906 L 70.90625 163.863281 C 72.816406 167.628906 72.355469 172.203125 69.691406 175.503906 L 51.09375 198.445312 C 47.386719 203.078125 48.082031 209.796875 52.660156 213.5625 L 75.597656 232.15625 C 78.898438 234.820312 80.289062 239.167969 79.191406 243.277344 L 71.371094 271.777344 C 69.863281 277.511719 73.222656 283.363281 78.957031 284.929688 L 107.515625 292.574219 C 111.628906 293.675781 114.699219 297.09375 115.335938 301.261719 L 119.96875 330.457031 C 120.898438 336.308594 126.398438 340.304688 132.25 339.378906 L 161.445312 334.746094 C 165.617188 334.109375 169.785156 335.960938 172.101562 339.496094 L 188.207031 364.289062 C 191.449219 369.269531 198.054688 370.660156 203.035156 367.414062 L 227.828125 351.3125 C 231.363281 348.996094 235.9375 348.996094 239.53125 351.3125 L 264.324219 367.414062 C 269.304688 370.660156 275.964844 369.210938 279.152344 364.289062 L 295.253906 339.496094 C 297.570312 335.960938 301.742188 334.050781 305.914062 334.746094 L 335.109375 339.378906 C 340.960938 340.304688 346.460938 336.308594 347.390625 330.457031 L 352.023438 301.261719 C 352.660156 297.09375 355.730469 293.675781 359.84375 292.574219 L 388.402344 284.929688 C 394.136719 283.421875 397.496094 277.511719 395.988281 271.777344 L 388.34375 243.222656 C 387.242188 239.109375 388.632812 234.765625 391.933594 232.097656 L 414.875 213.503906 C 419.507812 209.796875 420.203125 203.019531 416.496094 198.445312 Z M 317.613281 155.40625 L 217.75 255.269531 C 209.640625 263.378906 196.492188 263.378906 188.378906 255.269531 L 144.644531 211.535156 C 136.535156 203.425781 136.535156 190.277344 144.644531 182.167969 C 152.757812 174.058594 165.90625 174.058594 174.015625 182.167969 L 203.09375 211.246094 L 288.304688 126.035156 C 296.414062 117.925781 309.5625 117.925781 317.671875 126.035156 C 325.722656 134.144531 325.722656 147.292969 317.613281 155.40625 Z M 317.613281 155.40625 " fill-opacity="1" fill-rule="nonzero"/></g></g></g></g></svg>