<?xml version="1.0" encoding="UTF-8"?>
<svg id="Layer_1" data-name="Layer 1" xmlns="http://www.w3.org/2000/svg" xmlns:xlink="http://www.w3.org/1999/xlink" viewBox="0 0 3214.96 1857.8">
  <defs>
    <style>
      .cls-1, .cls-2 {
        fill: none;
      }

      .cls-3 {
        fill: #22a472;
      }

      .cls-4 {
        fill: #3d516e;
      }

      .cls-5 {
        fill: url(#linear-gradient);
      }

      .cls-2 {
        stroke: #3d516e;
        stroke-linecap: round;
        stroke-linejoin: round;
        stroke-width: 216.87px;
      }

      .cls-6 {
        fill: #bcff7a;
      }

      .cls-7 {
        fill: #fff;
      }

      .cls-8 {
        fill: #cbff8b;
      }

      .cls-9 {
        fill: #00a66e;
      }

      .cls-10 {
        fill: #303b54;
      }
    </style>
    <linearGradient id="linear-gradient" x1="523.7" y1="1479.83" x2="1359.23" y2="1255.95" gradientUnits="userSpaceOnUse">
      <stop offset="0" stop-color="#cbff8b"/>
      <stop offset="0" stop-color="#cbff8b"/>
      <stop offset=".32" stop-color="#c6fc8a"/>
      <stop offset=".81" stop-color="#22a472"/>
      <stop offset="1" stop-color="#22a472"/>
    </linearGradient>
  </defs>
  <path id="SEC_Loop" data-name="SEC Loop" class="cls-2" d="M2867.18,346.08c-320.4-320.43-839.88-320.43-1160.31,0-26.93,26.93-60.73,60.73-98.41,98.41-38.14-38.14-72.04-72.04-98.41-98.41-320.43-320.43-839.9-320.43-1160.31,0-320.43,320.4-320.43,839.88,0,1160.28,320.4,320.43,839.88,320.43,1160.31,0,26.93-26.93,60.73-60.73,98.41-98.41,38.14,38.14,72.04,72.04,98.41,98.41,320.43,320.43,839.9,320.43,1160.31,0,320.43-320.4,320.43-839.88,0-1160.28Z"/>
  <g id="Loop">
    <g id="Right_loop" data-name="Right loop">
      <path id="Release" class="cls-3" d="M2056.77,750.19l-456.14,456.34-203.6,203.59c-16.5,16.5-25.25,25.07-46.25,44.07l11-253-259.68-43.11c7.8-6.34,15.38-13.18,22.54-20.34l660.14-657.55,256,22,16,248Z"/>
      <path id="Monitor" class="cls-3" d="M2288.23,1601.3c-87.34,0-172.54-16.59-253.22-49.31-83.63-33.91-158.59-83.66-222.79-147.86l-5.46-6.94,21.43-257.43,248.57-15.57,7.85,7.55c54.39,54.39,126.7,84.35,203.61,84.35s143.92-24.01,197.54-74.89l5.44,247.44,260.2,27.97c-125.51,119.11-290,184.7-463.19,184.7Z"/>
      <path id="Operate" class="cls-3" d="M2502.77,1377.19l-5-245h0c54.39-54.39,78.41-127.15,78.41-204.05s-41.05-157.57-95.41-211.95l251,9,46-263c64.17,64.19,100.45,129.19,134.34,212.8,32.7,80.66,49.28,165.83,49.28,253.15s-16.59,172.54-49.31,253.21c-33.91,83.63-91.11,162.64-155.32,226.84"/>
      <path id="Deploy" class="cls-3" d="M2067.77,743.19l-12-254-261-19,17.44-18.02c64.22-64.22,139.18-113.97,222.8-147.88,80.68-32.72,165.87-49.31,253.22-49.31,173.37,0,353.98,79.89,479.54,199.22l-46,257-247-10c-53.64-50.98-112.38-61-186.54-61s-149.22,29.95-203.61,84.35l-16.85,18.65Z"/>
    </g>
    <g id="Left_loop" data-name="Left loop">
      <path id="Plan_top" data-name="Plan top" class="cls-8" d="M1116.77,452.19l244-40c18.05,14.65,27.74,23.45,44.25,39.96l196.6,196.59-272.4,272.4-209.46-206.95"/>
      <polygon id="Plan_bottom" data-name="Plan bottom" class="cls-8" points="2066.55 1113.67 1817.08 1126.88 1794.16 1386.06 1614.13 1206.04 1886.53 933.64 2066.55 1113.67"/>
      <path id="Code" class="cls-8" d="M1107.77,705.19c-49.74-38.3-115.25-65-178.08-65s-117.19,14.97-166.92,52l-254-58,18.63-246.35c58.59-43.63,123.56-77.21,193.1-99.81,67.52-21.94,137.9-33.06,209.18-33.06s144.79,11.75,213.8,34.91c70.7,23.74,151.08,65.71,210.28,111.3l-251,39,5,265Z"/>
      <path id="Test" class="cls-5" d="M931.05,1601.3c-71.51,0-142.06-11.08-209.7-32.94-69.94-22.61-142.77-59.41-201.58-103.16l245-40-4-263c49.93,37.15,106.53,53.89,170.28,53.89,61.93,0,113.03-10.65,162.72-48.89l254,46-8.68,248.86c-58.97,45.39-124.47,80.42-194.68,104.14-68.96,23.29-140.74,35.1-213.36,35.1Z"/>
      <path id="Build" class="cls-8" d="M506.77,1455.19c-21.06-16.54-34.72-32.05-53.74-51.07-64.19-64.19-113.95-139.14-147.86-222.77-32.72-80.68-49.31-165.87-49.31-253.21s16.59-172.54,49.31-253.21c33.92-83.63,83.67-158.58,147.87-222.78,19.02-19.02,40.67-40.39,61.73-56.95l-20,250,255,57c-9.07,7.13-16.09,14.09-24.34,22.34-54.4,54.4-84.35,126.7-84.35,203.61s29.95,149.21,84.34,203.59c8.2,8.2,13.33,14.37,22.35,21.46l4,260-245,42Z"/>
    </g>
  </g>
  <path class="cls-1" d="M1975.98,214.83c-2.4,1.19-3.61,3.12-3.74,5.77-.05,1.73.29,3.44,1.01,5.02,1.1,2.56,2.45,4.93,4.93,6.43,3.14,1.9,7.24.9,9.14-2.24.48-.79.79-1.68.91-2.6.32-2.4-.37-4.6-1.44-6.9-.87-1.82-2.04-3.64-3.87-4.94-2.19-1.56-4.51-1.73-6.94-.54Z"/>
  <g id="DEV">
    <path class="cls-6" d="M868.87,890.58c9.57,5.07,16.97,12.19,22.22,21.35,5.24,9.16,7.87,19.74,7.87,31.73s-2.62,22.42-7.87,31.64c-5.25,9.22-12.68,16.37-22.3,21.44-9.63,5.07-20.78,7.61-33.46,7.61h-45.47v-121.37h45.47c12.79,0,23.97,2.54,33.54,7.61ZM859.54,969.59c6.22-6.11,9.34-14.75,9.34-25.93s-3.11-19.88-9.34-26.11c-6.22-6.22-14.93-9.34-26.11-9.34h-14v70.54h14c11.18,0,19.88-3.05,26.11-9.16Z"/>
    <path class="cls-6" d="M945.12,906.66v24.55h39.59v22.82h-39.59v26.62h44.78v23.69h-74.34v-121.37h74.34v23.69h-44.78Z"/>
    <path class="cls-6" d="M1123.02,882.97l-43.05,121.37h-37l-43.05-121.37h31.47l30.08,91.63,30.26-91.63h31.29Z"/>
  </g>
  <g id="OPS">
    <path class="cls-9" d="M2152.82,997.6c-9.51-5.3-17.06-12.71-22.65-22.22-5.59-9.51-8.39-20.2-8.39-32.07s2.79-22.53,8.39-31.98c5.59-9.45,13.14-16.83,22.65-22.13,9.51-5.3,19.97-7.95,31.38-7.95s21.87,2.65,31.38,7.95c9.51,5.3,17,12.68,22.48,22.13,5.47,9.45,8.21,20.11,8.21,31.98s-2.77,22.56-8.3,32.07c-5.53,9.51-13.03,16.92-22.48,22.22-9.45,5.3-19.88,7.95-31.29,7.95s-21.87-2.65-31.38-7.95ZM2207.45,968.9c5.82-6.45,8.73-14.98,8.73-25.59s-2.91-19.28-8.73-25.67c-5.82-6.4-13.57-9.6-23.25-9.6s-17.61,3.17-23.43,9.51c-5.82,6.34-8.73,14.93-8.73,25.76s2.91,19.28,8.73,25.67c5.82,6.4,13.63,9.6,23.43,9.6s17.43-3.23,23.25-9.68Z"/>
    <path class="cls-9" d="M2350.35,941.32c-3.23,5.82-8.19,10.52-14.87,14.09-6.69,3.57-14.98,5.36-24.9,5.36h-18.33v43.57h-29.56v-121.37h47.89c9.68,0,17.87,1.67,24.55,5.01,6.68,3.34,11.7,7.95,15.04,13.83,3.34,5.88,5.01,12.62,5.01,20.23,0,7.03-1.62,13.46-4.84,19.28ZM2320.96,933.28c2.77-2.65,4.15-6.4,4.15-11.24s-1.38-8.58-4.15-11.24c-2.77-2.65-6.98-3.98-12.62-3.98h-16.08v30.43h16.08c5.65,0,9.85-1.32,12.62-3.98Z"/>
    <path class="cls-9" d="M2390.63,1001.23c-7.03-2.88-12.65-7.14-16.86-12.79-4.21-5.65-6.43-12.45-6.66-20.4h31.47c.46,4.5,2.02,7.93,4.67,10.29,2.65,2.36,6.11,3.54,10.37,3.54s7.84-1.01,10.37-3.03c2.53-2.02,3.8-4.81,3.8-8.39,0-3-1.01-5.47-3.03-7.43-2.02-1.96-4.5-3.57-7.43-4.84-2.94-1.27-7.12-2.71-12.54-4.32-7.84-2.42-14.24-4.84-19.19-7.26-4.96-2.42-9.22-5.99-12.79-10.72-3.57-4.73-5.36-10.89-5.36-18.5,0-11.29,4.09-20.14,12.28-26.54,8.18-6.4,18.84-9.6,31.99-9.6s24.15,3.2,32.33,9.6c8.18,6.4,12.56,15.3,13.14,26.71h-31.99c-.23-3.92-1.67-7-4.32-9.25-2.65-2.25-6.05-3.37-10.2-3.37-3.57,0-6.46.95-8.64,2.85-2.19,1.9-3.29,4.64-3.29,8.21,0,3.92,1.84,6.97,5.53,9.16,3.69,2.19,9.45,4.55,17.29,7.09,7.84,2.65,14.2,5.19,19.1,7.61,4.9,2.42,9.13,5.94,12.71,10.55,3.57,4.61,5.36,10.55,5.36,17.81s-1.76,13.2-5.27,18.85c-3.52,5.65-8.62,10.14-15.3,13.49-6.69,3.34-14.58,5.01-23.69,5.01s-16.83-1.44-23.86-4.32Z"/>
  </g>
  <g>
    <rect class="cls-1" x="1400.21" y="-2.9" width="429.95" height="162.77"/>
    <path class="cls-4" d="M1478.52,123.45c-7.12-2.92-12.81-7.23-17.06-12.95-4.26-5.71-6.51-12.6-6.74-20.65h31.85c.46,4.55,2.04,8.02,4.72,10.41,2.68,2.39,6.18,3.59,10.5,3.59s7.93-1.02,10.5-3.06c2.57-2.04,3.85-4.87,3.85-8.49,0-3.03-1.02-5.54-3.06-7.53-2.04-1.98-4.55-3.61-7.53-4.9-2.97-1.28-7.21-2.74-12.69-4.38-7.94-2.45-14.41-4.9-19.42-7.35-5.02-2.45-9.33-6.06-12.95-10.85-3.62-4.78-5.42-11.03-5.42-18.73,0-11.43,4.14-20.39,12.42-26.86,8.28-6.47,19.08-9.71,32.38-9.71s24.44,3.24,32.72,9.71c8.28,6.48,12.71,15.49,13.3,27.04h-32.38c-.24-3.96-1.69-7.09-4.38-9.36-2.69-2.27-6.12-3.41-10.33-3.41-3.62,0-6.54.96-8.75,2.89-2.22,1.92-3.33,4.7-3.33,8.31,0,3.97,1.87,7.06,5.6,9.27,3.73,2.22,9.57,4.61,17.5,7.17,7.93,2.69,14.38,5.25,19.34,7.7,4.96,2.45,9.25,6.01,12.86,10.67,3.62,4.67,5.42,10.68,5.42,18.02s-1.78,13.36-5.34,19.08c-3.56,5.72-8.72,10.27-15.49,13.65-6.77,3.39-14.76,5.08-23.98,5.08s-17.04-1.46-24.15-4.38Z"/>
    <path class="cls-4" d="M1595.77,27.72v24.85h40.07v23.1h-40.07v26.95h45.32v23.98h-75.25V3.75h75.25v23.98h-45.32Z"/>
    <path class="cls-4" d="M1663.31,32.53c5.25-9.51,12.57-16.92,21.96-22.23,9.39-5.31,20.04-7.96,31.94-7.96,14.58,0,27.07,3.85,37.45,11.55,10.38,7.7,17.33,18.2,20.83,31.5h-32.9c-2.45-5.13-5.92-9.04-10.41-11.72-4.49-2.68-9.6-4.03-15.31-4.03-9.22,0-16.69,3.21-22.4,9.62-5.72,6.42-8.58,14.99-8.58,25.73s2.86,19.31,8.58,25.73c5.71,6.42,13.18,9.62,22.4,9.62,5.71,0,10.82-1.34,15.31-4.02,4.49-2.68,7.96-6.59,10.41-11.73h32.9c-3.5,13.3-10.44,23.77-20.83,31.41-10.38,7.64-22.87,11.46-37.45,11.46-11.9,0-22.55-2.65-31.94-7.96-9.39-5.31-16.71-12.69-21.96-22.14-5.25-9.45-7.88-20.24-7.88-32.38s2.62-22.95,7.88-32.46Z"/>
  </g>
  <g>
    <path class="cls-10" d="M1295.46,619.1c-2.49.82-5.17.85-8.06.1-2.89-.75-5.76-2.45-8.62-5.1l-5.29-4.89-11.63,12.58-8.54-7.89,32.41-35.05,13.83,12.79c2.8,2.58,4.71,5.25,5.75,8,1.04,2.75,1.25,5.42.65,8.01-.61,2.59-1.92,4.98-3.95,7.18-1.88,2.03-4.06,3.46-6.54,4.28ZM1289.11,608.93c1.51-.03,2.91-.74,4.2-2.14,1.29-1.4,1.89-2.85,1.8-4.35-.09-1.5-.95-3.01-2.58-4.52l-4.64-4.29-8.12,8.79,4.64,4.29c1.63,1.51,3.2,2.25,4.71,2.22Z"/>
    <path class="cls-10" d="M1299.6,644.47l11.18,10.34-6.09,6.59-19.72-18.24,32.41-35.05,8.54,7.89-26.32,28.46Z"/>
    <path class="cls-10" d="M1336.82,679.63l-13.08-12.09-7.82,4.25-8.94-8.26,45.09-23.32,9.89,9.14-19.73,46.77-9.04-8.36,3.63-8.13ZM1340.72,671.01l7.52-16.85-16.16,8.86,8.64,7.99Z"/>
    <path class="cls-10" d="M1377.93,729.12l-8.54-7.89,5.71-34.82-19.99,21.62-8.54-7.89,32.41-35.05,8.54,7.89-5.8,34.92,20.08-21.72,8.54,7.89-32.41,35.05Z"/>
  </g>
  <g>
    <path class="cls-7" d="M1553.61,1017.4l-19.79-5.61-1.96,1.98,12.81,12.67-8.17,8.27-33.95-33.56,13.72-13.88c2.64-2.68,5.37-4.49,8.17-5.46,2.8-.96,5.47-1.11,8.03-.43,2.55.67,4.83,2,6.83,3.97,2.26,2.23,3.64,4.86,4.16,7.89.52,3.03-.08,6.15-1.8,9.36l21.19,5.46-9.23,9.33ZM1526.01,1007.99l5.07-5.13c1.5-1.52,2.25-3.02,2.26-4.51,0-1.49-.67-2.91-2.02-4.25-1.29-1.27-2.68-1.9-4.17-1.87-1.49.02-2.98.79-4.48,2.31l-5.07,5.13,8.41,8.32Z"/>
    <path class="cls-7" d="M1548.99,967.42l6.87,6.79,10.95-11.07,6.38,6.31-10.95,11.08,7.45,7.36,12.38-12.53,6.62,6.55-20.55,20.79-33.95-33.56,20.55-20.8,6.63,6.55-12.38,12.53Z"/>
    <path class="cls-7" d="M1596.27,961.47l10.71-10.83,6.38,6.31-18.88,19.1-33.95-33.56,8.17-8.27,27.57,27.25Z"/>
    <path class="cls-7" d="M1598.61,917.22l6.87,6.79,10.95-11.08,6.38,6.31-10.95,11.08,7.45,7.36,12.38-12.53,6.62,6.55-20.55,20.8-33.95-33.56,20.55-20.8,6.63,6.55-12.38,12.53Z"/>
    <path class="cls-7" d="M1658.99,898.79l-12.52,12.67,3.99,7.96-8.56,8.66-21.81-45.84,9.46-9.58,46.09,21.27-8.65,8.75-8.01-3.9ZM1650.51,894.6l-16.59-8.08,8.32,16.44,8.27-8.37Z"/>
    <path class="cls-7" d="M1684.48,883.25c-2.75,1.17-5.5,1.56-8.24,1.18-2.74-.38-5.26-1.64-7.54-3.78l8.7-8.8c1.38,1.11,2.77,1.63,4.17,1.54,1.39-.09,2.68-.73,3.86-1.92,1.21-1.22,1.88-2.47,2.02-3.74.14-1.27-.29-2.39-1.29-3.38-.84-.83-1.81-1.23-2.92-1.21-1.11.02-2.24.27-3.41.74-1.17.47-2.72,1.24-4.68,2.31-2.84,1.52-5.29,2.64-7.34,3.36-2.05.72-4.23.92-6.54.62-2.31-.31-4.53-1.51-6.66-3.62-3.16-3.12-4.5-6.71-4.03-10.77.47-4.06,2.53-7.92,6.16-11.6,3.7-3.74,7.57-5.87,11.62-6.39,4.05-.52,7.75.72,11.1,3.71l-8.84,8.95c-1.16-1.02-2.42-1.47-3.78-1.35-1.36.12-2.62.76-3.76,1.92-.99,1-1.52,2.07-1.59,3.21-.07,1.14.39,2.2,1.39,3.19,1.1,1.08,2.46,1.41,4.09.99,1.63-.43,3.89-1.38,6.76-2.88,2.91-1.46,5.38-2.54,7.41-3.24,2.03-.7,4.19-.91,6.46-.64,2.28.28,4.43,1.42,6.46,3.42,1.93,1.91,3.21,4.14,3.81,6.69.61,2.55.45,5.21-.46,8.01-.91,2.79-2.63,5.46-5.15,8.01-2.46,2.48-5.06,4.31-7.81,5.48Z"/>
    <path class="cls-7" d="M1690.53,824.22l6.87,6.79,10.95-11.08,6.38,6.31-10.95,11.08,7.45,7.36,12.38-12.53,6.63,6.55-20.56,20.8-33.95-33.56,20.56-20.8,6.62,6.55-12.38,12.53Z"/>
  </g>
  <g>
    <path class="cls-7" d="M2282.38,434.87c4.1,1.17,7.53,3.3,10.3,6.39,2.77,3.09,4.64,6.95,5.63,11.56.97,4.57.83,8.84-.43,12.82-1.26,3.98-3.54,7.34-6.82,10.08-3.29,2.74-7.37,4.63-12.24,5.67l-17.49,3.73-9.96-46.69,17.49-3.73c4.92-1.05,9.43-.99,13.53.17ZM2285.27,466.03c1.89-2.86,2.38-6.44,1.46-10.74-.92-4.3-2.83-7.39-5.73-9.28-2.9-1.88-6.51-2.37-10.81-1.45l-5.39,1.15,5.79,27.13,5.39-1.15c4.3-.92,7.4-2.81,9.29-5.67Z"/>
    <path class="cls-7" d="M2318.64,437.36l.43,9.65,15.56-.69.4,8.97-15.56.69.46,10.46,17.59-.78.41,9.31-29.21,1.29-2.1-47.69,29.21-1.29.41,9.31-17.59.78Z"/>
    <path class="cls-7" d="M2381.2,453.43c-1.47,2.17-3.58,3.83-6.32,5-2.74,1.17-6.06,1.57-9.94,1.23l-7.18-.64-1.53,17.07-11.58-1.04,4.26-47.55,18.76,1.68c3.79.34,6.94,1.28,9.44,2.83,2.5,1.54,4.3,3.53,5.41,5.95,1.1,2.42,1.52,5.12,1.25,8.1-.25,2.75-1.11,5.22-2.57,7.38ZM2369.96,449.25c1.18-.94,1.85-2.36,2.02-4.26.17-1.9-.24-3.41-1.23-4.55-.99-1.14-2.59-1.8-4.8-2l-6.3-.56-1.07,11.92,6.3.56c2.21.2,3.91-.17,5.08-1.11Z"/>
    <path class="cls-7" d="M2399.42,473.07l14.92,3.05-1.8,8.79-26.32-5.38,9.55-46.77,11.39,2.33-7.76,37.98Z"/>
    <path class="cls-7" d="M2428,486.45c-2.91-3.14-4.84-6.83-5.77-11.06-.94-4.24-.68-8.57.76-13.02,1.44-4.44,3.78-8.09,7.02-10.95,3.24-2.86,6.96-4.7,11.16-5.53,4.2-.83,8.44-.55,12.7.84s7.86,3.65,10.77,6.79c2.91,3.14,4.82,6.81,5.72,11.01.9,4.2.63,8.52-.81,12.96-1.44,4.44-3.78,8.1-7,10.99s-6.93,4.75-11.11,5.58c-4.18.84-8.4.56-12.67-.83s-7.86-3.65-10.77-6.79ZM2451.92,482.35c2.96-1.71,5.09-4.54,6.38-8.51,1.3-4.01,1.25-7.56-.15-10.67-1.4-3.1-3.91-5.24-7.53-6.41-3.67-1.19-6.97-.95-9.92.71-2.95,1.66-5.08,4.52-6.4,8.58-1.3,4.01-1.25,7.56.15,10.67,1.4,3.1,3.93,5.25,7.6,6.44,3.62,1.18,6.91.91,9.88-.8Z"/>
    <path class="cls-7" d="M2524.46,476.21l-28.23,22.31-6.5,14.37-10.59-4.79,6.5-14.37-1.88-35.93,12.02,5.44.19,22.03,16.6-14.43,11.9,5.38Z"/>
  </g>
  <g>
    <path class="cls-1" d="M722.92,558.1s15.87-56.71,216.98-58.66"/>
    <path class="cls-10" d="M732.81,499.21c.47-4.19,1.99-7.94,4.58-11.25,2.58-3.3,6.01-5.84,10.28-7.61,5.24-2.17,10.29-2.65,15.16-1.43,4.87,1.22,8.93,3.95,12.16,8.21l-11.81,4.9c-1.64-1.48-3.47-2.36-5.48-2.66-2.01-.29-4.04-.02-6.1.83-3.31,1.37-5.51,3.64-6.61,6.79-1.1,3.15-.85,6.66.75,10.51,1.6,3.85,3.9,6.51,6.91,7.96,3.01,1.45,6.16,1.49,9.47.12,2.05-.85,3.68-2.09,4.9-3.72,1.21-1.63,1.88-3.55,1.99-5.76l11.81-4.9c.72,5.29-.21,10.09-2.8,14.38-2.59,4.29-6.5,7.52-11.74,9.69-4.27,1.77-8.49,2.4-12.65,1.9-4.16-.51-7.89-2.07-11.18-4.68-3.29-2.61-5.84-6.09-7.64-10.45-1.81-4.35-2.47-8.63-2-12.82Z"/>
    <path class="cls-10" d="M802.22,510.58c-4.08-1.29-7.57-3.55-10.48-6.78-2.91-3.22-4.82-7.12-5.76-11.7-.93-4.57-.7-8.9.71-12.99,1.41-4.08,3.74-7.52,6.98-10.31,3.25-2.79,7.07-4.64,11.46-5.54,4.4-.9,8.64-.7,12.72.59,4.08,1.29,7.55,3.55,10.41,6.76,2.85,3.21,4.75,7.1,5.69,11.68.94,4.58.71,8.91-.67,13.01-1.38,4.1-3.69,7.55-6.91,10.33-3.22,2.79-7.03,4.63-11.43,5.53-4.4.9-8.64.7-12.72-.59ZM821.01,495.22c1.73-2.95,2.18-6.46,1.35-10.55-.84-4.13-2.64-7.2-5.39-9.21-2.75-2.01-5.99-2.63-9.72-1.86-3.78.77-6.54,2.61-8.28,5.51-1.74,2.9-2.19,6.44-1.33,10.61.85,4.13,2.64,7.2,5.39,9.21,2.75,2.01,6.01,2.62,9.78,1.85,3.73-.76,6.46-2.62,8.2-5.56Z"/>
    <path class="cls-10" d="M871.23,457.71c3.94,1.61,7.12,4.11,9.53,7.49,2.41,3.38,3.85,7.42,4.32,12.11.46,4.65-.15,8.88-1.84,12.69-1.69,3.81-4.32,6.9-7.89,9.26-3.57,2.36-7.83,3.79-12.79,4.29l-17.79,1.78-4.75-47.5,17.79-1.78c5.01-.5,9.48.05,13.42,1.66ZM870.67,489c2.2-2.63,3.08-6.14,2.64-10.51-.44-4.38-2-7.66-4.67-9.85-2.68-2.19-6.21-3.07-10.58-2.63l-5.48.55,2.76,27.61,5.48-.55c4.38-.44,7.66-1.97,9.86-4.61Z"/>
    <path class="cls-10" d="M903.98,462.02l.41,9.65,15.56-.66.38,8.97-15.56.66.44,10.46,17.6-.74.39,9.31-29.21,1.24-2.02-47.69,29.21-1.24.39,9.31-17.6.75Z"/>
  </g>
  <g>
    <path class="cls-1" d="M414.16,863.53s-44.75,182.19,95.02,317.38"/>
    <path class="cls-10" d="M432.85,996.75c-1.92,1.94-4.25,3.09-6.99,3.44-3.96.51-7.27-.46-9.94-2.93-2.67-2.47-4.33-6.17-4.97-11.12l-2.86-22.05,47.34-6.13,2.76,21.31c.62,4.81,0,8.72-1.84,11.72-1.85,3.01-4.66,4.75-8.44,5.24-2.79.36-5.2-.07-7.23-1.29-2.03-1.22-3.57-3-4.6-5.33-.23,2.82-1.3,5.2-3.22,7.14ZM421.88,987.23c1.01.94,2.35,1.31,4.02,1.09,1.66-.22,2.9-.93,3.7-2.16.8-1.22,1.08-2.8.83-4.74l-1.08-8.36-10.45,1.35,1.1,8.5c.25,1.93.88,3.37,1.89,4.31ZM437.77,971.98l.98,7.55c.24,1.89.85,3.29,1.81,4.19.96.9,2.25,1.25,3.87,1.04,1.62-.21,2.79-.88,3.51-2,.72-1.12.96-2.63.72-4.52l-.98-7.55-9.91,1.28Z"/>
    <path class="cls-10" d="M464.32,1011.5l-27.51,7.67c-2.75.77-4.68,2.03-5.79,3.8-1.11,1.77-1.29,3.96-.57,6.58.73,2.62,2.03,4.42,3.91,5.41,1.87.98,4.19,1.09,6.94.32l27.51-7.67,3.12,11.2-27.44,7.66c-4.11,1.15-7.82,1.24-11.15.29-3.33-.96-6.12-2.71-8.38-5.25-2.26-2.55-3.9-5.63-4.91-9.26-1.01-3.62-1.21-7.06-.58-10.32.62-3.25,2.13-6.11,4.53-8.57,2.4-2.46,5.65-4.26,9.75-5.4l27.44-7.66,3.12,11.2Z"/>
    <path class="cls-10" d="M479.23,1055.76l-44.24,17.92-4.37-10.78,44.25-17.92,4.37,10.78Z"/>
    <path class="cls-10" d="M452.96,1090.75l6.97,13.54-7.98,4.11-12.3-23.88,42.44-21.86,5.33,10.34-34.46,17.75Z"/>
    <path class="cls-10" d="M511.55,1117.01c.55,4.22-.04,8.22-1.79,11.99-1.74,3.77-4.54,7.02-8.38,9.75-3.81,2.71-7.79,4.27-11.94,4.69-4.15.42-8.14-.34-11.96-2.27-3.82-1.93-7.17-4.93-10.06-8.99l-10.36-14.58,38.91-27.65,10.36,14.58c2.92,4.1,4.65,8.26,5.2,12.49ZM484.1,1132.02c3.38.6,6.86-.37,10.44-2.92,3.58-2.55,5.67-5.53,6.24-8.94.58-3.41-.41-6.91-2.96-10.5l-3.19-4.49-22.62,16.07,3.19,4.49c2.55,3.58,5.51,5.68,8.89,6.28Z"/>
  </g>
  <g>
    <path class="cls-1" d="M859.7,1432.89s210.89,26.68,322.7-74.99"/>
    <path class="cls-10" d="M1005.87,1382.55l1.06,9.25-12.56,1.45,4.39,38.17-11.55,1.33-4.39-38.17-12.56,1.45-1.07-9.26,36.68-4.22Z"/>
    <path class="cls-10" d="M1024.04,1388.54l1.87,9.47,15.28-3.01,1.74,8.81-15.28,3.01,2.03,10.28,17.28-3.41,1.8,9.14-28.69,5.66-9.24-46.83,28.69-5.66,1.8,9.14-17.28,3.41Z"/>
    <path class="cls-10" d="M1066.88,1416.79c-2.97-.28-5.58-1.24-7.81-2.88-2.23-1.64-3.84-3.95-4.84-6.91l11.84-3.6c.69,1.64,1.67,2.75,2.93,3.34,1.27.59,2.7.63,4.31.15,1.65-.5,2.83-1.28,3.56-2.33.72-1.05.88-2.25.47-3.59-.34-1.13-1.01-1.94-1.99-2.45-.98-.51-2.1-.83-3.35-.97-1.25-.14-2.99-.2-5.21-.19-3.23-.01-5.91-.19-8.05-.54-2.14-.34-4.16-1.2-6.04-2.57-1.89-1.37-3.26-3.49-4.13-6.35-1.29-4.25-.77-8.05,1.58-11.39,2.35-3.34,5.99-5.77,10.94-7.27,5.03-1.53,9.45-1.56,13.26-.09,3.81,1.47,6.48,4.32,8,8.55l-12.04,3.66c-.54-1.45-1.43-2.44-2.68-2.99-1.26-.54-2.66-.58-4.22-.1-1.34.41-2.32,1.1-2.93,2.06-.61.97-.71,2.12-.29,3.47.45,1.48,1.49,2.41,3.13,2.82,1.64.4,4.08.63,7.32.69,3.25.1,5.94.32,8.06.67,2.12.35,4.12,1.19,5.99,2.51,1.87,1.33,3.23,3.36,4.06,6.09.79,2.6.85,5.17.17,7.69-.68,2.53-2.08,4.8-4.21,6.83-2.13,2.02-4.91,3.56-8.34,4.6-3.34,1.02-6.5,1.38-9.47,1.11Z"/>
    <path class="cls-10" d="M1115.24,1348.25l3.88,8.47-11.5,5.27,16,34.93-10.57,4.84-16-34.93-11.5,5.27-3.88-8.47,33.57-15.38Z"/>
  </g>
  <g>
    <path class="cls-7" d="M2723.14,863.78c.97-4.17,2.95-7.83,5.93-10.98,2.98-3.15,6.72-5.37,11.21-6.66,4.49-1.29,8.82-1.4,13-.31,4.18,1.08,7.79,3.13,10.83,6.15,3.04,3.02,5.18,6.68,6.42,10.99,1.24,4.31,1.38,8.55.41,12.73s-2.94,7.8-5.92,10.9c-2.98,3.1-6.71,5.29-11.19,6.58-4.49,1.29-8.83,1.41-13.02.36-4.2-1.06-7.81-3.08-10.84-6.08-3.03-2.99-5.17-6.65-6.41-10.96s-1.38-8.55-.41-12.73ZM2739.94,881.31c3.07,1.5,6.61,1.67,10.62.51,4.05-1.17,6.97-3.2,8.75-6.1,1.78-2.9,2.15-6.17,1.09-9.83-1.07-3.7-3.11-6.31-6.14-7.82-3.03-1.51-6.59-1.67-10.69-.5-4.05,1.17-6.97,3.2-8.75,6.09-1.78,2.9-2.14,6.2-1.08,9.9,1.05,3.66,3.12,6.24,6.19,7.73Z"/>
    <path class="cls-7" d="M2762.32,935.24c-2.48-.84-4.65-2.42-6.5-4.76-1.85-2.33-3.13-5.42-3.83-9.25l-1.3-7.09-16.86,3.08-2.09-11.44,46.96-8.58,3.39,18.53c.68,3.75.62,7.03-.21,9.85-.82,2.82-2.25,5.09-4.29,6.8s-4.53,2.83-7.47,3.37c-2.72.5-5.32.33-7.8-.51ZM2763.35,923.3c1.22.88,2.77,1.15,4.64.81,1.87-.34,3.22-1.14,4.05-2.4s1.05-2.98.65-5.17l-1.14-6.22-11.77,2.15,1.14,6.22c.4,2.18,1.21,3.72,2.43,4.6Z"/>
    <path class="cls-7" d="M2778.3,955.03l-9.61.99,1.59,15.49-8.93.92-1.59-15.49-10.42,1.07,1.8,17.52-9.27.95-2.99-29.09,47.49-4.89,2.99,29.09-9.27.96-1.8-17.52Z"/>
    <path class="cls-7" d="M2743.06,1008.12l17.77-10.36-.07-2.79-18.01.44-.28-11.62,47.72-1.16.48,19.51c.09,3.76-.49,6.98-1.74,9.67-1.25,2.68-3,4.71-5.26,6.08-2.26,1.37-4.79,2.09-7.6,2.16-3.17.08-6.03-.75-8.56-2.48-2.54-1.73-4.37-4.33-5.5-7.79l-18.63,11.47-.32-13.12ZM2768.99,994.77l.18,7.21c.05,2.13.61,3.71,1.68,4.75,1.07,1.04,2.55,1.54,4.46,1.49,1.81-.05,3.23-.61,4.24-1.7,1.02-1.09,1.5-2.7,1.45-4.83l-.18-7.21-11.83.29Z"/>
    <path class="cls-7" d="M2749.78,1057.97l1.16-17.78-8.23-3.4.79-12.15,46.51,20.34-.88,13.44-48.76,14.13.8-12.28,8.6-2.3ZM2758.93,1055.57l17.82-4.77-17.06-6.97-.77,11.74Z"/>
    <path class="cls-7" d="M2781.59,1118.51l-9.21-1.39,1.88-12.51-37.99-5.71,1.73-11.5,37.99,5.71,1.88-12.51,9.21,1.38-5.49,36.51Z"/>
    <path class="cls-7" d="M2768.15,1136.71l-9.42-2.1-3.39,15.2-8.76-1.96,3.39-15.2-10.22-2.28-3.84,17.19-9.09-2.03,6.37-28.54,46.59,10.4-6.37,28.54-9.09-2.03,3.84-17.19Z"/>
  </g>
  <g>
    <path class="cls-1" d="M1929.92,1325.16s180.12,150.1,426.71,111.5"/>
    <path class="cls-7" d="M2081.1,1357.01l-20,43.34-10.56-4.87,12-25.99-21.69,21.52-8.52-3.93,2.27-30.56-12.02,26.05-10.56-4.87,20-43.34,12.47,5.75-1.69,35.62,25.89-24.45,12.41,5.73Z"/>
    <path class="cls-7" d="M2082.87,1405.46c-2.86-3.19-4.72-6.91-5.58-11.16-.86-4.25-.53-8.59.99-13s3.92-8.02,7.21-10.82c3.29-2.8,7.04-4.58,11.26-5.33,4.21-.75,8.44-.4,12.69,1.06,4.24,1.46,7.79,3.79,10.65,6.97,2.86,3.19,4.7,6.89,5.53,11.11.83,4.22.48,8.53-1.04,12.95s-3.92,8.04-7.19,10.87c-3.27,2.83-7.01,4.62-11.2,5.38-4.19.76-8.41.41-12.66-1.05-4.24-1.46-7.79-3.78-10.65-6.97ZM2106.86,1401.78c2.99-1.66,5.16-4.46,6.52-8.4,1.37-3.99,1.38-7.54.04-10.67-1.35-3.12-3.82-5.31-7.42-6.55-3.64-1.25-6.95-1.08-9.93.54s-5.16,4.43-6.54,8.46c-1.37,3.99-1.39,7.54-.04,10.67,1.35,3.12,3.84,5.31,7.48,6.57,3.6,1.24,6.9,1.03,9.89-.62Z"/>
    <path class="cls-7" d="M2167.87,1432.59l-11.3-2.72-12.01-33.18-6.9,28.62-11.3-2.72,11.18-46.41,11.3,2.72,11.98,33.31,6.93-28.76,11.3,2.72-11.18,46.41Z"/>
    <path class="cls-7" d="M2198.34,1389.21l-8,47.06-11.46-1.95,8.01-47.06,11.46,1.95Z"/>
    <path class="cls-7" d="M2240.36,1394.36l-1.02,9.26-12.57-1.38-4.19,38.19-11.56-1.27,4.19-38.19-12.57-1.38,1.02-9.26,36.71,4.03Z"/>
    <path class="cls-7" d="M2254.72,1440.1c-3.71-2.14-6.63-5.1-8.77-8.88-2.14-3.77-3.18-7.99-3.1-12.66.07-4.67,1.24-8.84,3.49-12.53,2.26-3.68,5.27-6.54,9.04-8.57,3.77-2.03,7.9-3.01,12.39-2.94s8.58,1.18,12.29,3.32c3.71,2.14,6.61,5.09,8.71,8.84s3.11,7.96,3.04,12.63c-.07,4.67-1.23,8.86-3.46,12.56s-5.23,6.57-8.97,8.6c-3.75,2.03-7.87,3.01-12.36,2.94-4.49-.07-8.58-1.17-12.29-3.32ZM2276.38,1429.14c2.33-2.5,3.52-5.84,3.59-10.01.06-4.21-1.03-7.6-3.28-10.15-2.25-2.55-5.28-3.86-9.09-3.92-3.85-.06-6.94,1.14-9.27,3.6-2.33,2.46-3.52,5.82-3.59,10.08-.07,4.22,1.03,7.6,3.28,10.15,2.25,2.55,5.3,3.86,9.15,3.92,3.81.06,6.88-1.16,9.2-3.67Z"/>
    <path class="cls-7" d="M2325.74,1440.6l-11.41-17.12-2.78.23,1.51,17.96-11.59.98-4.01-47.57,19.45-1.64c3.75-.32,7,.07,9.75,1.16,2.75,1.09,4.88,2.72,6.38,4.89,1.5,2.17,2.37,4.66,2.61,7.46.27,3.16-.39,6.06-1.96,8.7-1.58,2.63-4.06,4.62-7.45,5.95l12.57,17.91-13.08,1.1ZM2310.86,1415.52l7.18-.61c2.12-.18,3.67-.83,4.65-1.96.97-1.13,1.38-2.64,1.22-4.54-.15-1.81-.8-3.18-1.95-4.13-1.15-.95-2.79-1.33-4.91-1.16l-7.18.61,1,11.79Z"/>
  </g>
</svg>