<?xml version="1.0" encoding="UTF-8" standalone="no"?>
<svg
   id="Lager_2"
   data-name="Lager 2"
   viewBox="0 0 724.92989 724.9299"
   version="1.1"
   sodipodi:docname="favicon.svg"
   width="724"
   height="724"
   inkscape:version="1.4.2 (1:1.4.2+202505120737+ebf0e940d0)"
   inkscape:export-filename="favicon.png"
   inkscape:export-xdpi="96"
   inkscape:export-ydpi="96"
   xmlns:inkscape="http://www.inkscape.org/namespaces/inkscape"
   xmlns:sodipodi="http://sodipodi.sourceforge.net/DTD/sodipodi-0.dtd"
   xmlns="http://www.w3.org/2000/svg"
   xmlns:svg="http://www.w3.org/2000/svg">
  <sodipodi:namedview
     id="namedview17"
     pagecolor="#ffffff"
     bordercolor="#000000"
     borderopacity="0.25"
     inkscape:showpageshadow="2"
     inkscape:pageopacity="0.0"
     inkscape:pagecheckerboard="0"
     inkscape:deskcolor="#d1d1d1"
     inkscape:zoom="1.0059335"
     inkscape:cx="326.56235"
     inkscape:cy="382.23204"
     inkscape:window-width="1854"
     inkscape:window-height="1003"
     inkscape:window-x="0"
     inkscape:window-y="0"
     inkscape:window-maximized="1"
     inkscape:current-layer="Lager_2" />
  <defs
     id="defs15">
    <style
       id="style1">
      .cls-1 {
        fill: url(#linear-gradient-3);
      }

      .cls-2 {
        fill: url(#linear-gradient-2);
      }

      .cls-3 {
        fill: url(#linear-gradient);
      }
    </style>
    <linearGradient
       id="linear-gradient"
       x1="99.5"
       y1="720.20001"
       x2="761.87"
       y2="720.20001"
       gradientTransform="translate(0,-403.8)"
       gradientUnits="userSpaceOnUse">
      <stop
         offset="0"
         stop-color="#cbff8b"
         id="stop1" />
      <stop
         offset=".3"
         stop-color="#22a472"
         id="stop2" />
      <stop
         offset=".6"
         stop-color="#2f7b70"
         id="stop3" />
      <stop
         offset=".8"
         stop-color="#3d516e"
         id="stop4" />
      <stop
         offset="1"
         stop-color="#303b54"
         id="stop5" />
    </linearGradient>
    <linearGradient
       id="linear-gradient-2"
       x1="91"
       y1="832.34998"
       x2="537.35999"
       y2="832.34998"
       gradientTransform="translate(0,-403.8)"
       gradientUnits="userSpaceOnUse">
      <stop
         offset="0"
         stop-color="#cbff8b"
         id="stop6" />
      <stop
         offset=".3"
         stop-color="#22a472"
         id="stop7" />
      <stop
         offset=".6"
         stop-color="#2f7b70"
         id="stop8" />
      <stop
         offset=".8"
         stop-color="#3d516e"
         id="stop9" />
      <stop
         offset="1"
         stop-color="#303b54"
         id="stop10" />
    </linearGradient>
    <linearGradient
       id="linear-gradient-3"
       x1="38.799999"
       y1="935.20001"
       x2="389.45999"
       y2="935.20001"
       gradientTransform="translate(0,-403.8)"
       gradientUnits="userSpaceOnUse">
      <stop
         offset="0"
         stop-color="#cbff8b"
         id="stop11" />
      <stop
         offset=".3"
         stop-color="#22a472"
         id="stop12" />
      <stop
         offset=".6"
         stop-color="#2f7b70"
         id="stop13" />
      <stop
         offset=".8"
         stop-color="#3d516e"
         id="stop14" />
      <stop
         offset="1"
         stop-color="#303b54"
         id="stop15" />
    </linearGradient>
  </defs>
  <g
     id="Lager_1-2"
     data-name="Lager 1-2"
     transform="translate(-37.870689,1.2649475)">
    <path
       class="cls-3"
       d="m 539.6,34.1 c -16.3,-2.9 -33,-4.4 -49.9,-4.4 -144.2,0 -303.4,108.2 -390.2,354.6 11.5,-20.2 24.1,-39 37.6,-56.1 30.5,-38.5 65.3,-68.2 103.6,-88.4 36.6,-19.3 74.8,-29.1 113.3,-29.1 38.5,0 24.4,1 36.3,3 79.2,13.4 137.9,54.7 160.9,113.3 23.5,59.7 7.6,130.3 -44.7,198.7 -21.3,27.9 -53,53.7 -94.7,77.4 113,-40.2 222.1,-95.6 278.5,-169.6 C 837.1,240.7 743.9,70.5 539.4,34 h 0.2 z"
       id="path15"
       style="fill:url(#linear-gradient)" />
    <path
       class="cls-2"
       d="M 487.1,510.8 C 589,377.7 526.2,261.6 386.3,238 c -10.6,-1.8 -21.3,-2.7 -32.2,-2.7 -94.9,0 -200.3,68.5 -263.1,223.2 6.4,-9.7 13.1,-18.9 20.2,-27.5 22.9,-27.8 48.8,-49.4 76.9,-64.1 27.2,-14.2 55.2,-21.4 83.2,-21.4 28,0 14,0.5 20.8,1.4 55.7,7.5 97.2,35.4 113.9,76.4 17.9,43.9 5.5,96.7 -34.9,148.6 -13.7,17.5 -32.8,34.2 -57.1,49.9 70.8,-27.5 137.1,-64 173.1,-110.9 v 0 z"
       id="path16"
       style="fill:url(#linear-gradient-2)" />
    <path
       class="cls-1"
       d="m 351.8,556.7 c 73.3,-94.1 32.8,-172.5 -62.9,-185.4 -5.7,-0.8 -11.6,-1.2 -17.5,-1.2 -93,0 -205.9,96.7 -232.6,322.6 0,0 239.6,-41.9 312.9,-136 z"
       id="path17"
       style="fill:url(#linear-gradient-3)" />
  </g>
</svg>
