<svg xmlns="http://www.w3.org/2000/svg" xmlns:xlink="http://www.w3.org/1999/xlink" width="1200" zoomAndPan="magnify" viewBox="0 0 900 899.99999" height="1200" preserveAspectRatio="xMidYMid meet" version="1.0"><defs><filter x="0%" y="0%" width="100%" height="100%" id="d437c9c671"><feColorMatrix values="0 0 0 0 1 0 0 0 0 1 0 0 0 0 1 0 0 0 1 0" color-interpolation-filters="sRGB"/></filter><g/><clipPath id="a4b7f4de2b"><path d="M 4.125 0.75 L 322 0.75 L 322 319 L 4.125 319 Z M 4.125 0.75 " clip-rule="nonzero"/></clipPath><clipPath id="d308468e5b"><path d="M 374 0.75 L 692.625 0.75 L 692.625 319 L 374 319 Z M 374 0.75 " clip-rule="nonzero"/></clipPath><clipPath id="98e06caa4a"><path d="M 4.125 371 L 322 371 L 322 689.25 L 4.125 689.25 Z M 4.125 371 " clip-rule="nonzero"/></clipPath><clipPath id="60b64ae099"><path d="M 374 371 L 692.625 371 L 692.625 689.25 L 374 689.25 Z M 374 371 " clip-rule="nonzero"/></clipPath><mask id="cd0115781c"><g filter="url(#d437c9c671)"><rect x="-90" width="1080" fill="#000000" y="-89.999999" height="1079.999988" fill-opacity="0.75"/></g></mask><clipPath id="422c56aa14"><path d="M 1.027344 0.5 L 554 0.5 L 554 450.5 L 1.027344 450.5 Z M 1.027344 0.5 " clip-rule="nonzero"/></clipPath><clipPath id="5463b446cd"><path d="M 59.527344 0.5 L 494.867188 0.5 C 510.382812 0.5 525.261719 6.664062 536.234375 17.632812 C 547.203125 28.605469 553.367188 43.484375 553.367188 59 L 553.367188 392 C 553.367188 407.515625 547.203125 422.394531 536.234375 433.367188 C 525.261719 444.335938 510.382812 450.5 494.867188 450.5 L 59.527344 450.5 C 44.011719 450.5 29.132812 444.335938 18.160156 433.367188 C 7.191406 422.394531 1.027344 407.515625 1.027344 392 L 1.027344 59 C 1.027344 43.484375 7.191406 28.605469 18.160156 17.632812 C 29.132812 6.664062 44.011719 0.5 59.527344 0.5 Z M 59.527344 0.5 " clip-rule="nonzero"/></clipPath><clipPath id="49ccf9b560"><path d="M 0.0273438 0.5 L 552 0.5 L 552 450.5 L 0.0273438 450.5 Z M 0.0273438 0.5 " clip-rule="nonzero"/></clipPath><clipPath id="b626d719b2"><path d="M 58.527344 0.5 L 493.867188 0.5 C 509.382812 0.5 524.261719 6.664062 535.234375 17.632812 C 546.203125 28.605469 552.367188 43.484375 552.367188 59 L 552.367188 392 C 552.367188 407.515625 546.203125 422.394531 535.234375 433.367188 C 524.261719 444.335938 509.382812 450.5 493.867188 450.5 L 58.527344 450.5 C 43.011719 450.5 28.132812 444.335938 17.160156 433.367188 C 6.191406 422.394531 0.0273438 407.515625 0.0273438 392 L 0.0273438 59 C 0.0273438 43.484375 6.191406 28.605469 17.160156 17.632812 C 28.132812 6.664062 43.011719 0.5 58.527344 0.5 Z M 58.527344 0.5 " clip-rule="nonzero"/></clipPath><clipPath id="91f4787881"><rect x="0" width="553" y="0" height="451"/></clipPath><clipPath id="58fa752ed3"><rect x="0" width="555" y="0" height="451"/></clipPath><mask id="32d8b357a3"><g filter="url(#d437c9c671)"><rect x="-90" width="1080" fill="#000000" y="-89.999999" height="1079.999988" fill-opacity="0.75"/></g></mask><clipPath id="29e98aa2ba"><path d="M 0.28125 0.71875 L 534.039062 0.71875 L 534.039062 373.921875 L 0.28125 373.921875 Z M 0.28125 0.71875 " clip-rule="nonzero"/></clipPath><clipPath id="c81e25a56f"><rect x="0" width="535" y="0" height="374"/></clipPath><clipPath id="40612f26a3"><rect x="0" width="535" y="0" height="374"/></clipPath></defs><g clip-path="url(#a4b7f4de2b)"><path fill="#22a472" d="M 83.570312 0.75 L 242.464844 0.75 C 243.765625 0.75 245.066406 0.78125 246.363281 0.847656 C 247.664062 0.910156 248.960938 1.003906 250.253906 1.132812 C 251.546875 1.261719 252.835938 1.417969 254.125 1.609375 C 255.410156 1.800781 256.691406 2.023438 257.964844 2.277344 C 259.242188 2.53125 260.507812 2.816406 261.769531 3.132812 C 263.03125 3.445312 264.285156 3.792969 265.527344 4.171875 C 266.773438 4.546875 268.007812 4.957031 269.230469 5.394531 C 270.457031 5.832031 271.667969 6.300781 272.871094 6.796875 C 274.070312 7.296875 275.257812 7.820312 276.433594 8.378906 C 277.609375 8.933594 278.769531 9.519531 279.917969 10.132812 C 281.0625 10.742188 282.195312 11.382812 283.3125 12.054688 C 284.425781 12.722656 285.523438 13.417969 286.605469 14.140625 C 287.6875 14.863281 288.75 15.609375 289.792969 16.382812 C 290.835938 17.160156 291.863281 17.957031 292.867188 18.785156 C 293.871094 19.609375 294.855469 20.457031 295.820312 21.332031 C 296.785156 22.203125 297.726562 23.101562 298.644531 24.019531 C 299.5625 24.9375 300.460938 25.878906 301.332031 26.84375 C 302.207031 27.808594 303.054688 28.792969 303.878906 29.796875 C 304.707031 30.800781 305.503906 31.828125 306.28125 32.871094 C 307.054688 33.914062 307.800781 34.976562 308.523438 36.058594 C 309.246094 37.140625 309.941406 38.238281 310.609375 39.351562 C 311.28125 40.46875 311.921875 41.601562 312.53125 42.746094 C 313.144531 43.894531 313.730469 45.054688 314.285156 46.230469 C 314.84375 47.40625 315.367188 48.59375 315.867188 49.792969 C 316.363281 50.996094 316.832031 52.207031 317.269531 53.433594 C 317.707031 54.65625 318.117188 55.890625 318.492188 57.136719 C 318.871094 58.378906 319.21875 59.632812 319.53125 60.894531 C 319.847656 62.15625 320.132812 63.421875 320.386719 64.699219 C 320.640625 65.972656 320.863281 67.253906 321.054688 68.539062 C 321.246094 69.828125 321.402344 71.117188 321.53125 72.410156 C 321.660156 73.703125 321.753906 75 321.816406 76.300781 C 321.882812 77.597656 321.914062 78.898438 321.914062 80.199219 L 321.914062 239.09375 C 321.914062 240.394531 321.882812 241.691406 321.816406 242.992188 C 321.753906 244.289062 321.660156 245.585938 321.53125 246.878906 C 321.402344 248.175781 321.246094 249.464844 321.054688 250.75 C 320.863281 252.035156 320.640625 253.316406 320.386719 254.59375 C 320.132812 255.867188 319.847656 257.136719 319.53125 258.398438 C 319.21875 259.660156 318.871094 260.910156 318.492188 262.15625 C 318.117188 263.398438 317.707031 264.632812 317.269531 265.859375 C 316.832031 267.082031 316.363281 268.296875 315.867188 269.496094 C 315.367188 270.699219 314.84375 271.886719 314.285156 273.0625 C 313.730469 274.238281 313.144531 275.398438 312.53125 276.542969 C 311.921875 277.691406 311.28125 278.820312 310.609375 279.9375 C 309.941406 281.050781 309.246094 282.152344 308.523438 283.230469 C 307.800781 284.3125 307.054688 285.375 306.277344 286.421875 C 305.503906 287.464844 304.707031 288.488281 303.878906 289.496094 C 303.054688 290.5 302.207031 291.484375 301.332031 292.445312 C 300.460938 293.410156 299.5625 294.351562 298.644531 295.269531 C 297.726562 296.191406 296.785156 297.085938 295.820312 297.960938 C 294.855469 298.832031 293.871094 299.683594 292.867188 300.507812 C 291.863281 301.332031 290.835938 302.132812 289.792969 302.90625 C 288.75 303.679688 287.6875 304.429688 286.605469 305.152344 C 285.523438 305.875 284.425781 306.570312 283.3125 307.238281 C 282.195312 307.90625 281.0625 308.546875 279.917969 309.160156 C 278.769531 309.773438 277.609375 310.355469 276.433594 310.914062 C 275.257812 311.46875 274.070312 311.996094 272.871094 312.492188 C 271.667969 312.992188 270.457031 313.457031 269.230469 313.898438 C 268.007812 314.335938 266.773438 314.742188 265.527344 315.121094 C 264.285156 315.496094 263.03125 315.84375 261.769531 316.160156 C 260.507812 316.476562 259.242188 316.761719 257.964844 317.015625 C 256.691406 317.269531 255.410156 317.488281 254.125 317.679688 C 252.835938 317.871094 251.546875 318.03125 250.253906 318.160156 C 248.960938 318.285156 247.664062 318.382812 246.363281 318.445312 C 245.066406 318.507812 243.765625 318.539062 242.464844 318.539062 L 83.570312 318.539062 C 82.269531 318.539062 80.972656 318.507812 79.671875 318.445312 C 78.375 318.382812 77.078125 318.285156 75.785156 318.160156 C 74.488281 318.03125 73.199219 317.871094 71.914062 317.679688 C 70.628906 317.488281 69.347656 317.269531 68.070312 317.015625 C 66.796875 316.761719 65.527344 316.476562 64.265625 316.160156 C 63.003906 315.84375 61.753906 315.496094 60.507812 315.121094 C 59.265625 314.742188 58.03125 314.335938 56.804688 313.898438 C 55.582031 313.457031 54.367188 312.992188 53.167969 312.492188 C 51.964844 311.996094 50.777344 311.46875 49.601562 310.914062 C 48.425781 310.355469 47.265625 309.773438 46.121094 309.160156 C 44.972656 308.546875 43.84375 307.90625 42.726562 307.238281 C 41.613281 306.570312 40.511719 305.875 39.433594 305.152344 C 38.351562 304.429688 37.289062 303.679688 36.242188 302.90625 C 35.199219 302.132812 34.175781 301.332031 33.167969 300.507812 C 32.164062 299.683594 31.179688 298.832031 30.21875 297.960938 C 29.253906 297.085938 28.3125 296.191406 27.394531 295.269531 C 26.472656 294.351562 25.578125 293.410156 24.703125 292.445312 C 23.832031 291.484375 22.980469 290.5 22.15625 289.496094 C 21.332031 288.488281 20.53125 287.464844 19.757812 286.421875 C 18.984375 285.375 18.234375 284.3125 17.511719 283.230469 C 16.789062 282.152344 16.09375 281.050781 15.425781 279.9375 C 14.757812 278.820312 14.117188 277.691406 13.503906 276.542969 C 12.890625 275.398438 12.308594 274.238281 11.75 273.0625 C 11.195312 271.886719 10.667969 270.699219 10.171875 269.496094 C 9.671875 268.296875 9.207031 267.082031 8.765625 265.859375 C 8.328125 264.632812 7.921875 263.398438 7.542969 262.15625 C 7.167969 260.910156 6.820312 259.660156 6.503906 258.398438 C 6.1875 257.136719 5.902344 255.867188 5.648438 254.59375 C 5.394531 253.316406 5.175781 252.035156 4.984375 250.75 C 4.792969 249.464844 4.632812 248.175781 4.503906 246.878906 C 4.378906 245.585938 4.28125 244.289062 4.21875 242.992188 C 4.15625 241.691406 4.125 240.394531 4.125 239.09375 L 4.125 80.199219 C 4.125 78.898438 4.15625 77.597656 4.21875 76.300781 C 4.28125 75 4.378906 73.703125 4.503906 72.410156 C 4.632812 71.117188 4.792969 69.828125 4.984375 68.539062 C 5.175781 67.253906 5.394531 65.972656 5.648438 64.699219 C 5.902344 63.421875 6.1875 62.15625 6.503906 60.894531 C 6.820312 59.632812 7.167969 58.378906 7.542969 57.136719 C 7.921875 55.890625 8.328125 54.65625 8.765625 53.433594 C 9.207031 52.207031 9.671875 50.996094 10.171875 49.792969 C 10.667969 48.59375 11.195312 47.40625 11.75 46.230469 C 12.308594 45.054688 12.890625 43.894531 13.503906 42.746094 C 14.117188 41.601562 14.757812 40.46875 15.425781 39.351562 C 16.09375 38.238281 16.789062 37.140625 17.511719 36.058594 C 18.234375 34.976562 18.984375 33.914062 19.757812 32.871094 C 20.53125 31.828125 21.332031 30.800781 22.15625 29.796875 C 22.980469 28.792969 23.832031 27.808594 24.703125 26.84375 C 25.578125 25.878906 26.472656 24.9375 27.394531 24.019531 C 28.3125 23.101562 29.253906 22.203125 30.21875 21.332031 C 31.179688 20.457031 32.164062 19.609375 33.167969 18.785156 C 34.175781 17.957031 35.199219 17.160156 36.242188 16.382812 C 37.289062 15.609375 38.351562 14.863281 39.433594 14.140625 C 40.511719 13.417969 41.613281 12.722656 42.726562 12.054688 C 43.84375 11.382812 44.972656 10.742188 46.121094 10.132812 C 47.265625 9.519531 48.425781 8.933594 49.601562 8.378906 C 50.777344 7.820312 51.964844 7.296875 53.167969 6.796875 C 54.367188 6.300781 55.582031 5.832031 56.804688 5.394531 C 58.03125 4.957031 59.265625 4.546875 60.507812 4.171875 C 61.753906 3.792969 63.003906 3.445312 64.265625 3.132812 C 65.527344 2.816406 66.796875 2.53125 68.070312 2.277344 C 69.347656 2.023438 70.628906 1.800781 71.914062 1.609375 C 73.199219 1.417969 74.488281 1.261719 75.785156 1.132812 C 77.078125 1.003906 78.375 0.910156 79.671875 0.847656 C 80.972656 0.78125 82.269531 0.75 83.570312 0.75 Z M 83.570312 0.75 " fill-opacity="1" fill-rule="nonzero"/></g><g clip-path="url(#d308468e5b)"><path fill="#22a472" d="M 454.328125 0.75 L 613.222656 0.75 C 614.523438 0.75 615.820312 0.78125 617.121094 0.847656 C 618.417969 0.910156 619.714844 1.003906 621.007812 1.132812 C 622.304688 1.261719 623.59375 1.417969 624.878906 1.609375 C 626.164062 1.800781 627.445312 2.023438 628.722656 2.277344 C 629.996094 2.53125 631.265625 2.816406 632.527344 3.132812 C 633.789062 3.445312 635.039062 3.792969 636.285156 4.171875 C 637.527344 4.546875 638.761719 4.957031 639.988281 5.394531 C 641.210938 5.832031 642.425781 6.300781 643.625 6.796875 C 644.828125 7.296875 646.015625 7.820312 647.191406 8.378906 C 648.367188 8.933594 649.527344 9.519531 650.671875 10.132812 C 651.820312 10.742188 652.953125 11.382812 654.066406 12.054688 C 655.183594 12.722656 656.28125 13.417969 657.359375 14.140625 C 658.441406 14.863281 659.503906 15.609375 660.550781 16.382812 C 661.59375 17.160156 662.617188 17.957031 663.625 18.785156 C 664.628906 19.609375 665.613281 20.457031 666.574219 21.332031 C 667.539062 22.203125 668.480469 23.101562 669.398438 24.019531 C 670.320312 24.9375 671.214844 25.878906 672.089844 26.84375 C 672.960938 27.808594 673.8125 28.792969 674.636719 29.796875 C 675.460938 30.800781 676.261719 31.828125 677.035156 32.871094 C 677.808594 33.914062 678.558594 34.976562 679.28125 36.058594 C 680.003906 37.140625 680.699219 38.238281 681.367188 39.351562 C 682.035156 40.46875 682.675781 41.601562 683.289062 42.746094 C 683.902344 43.894531 684.484375 45.054688 685.042969 46.230469 C 685.597656 47.40625 686.125 48.59375 686.621094 49.792969 C 687.121094 50.996094 687.585938 52.207031 688.027344 53.433594 C 688.464844 54.65625 688.871094 55.890625 689.25 57.136719 C 689.625 58.378906 689.972656 59.632812 690.289062 60.894531 C 690.605469 62.15625 690.890625 63.421875 691.144531 64.699219 C 691.398438 65.972656 691.621094 67.253906 691.808594 68.539062 C 692 69.828125 692.160156 71.117188 692.289062 72.410156 C 692.414062 73.703125 692.511719 75 692.574219 76.300781 C 692.636719 77.597656 692.671875 78.898438 692.671875 80.199219 L 692.671875 239.09375 C 692.671875 240.394531 692.636719 241.691406 692.574219 242.992188 C 692.511719 244.289062 692.414062 245.585938 692.289062 246.878906 C 692.160156 248.175781 692 249.464844 691.808594 250.75 C 691.621094 252.035156 691.398438 253.316406 691.144531 254.59375 C 690.890625 255.867188 690.605469 257.136719 690.289062 258.398438 C 689.972656 259.660156 689.625 260.910156 689.25 262.15625 C 688.871094 263.398438 688.464844 264.632812 688.027344 265.859375 C 687.585938 267.082031 687.121094 268.296875 686.621094 269.496094 C 686.125 270.699219 685.597656 271.886719 685.042969 273.0625 C 684.484375 274.238281 683.902344 275.398438 683.289062 276.542969 C 682.675781 277.691406 682.035156 278.820312 681.367188 279.9375 C 680.699219 281.050781 680.003906 282.152344 679.28125 283.230469 C 678.558594 284.3125 677.808594 285.375 677.035156 286.421875 C 676.261719 287.464844 675.460938 288.488281 674.636719 289.496094 C 673.8125 290.5 672.960938 291.484375 672.089844 292.445312 C 671.214844 293.410156 670.320312 294.351562 669.398438 295.269531 C 668.480469 296.191406 667.539062 297.085938 666.574219 297.960938 C 665.613281 298.832031 664.628906 299.683594 663.625 300.507812 C 662.617188 301.332031 661.59375 302.132812 660.550781 302.90625 C 659.503906 303.679688 658.441406 304.429688 657.359375 305.152344 C 656.28125 305.875 655.183594 306.570312 654.066406 307.238281 C 652.953125 307.90625 651.820312 308.546875 650.671875 309.160156 C 649.527344 309.773438 648.367188 310.355469 647.191406 310.914062 C 646.015625 311.46875 644.828125 311.996094 643.625 312.492188 C 642.425781 312.992188 641.210938 313.457031 639.988281 313.898438 C 638.761719 314.335938 637.527344 314.742188 636.285156 315.121094 C 635.039062 315.496094 633.789062 315.84375 632.527344 316.160156 C 631.265625 316.476562 629.996094 316.761719 628.722656 317.015625 C 627.445312 317.269531 626.164062 317.488281 624.878906 317.679688 C 623.59375 317.871094 622.304688 318.03125 621.007812 318.160156 C 619.714844 318.285156 618.417969 318.382812 617.121094 318.445312 C 615.820312 318.507812 614.523438 318.539062 613.222656 318.539062 L 454.328125 318.539062 C 453.027344 318.539062 451.726562 318.507812 450.429688 318.445312 C 449.128906 318.382812 447.832031 318.285156 446.539062 318.160156 C 445.246094 318.03125 443.957031 317.871094 442.667969 317.679688 C 441.382812 317.488281 440.101562 317.269531 438.828125 317.015625 C 437.550781 316.761719 436.285156 316.476562 435.023438 316.160156 C 433.761719 315.84375 432.507812 315.496094 431.265625 315.121094 C 430.019531 314.742188 428.785156 314.335938 427.5625 313.898438 C 426.335938 313.457031 425.125 312.992188 423.921875 312.492188 C 422.722656 311.996094 421.535156 311.46875 420.359375 310.914062 C 419.183594 310.355469 418.023438 309.773438 416.875 309.160156 C 415.730469 308.546875 414.597656 307.90625 413.484375 307.238281 C 412.367188 306.570312 411.269531 305.875 410.1875 305.152344 C 409.105469 304.429688 408.042969 303.679688 407 302.90625 C 405.957031 302.132812 404.929688 301.332031 403.925781 300.507812 C 402.921875 299.683594 401.9375 298.832031 400.972656 297.960938 C 400.007812 297.085938 399.066406 296.191406 398.148438 295.269531 C 397.230469 294.351562 396.332031 293.410156 395.460938 292.445312 C 394.585938 291.484375 393.738281 290.5 392.914062 289.496094 C 392.089844 288.488281 391.289062 287.464844 390.515625 286.421875 C 389.738281 285.375 388.992188 284.3125 388.269531 283.230469 C 387.546875 282.152344 386.851562 281.050781 386.183594 279.9375 C 385.515625 278.820312 384.875 277.691406 384.261719 276.542969 C 383.648438 275.398438 383.0625 274.238281 382.507812 273.0625 C 381.949219 271.886719 381.425781 270.699219 380.925781 269.496094 C 380.429688 268.296875 379.960938 267.082031 379.523438 265.859375 C 379.085938 264.632812 378.675781 263.398438 378.300781 262.15625 C 377.921875 260.910156 377.574219 259.660156 377.261719 258.398438 C 376.945312 257.136719 376.660156 255.867188 376.40625 254.59375 C 376.152344 253.316406 375.929688 252.035156 375.738281 250.75 C 375.546875 249.464844 375.390625 248.175781 375.261719 246.878906 C 375.132812 245.585938 375.039062 244.289062 374.976562 242.992188 C 374.910156 241.691406 374.878906 240.394531 374.878906 239.09375 L 374.878906 80.199219 C 374.878906 78.898438 374.910156 77.597656 374.976562 76.300781 C 375.039062 75 375.132812 73.703125 375.261719 72.410156 C 375.390625 71.117188 375.546875 69.828125 375.738281 68.539062 C 375.929688 67.253906 376.152344 65.972656 376.40625 64.699219 C 376.660156 63.421875 376.945312 62.15625 377.261719 60.894531 C 377.574219 59.632812 377.921875 58.378906 378.300781 57.136719 C 378.675781 55.890625 379.085938 54.65625 379.523438 53.433594 C 379.960938 52.207031 380.429688 50.996094 380.925781 49.792969 C 381.425781 48.59375 381.949219 47.40625 382.507812 46.230469 C 383.0625 45.054688 383.648438 43.894531 384.261719 42.746094 C 384.875 41.601562 385.515625 40.46875 386.183594 39.351562 C 386.851562 38.238281 387.546875 37.140625 388.269531 36.058594 C 388.992188 34.976562 389.738281 33.914062 390.515625 32.871094 C 391.289062 31.828125 392.089844 30.800781 392.914062 29.796875 C 393.738281 28.792969 394.585938 27.808594 395.460938 26.84375 C 396.332031 25.878906 397.230469 24.9375 398.148438 24.019531 C 399.066406 23.101562 400.007812 22.203125 400.972656 21.332031 C 401.9375 20.457031 402.921875 19.609375 403.925781 18.785156 C 404.929688 17.957031 405.957031 17.160156 407 16.382812 C 408.042969 15.609375 409.105469 14.863281 410.1875 14.140625 C 411.269531 13.417969 412.367188 12.722656 413.484375 12.054688 C 414.597656 11.382812 415.730469 10.742188 416.875 10.132812 C 418.023438 9.519531 419.183594 8.933594 420.359375 8.378906 C 421.535156 7.820312 422.722656 7.296875 423.921875 6.796875 C 425.125 6.300781 426.335938 5.832031 427.5625 5.394531 C 428.785156 4.957031 430.019531 4.546875 431.265625 4.171875 C 432.507812 3.792969 433.761719 3.445312 435.023438 3.132812 C 436.285156 2.816406 437.550781 2.53125 438.828125 2.277344 C 440.101562 2.023438 441.382812 1.800781 442.667969 1.609375 C 443.957031 1.417969 445.246094 1.261719 446.539062 1.132812 C 447.832031 1.003906 449.128906 0.910156 450.429688 0.847656 C 451.726562 0.78125 453.027344 0.75 454.328125 0.75 Z M 454.328125 0.75 " fill-opacity="1" fill-rule="nonzero"/></g><g clip-path="url(#98e06caa4a)"><path fill="#22a472" d="M 83.570312 371.507812 L 242.464844 371.507812 C 243.765625 371.507812 245.066406 371.539062 246.363281 371.601562 C 247.664062 371.664062 248.960938 371.761719 250.253906 371.886719 C 251.546875 372.015625 252.835938 372.175781 254.125 372.367188 C 255.410156 372.558594 256.691406 372.777344 257.964844 373.03125 C 259.242188 373.285156 260.507812 373.570312 261.769531 373.886719 C 263.03125 374.203125 264.285156 374.550781 265.527344 374.925781 C 266.773438 375.304688 268.007812 375.710938 269.230469 376.148438 C 270.457031 376.589844 271.667969 377.054688 272.871094 377.554688 C 274.070312 378.050781 275.257812 378.578125 276.433594 379.132812 C 277.609375 379.691406 278.769531 380.273438 279.917969 380.886719 C 281.0625 381.5 282.195312 382.140625 283.3125 382.808594 C 284.425781 383.476562 285.523438 384.171875 286.605469 384.894531 C 287.6875 385.617188 288.75 386.367188 289.792969 387.140625 C 290.835938 387.914062 291.863281 388.714844 292.867188 389.539062 C 293.871094 390.363281 294.855469 391.214844 295.820312 392.085938 C 296.785156 392.960938 297.726562 393.855469 298.644531 394.777344 C 299.5625 395.695312 300.460938 396.636719 301.332031 397.601562 C 302.207031 398.5625 303.054688 399.546875 303.878906 400.550781 C 304.707031 401.558594 305.503906 402.582031 306.28125 403.625 C 307.054688 404.671875 307.800781 405.734375 308.523438 406.816406 C 309.246094 407.894531 309.941406 408.996094 310.609375 410.109375 C 311.28125 411.226562 311.921875 412.355469 312.53125 413.503906 C 313.144531 414.648438 313.730469 415.808594 314.285156 416.984375 C 314.84375 418.160156 315.367188 419.347656 315.867188 420.550781 C 316.363281 421.75 316.832031 422.964844 317.269531 424.1875 C 317.707031 425.414062 318.117188 426.648438 318.492188 427.890625 C 318.871094 429.136719 319.21875 430.386719 319.53125 431.648438 C 319.847656 432.910156 320.132812 434.179688 320.386719 435.453125 C 320.640625 436.730469 320.863281 438.011719 321.054688 439.296875 C 321.246094 440.582031 321.402344 441.871094 321.53125 443.167969 C 321.660156 444.460938 321.753906 445.757812 321.816406 447.054688 C 321.882812 448.355469 321.914062 449.652344 321.914062 450.953125 L 321.914062 609.847656 C 321.914062 611.148438 321.882812 612.449219 321.816406 613.746094 C 321.753906 615.046875 321.660156 616.34375 321.53125 617.636719 C 321.402344 618.929688 321.246094 620.21875 321.054688 621.507812 C 320.863281 622.792969 320.640625 624.074219 320.386719 625.347656 C 320.132812 626.625 319.847656 627.890625 319.53125 629.152344 C 319.21875 630.414062 318.871094 631.667969 318.492188 632.910156 C 318.117188 634.15625 317.707031 635.390625 317.269531 636.613281 C 316.832031 637.839844 316.363281 639.050781 315.867188 640.253906 C 315.367188 641.453125 314.84375 642.640625 314.285156 643.816406 C 313.730469 644.992188 313.144531 646.152344 312.53125 647.300781 C 311.921875 648.445312 311.28125 649.578125 310.609375 650.695312 C 309.941406 651.808594 309.246094 652.90625 308.523438 653.988281 C 307.800781 655.070312 307.054688 656.132812 306.277344 657.175781 C 305.503906 658.21875 304.707031 659.246094 303.878906 660.25 C 303.054688 661.253906 302.207031 662.238281 301.332031 663.203125 C 300.460938 664.167969 299.5625 665.109375 298.644531 666.027344 C 297.726562 666.945312 296.785156 667.84375 295.820312 668.714844 C 294.855469 669.589844 293.871094 670.4375 292.867188 671.261719 C 291.863281 672.089844 290.835938 672.886719 289.792969 673.664062 C 288.75 674.4375 287.6875 675.183594 286.605469 675.90625 C 285.523438 676.628906 284.425781 677.324219 283.3125 677.992188 C 282.195312 678.664062 281.0625 679.304688 279.917969 679.914062 C 278.769531 680.527344 277.609375 681.113281 276.433594 681.667969 C 275.257812 682.226562 274.070312 682.75 272.871094 683.25 C 271.667969 683.746094 270.457031 684.214844 269.230469 684.652344 C 268.007812 685.089844 266.773438 685.5 265.527344 685.875 C 264.285156 686.253906 263.03125 686.601562 261.769531 686.914062 C 260.507812 687.230469 259.242188 687.515625 257.964844 687.769531 C 256.691406 688.023438 255.410156 688.246094 254.125 688.4375 C 252.835938 688.628906 251.546875 688.785156 250.253906 688.914062 C 248.960938 689.042969 247.664062 689.136719 246.363281 689.203125 C 245.066406 689.265625 243.765625 689.296875 242.464844 689.296875 L 83.570312 689.296875 C 82.269531 689.296875 80.972656 689.265625 79.671875 689.203125 C 78.375 689.136719 77.078125 689.042969 75.785156 688.914062 C 74.488281 688.785156 73.199219 688.628906 71.914062 688.4375 C 70.628906 688.246094 69.347656 688.023438 68.070312 687.769531 C 66.796875 687.515625 65.527344 687.230469 64.265625 686.914062 C 63.003906 686.601562 61.753906 686.253906 60.507812 685.875 C 59.265625 685.5 58.03125 685.089844 56.804688 684.652344 C 55.582031 684.214844 54.367188 683.746094 53.167969 683.25 C 51.964844 682.75 50.777344 682.226562 49.601562 681.667969 C 48.425781 681.113281 47.265625 680.527344 46.121094 679.914062 C 44.972656 679.304688 43.84375 678.664062 42.726562 677.992188 C 41.613281 677.324219 40.511719 676.628906 39.433594 675.90625 C 38.351562 675.183594 37.289062 674.4375 36.242188 673.660156 C 35.199219 672.886719 34.175781 672.085938 33.167969 671.261719 C 32.164062 670.4375 31.179688 669.589844 30.21875 668.714844 C 29.253906 667.84375 28.3125 666.945312 27.394531 666.027344 C 26.472656 665.109375 25.578125 664.167969 24.703125 663.203125 C 23.832031 662.238281 22.980469 661.253906 22.15625 660.25 C 21.332031 659.246094 20.53125 658.21875 19.757812 657.175781 C 18.984375 656.132812 18.234375 655.070312 17.511719 653.988281 C 16.789062 652.90625 16.09375 651.808594 15.425781 650.695312 C 14.757812 649.578125 14.117188 648.445312 13.503906 647.300781 C 12.890625 646.152344 12.308594 644.992188 11.75 643.816406 C 11.195312 642.640625 10.667969 641.453125 10.171875 640.253906 C 9.671875 639.050781 9.207031 637.839844 8.765625 636.613281 C 8.328125 635.390625 7.921875 634.15625 7.542969 632.910156 C 7.167969 631.667969 6.820312 630.414062 6.503906 629.152344 C 6.1875 627.890625 5.902344 626.625 5.648438 625.347656 C 5.394531 624.074219 5.175781 622.792969 4.984375 621.507812 C 4.792969 620.21875 4.632812 618.929688 4.503906 617.636719 C 4.378906 616.34375 4.28125 615.046875 4.21875 613.746094 C 4.15625 612.449219 4.125 611.148438 4.125 609.847656 L 4.125 450.953125 C 4.125 449.652344 4.15625 448.355469 4.21875 447.054688 C 4.28125 445.757812 4.378906 444.460938 4.503906 443.167969 C 4.632812 441.871094 4.792969 440.582031 4.984375 439.296875 C 5.175781 438.011719 5.394531 436.730469 5.648438 435.453125 C 5.902344 434.179688 6.1875 432.910156 6.503906 431.648438 C 6.820312 430.386719 7.167969 429.136719 7.542969 427.890625 C 7.921875 426.648438 8.328125 425.414062 8.765625 424.1875 C 9.207031 422.964844 9.671875 421.75 10.171875 420.550781 C 10.667969 419.347656 11.195312 418.160156 11.75 416.984375 C 12.308594 415.808594 12.890625 414.648438 13.503906 413.503906 C 14.117188 412.355469 14.757812 411.226562 15.425781 410.109375 C 16.09375 408.996094 16.789062 407.894531 17.511719 406.816406 C 18.234375 405.734375 18.984375 404.671875 19.757812 403.625 C 20.53125 402.582031 21.332031 401.558594 22.15625 400.550781 C 22.980469 399.546875 23.832031 398.5625 24.703125 397.601562 C 25.578125 396.636719 26.472656 395.695312 27.394531 394.777344 C 28.3125 393.855469 29.253906 392.960938 30.21875 392.085938 C 31.179688 391.214844 32.164062 390.363281 33.167969 389.539062 C 34.175781 388.714844 35.199219 387.914062 36.242188 387.140625 C 37.289062 386.367188 38.351562 385.617188 39.433594 384.894531 C 40.511719 384.171875 41.613281 383.476562 42.726562 382.808594 C 43.84375 382.140625 44.972656 381.5 46.121094 380.886719 C 47.265625 380.273438 48.425781 379.691406 49.601562 379.132812 C 50.777344 378.578125 51.964844 378.050781 53.167969 377.554688 C 54.367188 377.054688 55.582031 376.589844 56.804688 376.148438 C 58.03125 375.710938 59.265625 375.304688 60.507812 374.925781 C 61.753906 374.550781 63.003906 374.203125 64.265625 373.886719 C 65.527344 373.570312 66.796875 373.285156 68.070312 373.03125 C 69.347656 372.777344 70.628906 372.558594 71.914062 372.367188 C 73.199219 372.175781 74.488281 372.015625 75.785156 371.886719 C 77.078125 371.761719 78.375 371.664062 79.671875 371.601562 C 80.972656 371.539062 82.269531 371.507812 83.570312 371.507812 Z M 83.570312 371.507812 " fill-opacity="1" fill-rule="nonzero"/></g><g clip-path="url(#60b64ae099)"><path fill="#22a472" d="M 454.328125 371.507812 L 613.222656 371.507812 C 614.523438 371.507812 615.820312 371.539062 617.121094 371.601562 C 618.417969 371.664062 619.714844 371.761719 621.007812 371.886719 C 622.304688 372.015625 623.59375 372.175781 624.878906 372.367188 C 626.164062 372.558594 627.445312 372.777344 628.722656 373.03125 C 629.996094 373.285156 631.265625 373.570312 632.527344 373.886719 C 633.789062 374.203125 635.039062 374.550781 636.285156 374.925781 C 637.527344 375.304688 638.761719 375.710938 639.988281 376.148438 C 641.210938 376.589844 642.425781 377.054688 643.625 377.554688 C 644.828125 378.050781 646.015625 378.578125 647.191406 379.132812 C 648.367188 379.691406 649.527344 380.273438 650.671875 380.886719 C 651.820312 381.5 652.953125 382.140625 654.066406 382.808594 C 655.183594 383.476562 656.28125 384.171875 657.359375 384.894531 C 658.441406 385.617188 659.503906 386.367188 660.550781 387.140625 C 661.59375 387.914062 662.617188 388.714844 663.625 389.539062 C 664.628906 390.363281 665.613281 391.214844 666.574219 392.085938 C 667.539062 392.960938 668.480469 393.855469 669.398438 394.777344 C 670.320312 395.695312 671.214844 396.636719 672.089844 397.601562 C 672.960938 398.5625 673.8125 399.546875 674.636719 400.550781 C 675.460938 401.558594 676.261719 402.582031 677.035156 403.625 C 677.808594 404.671875 678.558594 405.734375 679.28125 406.816406 C 680.003906 407.894531 680.699219 408.996094 681.367188 410.109375 C 682.035156 411.226562 682.675781 412.355469 683.289062 413.503906 C 683.902344 414.648438 684.484375 415.808594 685.042969 416.984375 C 685.597656 418.160156 686.125 419.347656 686.621094 420.550781 C 687.121094 421.75 687.585938 422.964844 688.027344 424.1875 C 688.464844 425.414062 688.871094 426.648438 689.25 427.890625 C 689.625 429.136719 689.972656 430.386719 690.289062 431.648438 C 690.605469 432.910156 690.890625 434.179688 691.144531 435.453125 C 691.398438 436.730469 691.621094 438.011719 691.808594 439.296875 C 692 440.582031 692.160156 441.871094 692.289062 443.167969 C 692.414062 444.460938 692.511719 445.757812 692.574219 447.054688 C 692.636719 448.355469 692.671875 449.652344 692.671875 450.953125 L 692.671875 609.847656 C 692.671875 611.148438 692.636719 612.449219 692.574219 613.746094 C 692.511719 615.046875 692.414062 616.34375 692.289062 617.636719 C 692.160156 618.929688 692 620.21875 691.808594 621.507812 C 691.621094 622.792969 691.398438 624.074219 691.144531 625.347656 C 690.890625 626.625 690.605469 627.890625 690.289062 629.152344 C 689.972656 630.414062 689.625 631.667969 689.25 632.910156 C 688.871094 634.15625 688.464844 635.390625 688.027344 636.613281 C 687.585938 637.839844 687.121094 639.050781 686.621094 640.253906 C 686.125 641.453125 685.597656 642.640625 685.042969 643.816406 C 684.484375 644.992188 683.902344 646.152344 683.289062 647.300781 C 682.675781 648.445312 682.035156 649.578125 681.367188 650.695312 C 680.699219 651.808594 680.003906 652.90625 679.28125 653.988281 C 678.558594 655.070312 677.808594 656.132812 677.035156 657.175781 C 676.261719 658.21875 675.460938 659.246094 674.636719 660.25 C 673.8125 661.253906 672.960938 662.238281 672.089844 663.203125 C 671.214844 664.167969 670.320312 665.109375 669.398438 666.027344 C 668.480469 666.945312 667.539062 667.84375 666.574219 668.714844 C 665.613281 669.589844 664.628906 670.4375 663.625 671.261719 C 662.617188 672.089844 661.59375 672.886719 660.550781 673.664062 C 659.503906 674.4375 658.441406 675.183594 657.359375 675.90625 C 656.28125 676.628906 655.183594 677.324219 654.066406 677.992188 C 652.953125 678.664062 651.820312 679.304688 650.671875 679.914062 C 649.527344 680.527344 648.367188 681.113281 647.191406 681.667969 C 646.015625 682.226562 644.828125 682.75 643.625 683.25 C 642.425781 683.746094 641.210938 684.214844 639.988281 684.652344 C 638.761719 685.089844 637.527344 685.5 636.285156 685.875 C 635.039062 686.253906 633.789062 686.601562 632.527344 686.914062 C 631.265625 687.230469 629.996094 687.515625 628.722656 687.769531 C 627.445312 688.023438 626.164062 688.246094 624.878906 688.4375 C 623.59375 688.628906 622.304688 688.785156 621.007812 688.914062 C 619.714844 689.042969 618.417969 689.136719 617.121094 689.203125 C 615.820312 689.265625 614.523438 689.296875 613.222656 689.296875 L 454.328125 689.296875 C 453.027344 689.296875 451.726562 689.265625 450.429688 689.203125 C 449.128906 689.136719 447.832031 689.042969 446.539062 688.914062 C 445.246094 688.785156 443.957031 688.628906 442.667969 688.4375 C 441.382812 688.246094 440.101562 688.023438 438.828125 687.769531 C 437.550781 687.515625 436.285156 687.230469 435.023438 686.914062 C 433.761719 686.601562 432.507812 686.253906 431.265625 685.875 C 430.019531 685.5 428.785156 685.089844 427.5625 684.652344 C 426.335938 684.214844 425.125 683.746094 423.921875 683.25 C 422.722656 682.75 421.535156 682.226562 420.359375 681.667969 C 419.183594 681.113281 418.023438 680.527344 416.875 679.914062 C 415.730469 679.304688 414.597656 678.664062 413.484375 677.992188 C 412.367188 677.324219 411.269531 676.628906 410.1875 675.90625 C 409.105469 675.183594 408.042969 674.4375 407 673.660156 C 405.957031 672.886719 404.929688 672.085938 403.925781 671.261719 C 402.921875 670.4375 401.9375 669.589844 400.972656 668.714844 C 400.007812 667.84375 399.066406 666.945312 398.148438 666.027344 C 397.230469 665.109375 396.332031 664.167969 395.460938 663.203125 C 394.585938 662.238281 393.738281 661.253906 392.914062 660.25 C 392.089844 659.246094 391.289062 658.21875 390.515625 657.175781 C 389.738281 656.132812 388.992188 655.070312 388.269531 653.988281 C 387.546875 652.90625 386.851562 651.808594 386.183594 650.695312 C 385.515625 649.578125 384.875 648.445312 384.261719 647.300781 C 383.648438 646.152344 383.0625 644.992188 382.507812 643.816406 C 381.949219 642.640625 381.425781 641.453125 380.925781 640.253906 C 380.429688 639.050781 379.960938 637.839844 379.523438 636.613281 C 379.085938 635.390625 378.675781 634.15625 378.300781 632.910156 C 377.921875 631.667969 377.574219 630.414062 377.261719 629.152344 C 376.945312 627.890625 376.660156 626.625 376.40625 625.347656 C 376.152344 624.074219 375.929688 622.792969 375.738281 621.507812 C 375.546875 620.21875 375.390625 618.929688 375.261719 617.636719 C 375.132812 616.34375 375.039062 615.046875 374.976562 613.746094 C 374.910156 612.449219 374.878906 611.148438 374.878906 609.847656 L 374.878906 450.953125 C 374.878906 449.652344 374.910156 448.355469 374.976562 447.054688 C 375.039062 445.757812 375.132812 444.460938 375.261719 443.167969 C 375.390625 441.871094 375.546875 440.582031 375.738281 439.296875 C 375.929688 438.011719 376.152344 436.730469 376.40625 435.453125 C 376.660156 434.179688 376.945312 432.910156 377.261719 431.648438 C 377.574219 430.386719 377.921875 429.136719 378.300781 427.890625 C 378.675781 426.648438 379.085938 425.414062 379.523438 424.1875 C 379.960938 422.964844 380.429688 421.75 380.925781 420.550781 C 381.425781 419.347656 381.949219 418.160156 382.507812 416.984375 C 383.0625 415.808594 383.648438 414.648438 384.261719 413.503906 C 384.875 412.355469 385.515625 411.226562 386.183594 410.109375 C 386.851562 408.996094 387.546875 407.894531 388.269531 406.816406 C 388.992188 405.734375 389.738281 404.671875 390.515625 403.625 C 391.289062 402.582031 392.089844 401.558594 392.914062 400.550781 C 393.738281 399.546875 394.585938 398.5625 395.460938 397.601562 C 396.332031 396.636719 397.230469 395.695312 398.148438 394.777344 C 399.066406 393.855469 400.007812 392.960938 400.972656 392.085938 C 401.9375 391.214844 402.921875 390.363281 403.925781 389.539062 C 404.929688 388.714844 405.957031 387.914062 407 387.140625 C 408.042969 386.367188 409.105469 385.617188 410.1875 384.894531 C 411.269531 384.171875 412.367188 383.476562 413.484375 382.808594 C 414.597656 382.140625 415.730469 381.5 416.875 380.886719 C 418.023438 380.273438 419.183594 379.691406 420.359375 379.132812 C 421.535156 378.578125 422.722656 378.050781 423.921875 377.554688 C 425.125 377.054688 426.335938 376.589844 427.5625 376.148438 C 428.785156 375.710938 430.019531 375.304688 431.265625 374.925781 C 432.507812 374.550781 433.761719 374.203125 435.023438 373.886719 C 436.285156 373.570312 437.550781 373.285156 438.828125 373.03125 C 440.101562 372.777344 441.382812 372.558594 442.667969 372.367188 C 443.957031 372.175781 445.246094 372.015625 446.539062 371.886719 C 447.832031 371.761719 449.128906 371.664062 450.429688 371.601562 C 451.726562 371.539062 453.027344 371.507812 454.328125 371.507812 Z M 454.328125 371.507812 " fill-opacity="1" fill-rule="nonzero"/></g><g mask="url(#cd0115781c)"><g transform="matrix(1, 0, 0, 1, 343, 448)"><g clip-path="url(#58fa752ed3)"><g clip-path="url(#422c56aa14)"><g clip-path="url(#5463b446cd)"><g transform="matrix(1, 0, 0, 1, 1, 0)"><g clip-path="url(#91f4787881)"><g clip-path="url(#49ccf9b560)"><g clip-path="url(#b626d719b2)"><path fill="#cbff8b" d="M 0.0273438 0.5 L 551.980469 0.5 L 551.980469 450.5 L 0.0273438 450.5 Z M 0.0273438 0.5 " fill-opacity="1" fill-rule="nonzero"/></g></g></g></g></g></g></g></g></g><g mask="url(#32d8b357a3)"><g transform="matrix(1, 0, 0, 1, 353, 486)"><g clip-path="url(#40612f26a3)"><g clip-path="url(#29e98aa2ba)"><g transform="matrix(1, 0, 0, 1, -0.000000000000056843, 0)"><g clip-path="url(#c81e25a56f)"><g fill="#192131" fill-opacity="1"><g transform="translate(0.549079, 298.983629)"><g><path d="M 24.390625 -71.0625 L 24.390625 -108.09375 L 177.65625 -176.296875 L 177.65625 -132.9375 L 71.96875 -89.890625 L 73.328125 -92.296875 L 73.328125 -86.875 L 71.96875 -88.984375 L 177.65625 -45.921875 L 177.65625 -2.859375 Z M 24.390625 -71.0625 "/></g></g><g transform="translate(208.173997, 298.983629)"><g><path d="M 114.71875 -234.875 L 42.453125 33.71875 L 3.3125 33.71875 L 75.578125 -234.875 Z M 114.71875 -234.875 "/></g></g><g transform="translate(326.214559, 298.983629)"><g><path d="M 183.234375 -71.0625 L 29.96875 -2.859375 L 29.96875 -45.921875 L 135.953125 -88.984375 L 134.453125 -86.875 L 134.453125 -92.296875 L 135.953125 -89.890625 L 29.96875 -132.9375 L 29.96875 -176.296875 L 183.234375 -108.09375 Z M 183.234375 -71.0625 "/></g></g></g></g></g></g></g></g></g></svg>