<?xml version="1.0" encoding="UTF-8"?>
<svg id="Layer_2" data-name="Layer 2" xmlns="http://www.w3.org/2000/svg" viewBox="0 0 155.84 39.27">
  <defs>
    <style>
      .cls-1 {
        fill: #231f20;
        stroke-width: 0px;
      }
    </style>
  </defs>
  <g id="Lager_1" data-name="Lager 1">
    <g>
      <path class="cls-1" d="M148.48,20.01c-6.21,0-10.67-3.52-10.67-8.3,0-4.51,4.34-8.46,10.94-8.46,2.42,0,4.4.5,6.32,1.32V1.26c-1.6-.49-3.79-.88-6.32-.88-9.24,0-15.28,5.17-15.28,11.6s5.33,11.16,14.3,11.16c2.69,0,5.39-.44,8.08-1.54l-1.21-2.69c-1.87.66-3.96,1.1-6.16,1.1"/>
      <rect class="cls-1" x="68.92" y=".66" width="3.9" height="22.31"/>
      <path class="cls-1" d="M101.85,3.85h-10.06v19.13h-3.96V3.85h-10.12s0-3.13,3.19-3.13h20.95v3.13Z"/>
      <path class="cls-1" d="M51.71,22.97h-3.19L37.14.66h4.34l8.8,17.2c.66-1.15,7.92-14.51,8.3-15.17,1.59-2.8,5.39-2.03,5.39-2.03l-12.26,22.31Z"/>
      <path class="cls-1" d="M109.27,6.92c1.15-2.25,4.12-4.01,7.7-4.01,4.84,0,8.41,3.19,8.41,6.32h-10.78c-.05,0-3.08.11-3.08,3.08h17.87v-.77c0-6.92-4.29-11.54-12.48-11.54-7.64,0-12.81,4.84-12.81,11.27s4.78,12.09,14.68,12.09c3.68,0,7.42-.99,9.73-2.31l-1.32-2.64c-1.87.88-4.73,1.7-7.42,1.76-5.44.05-9.51-2.42-10.67-5.66-.44-.93-1.65-4.18.17-7.58"/>
      <path class="cls-1" d="M18.89,3.24c.88-.88,1.81-1.76,2.8-2.53h-7.48c-9.9.38-7.92,8.63-7.48,10.17.05.11.05.17.11.28.38,1.21.77,2.36,1.26,3.52.44.93.82,1.81,1.32,2.75,0-.11.05-.22.11-.33,2.2-5.17,5.33-9.84,9.35-13.85"/>
      <path class="cls-1" d="M27.58.6c-1.04.6-1.98,1.32-2.69,1.81-.33.28-1.1.88-1.1.88-.82.77-1.65,1.54-2.47,2.31-3.68,3.74-6.6,8.02-8.63,12.81-.38.93-.77,1.87-1.04,2.8-.22.6-.44,1.21-.6,1.81h7.92c8.63,0,8.63-8.57,8.63-8.57V.6Z"/>
      <path class="cls-1" d="M7.89,21.71c-1.1-1.81-2.09-3.74-2.91-5.72-1.04-2.47-1.87-4.95-2.42-7.53C-2,18.47-.35,23.03,6.63,23.03h2.09c-.27-.44-.55-.88-.82-1.32"/>
    </g>
    <g>
      <path class="cls-1" d="M73.64,39.13h-.73l-1.18-6h.71l.93,5.08h.05l2.6-5.08h.78l-3.15,6Z"/>
      <path class="cls-1" d="M77.12,36.17c.3-1.82,1.57-3.12,3.11-3.12,1.29,0,2.36.94,2.02,2.95l-.05.34h-4.42c-.23,1.5.37,2.28,1.63,2.28.85,0,1.46-.45,1.78-.98l.61.21c-.39.75-1.29,1.41-2.49,1.41-1.66,0-2.49-1.27-2.19-3.09ZM81.6,35.73c.19-1.16-.39-2.04-1.46-2.04s-2.01.98-2.25,2.04h3.71Z"/>
      <path class="cls-1" d="M84.25,33.13h.67l-.15.92h.05c.33-.61,1.05-1.01,1.79-1.01.12,0,.27,0,.36.01l-.12.71c-.06,0-.23-.04-.41-.04-.93,0-1.7.64-1.85,1.54l-.63,3.88h-.69l.99-6Z"/>
      <path class="cls-1" d="M90.76,33.74h-1.26l-.63,3.83c-.12.75.27.98.74.98.18,0,.3-.03.41-.05l.05.63c-.15.05-.35.11-.64.11-.76,0-1.43-.51-1.27-1.49l.65-3.99h-.88l.1-.61h.88l.24-1.44h.69l-.24,1.44h1.26l-.1.61Z"/>
      <path class="cls-1" d="M92.43,33.13h.69l-.99,6h-.69l.99-6ZM92.51,31.58c0-.27.24-.49.52-.49s.52.23.51.51c0,.27-.24.49-.52.49s-.52-.23-.51-.51Z"/>
      <path class="cls-1" d="M94.15,36.16c.29-1.81,1.57-3.11,3.12-3.11,1.19,0,1.98.75,1.96,1.86h-.7c-.03-.69-.5-1.23-1.35-1.23-1.15,0-2.12,1-2.35,2.45-.25,1.46.35,2.48,1.51,2.48.79,0,1.49-.48,1.78-1.24h.7c-.35,1.09-1.34,1.88-2.57,1.88-1.6,0-2.41-1.31-2.11-3.1Z"/>
      <path class="cls-1" d="M99.99,37.46c.2-1.19,1.2-1.57,2.57-1.73,1.01-.12,1.57-.14,1.64-.59l.02-.14c.13-.82-.25-1.32-1.14-1.32s-1.51.45-1.81.96l-.61-.24c.56-.98,1.56-1.34,2.47-1.34s2.03.4,1.77,2.01l-.67,4.07h-.69l.16-.95h-.04c-.33.53-1.02,1.09-2.01,1.09-1.08,0-1.84-.66-1.66-1.81ZM103.93,36.83l.14-.87c-.23.2-1.12.31-1.6.37-1.03.12-1.67.43-1.79,1.16-.12.73.37,1.14,1.15,1.14,1.1,0,1.94-.82,2.1-1.8Z"/>
      <path class="cls-1" d="M106.76,39.13h-.69l1.31-8h.69l-1.31,8Z"/>
      <path class="cls-1" d="M115.74,34.62c-.1-.54-.42-.96-1.22-.96s-1.45.44-1.55,1.05c-.08.51.2.81.91,1l.86.22c.96.25,1.37.79,1.24,1.59-.17,1.01-1.18,1.73-2.48,1.73-1.17,0-1.86-.55-1.91-1.55l.69-.16c.04.71.49,1.08,1.29,1.08.91,0,1.59-.48,1.69-1.1.08-.49-.17-.81-.81-.97l-.92-.23c-.99-.26-1.39-.8-1.26-1.61.16-.99,1.14-1.67,2.34-1.67,1.09,0,1.64.53,1.79,1.4l-.66.17Z"/>
      <path class="cls-1" d="M117.42,36.11c.29-1.81,1.55-3.05,3.06-3.05s2.44,1.3,2.14,3.16c-.3,1.8-1.55,3.05-3.06,3.05s-2.44-1.29-2.14-3.15ZM121.95,36.11c.21-1.32-.28-2.42-1.48-2.42-1.26,0-2.17,1.16-2.38,2.53-.22,1.32.27,2.41,1.48,2.41s2.16-1.14,2.39-2.52Z"/>
      <path class="cls-1" d="M126.99,33.74h-1.32l-.88,5.39h-.69l.89-5.39h-.91l.1-.61h.91l.14-.88c.15-.97,1-1.49,1.81-1.49.36,0,.58.07.71.13l-.29.61c-.1-.03-.23-.09-.46-.09-.59,0-.99.35-1.1.98l-.12.73h1.32l-.1.61Z"/>
      <path class="cls-1" d="M130.71,33.74h-1.26l-.63,3.83c-.12.75.27.98.74.98.18,0,.3-.03.41-.05l.05.63c-.15.05-.35.11-.64.11-.76,0-1.43-.51-1.27-1.49l.65-3.99h-.88l.1-.61h.88l.24-1.44h.69l-.24,1.44h1.26l-.1.61Z"/>
      <path class="cls-1" d="M131.9,33.13h.72l.59,4.95h.05l2.22-4.95h.73l.58,4.94h.05l2.22-4.94h.73l-2.78,6h-.71l-.6-4.91h-.07l-2.21,4.91h-.71l-.8-6Z"/>
      <path class="cls-1" d="M140.13,37.46c.2-1.19,1.2-1.57,2.57-1.73,1.01-.12,1.57-.14,1.64-.59l.02-.14c.13-.82-.25-1.32-1.14-1.32s-1.51.45-1.81.96l-.61-.24c.56-.98,1.56-1.34,2.47-1.34s2.03.4,1.77,2.01l-.67,4.07h-.69l.16-.95h-.04c-.33.53-1.02,1.09-2.01,1.09-1.08,0-1.84-.66-1.66-1.81ZM144.06,36.83l.14-.87c-.23.2-1.12.31-1.6.37-1.03.12-1.67.43-1.79,1.16-.12.73.37,1.14,1.15,1.14,1.1,0,1.94-.82,2.1-1.8Z"/>
      <path class="cls-1" d="M147.2,33.13h.67l-.15.92h.05c.33-.61,1.05-1.01,1.79-1.01.12,0,.27,0,.36.01l-.12.71c-.06,0-.23-.04-.41-.04-.93,0-1.7.64-1.85,1.54l-.63,3.88h-.69l.99-6Z"/>
      <path class="cls-1" d="M150.11,36.17c.3-1.82,1.57-3.12,3.11-3.12,1.29,0,2.35.94,2.02,2.95l-.05.34h-4.42c-.23,1.5.37,2.28,1.63,2.28.85,0,1.46-.45,1.78-.98l.61.21c-.39.75-1.29,1.41-2.49,1.41-1.66,0-2.49-1.27-2.19-3.09ZM154.58,35.73c.19-1.16-.39-2.04-1.46-2.04s-2.01.98-2.25,2.04h3.71Z"/>
    </g>
  </g>
</svg>