<svg xmlns="http://www.w3.org/2000/svg" version="1.1" xmlns:xlink="http://www.w3.org/1999/xlink" xmlns:svgjs="http://svgjs.dev/svgjs" width="461.97" height="129"><svg id="SvgjsSvg1016" data-name="Lager 2" xmlns="http://www.w3.org/2000/svg" viewBox="0 0 461.97 129">
  <defs>
    <style>
      .cls-1 {
        fill: #22a472;
      }
    </style>
  </defs>
  <g id="SvgjsG1015" data-name="Lager 1">
    <g>
      <path class="cls-1" d="M119.3,35.24h-14.76c-2.45,0-4.63,1.43-5.3,3.46l-21.32,58.34c-.5,1.36-2.51,1.04-2.56-.4l-2.15-57.75c-.19-2.25-1.78-3.65-4.16-3.65h-15.51c-2.35,0-4.43,1.35-5.3,3.45l-22.6,58.34c-.52,1.35-2.53.99-2.55-.46l-.88-57.62c0-2.22-1.67-3.71-4.16-3.71H4.17c-1.04,0-2.11.51-2.93,1.4-.87.93-1.31,2.12-1.22,3.26l5.81,86.45c0,1.67,1,2.67,2.67,2.67h20.73c1.92,0,2.75-1.35,3.2-2.37l23.96-60.54,2.68,60.25c0,1.67,1,2.67,2.67,2.67h20.73c1.92,0,2.75-1.35,3.21-2.38l36.25-86.52c.5-1.3.4-2.66-.28-3.65-.54-.79-1.37-1.22-2.34-1.22Z"></path>
      <path class="cls-1" d="M320.37,35.24h-15.21c-1.21,0-2.85.42-3.82,1.59l-27.26,30.54c-.79.79-1.55.86-1.98.37-.18-.21-.26-.5-.22-.77l10.58-60.23c.34-1.62.16-2.88-.55-3.76-.7-.86-1.86-1.29-3.44-1.29h-11.93c-3.07,0-4.97,1.6-5.64,4.78l-20.73,117.53c-.25,1.58,0,2.83.75,3.7.75.88,1.94,1.32,3.55,1.32h11.93c3.04,0,4.84-1.61,5.34-4.77l4.92-27.17c.15-1.03,1.62-1.91,2.4-.75l20.28,31.02c.71,1.06,1.96,1.67,3.44,1.67h14.32c2.72,0,5.2-2.48,5.2-5.2,0-1.02-.18-1.43-.56-2.18l-25.35-39.64,36.29-39.24c1.03-1.03,1.56-2.36,1.56-3.95,0-1.72-1.35-3.56-3.86-3.56Z"></path>
      <path class="cls-1" d="M458,41.48c-3.44-4.08-8.92-6.24-15.85-6.24h-16.7c-1.24,0-2.3.36-3.1,1.02l-8.96,6.27c-.48.36-.95.42-1.31.18-.3-.2-.46-.57-.38-.94l.3-1.52c.27-1.7.04-2.95-.69-3.81-.69-.81-1.78-1.21-3.31-1.21h-11.93c-3.15,0-5.15,1.7-5.64,4.78l-14.91,83.98c-.25,1.58,0,2.83.75,3.7.75.88,1.94,1.32,3.55,1.32h11.93c3.04,0,4.84-1.61,5.34-4.78l11.93-67.7c.23-1.27.67-1.64,1.97-1.64h24.16c1.64,0,2.92.47,3.69,1.37.79.93,1.07,2.33.81,4.04l-11.33,63.69c-.25,1.58,0,2.82.75,3.7.75.88,1.94,1.32,3.55,1.32h11.93c3.04,0,4.84-1.61,5.34-4.78l11.63-65.48c1.23-7.12.01-13.1-3.51-17.27Z"></path>
      <path class="cls-1" d="M136.21,100.1l25.88-8.71c17.46-5.93,27.15-12.99,27.74-30.77.48-14.47-10.5-24.27-28.86-24.27-22.27,0-37.54,12.22-40.5,28.9l-5.53,31.88c-.42,2.52-.7,5.06-.81,7.61-.5,15,9.03,24.27,30.37,24.27h25.9c2,0,3.72-1.44,4.07-3.41l1.9-10.65c.45-2.53-1.48-4.86-4.05-4.85-6.07,0-16.56.02-24.39.02s-11.96-2.59-11.79-7.78l.07-2.23ZM141.95,66.74c1.38-8.16,7.42-11.69,16.52-11.69,5.95,0,10.89,2.23,10.73,7.22s-1.93,7.61-8.12,9.65l-19.1,6.5c-.96.33-1.91-.49-1.74-1.48l1.72-10.21Z"></path>
      <path class="cls-1" d="M234.23,3.14h-26.57c-1.99,0-3.7,1.42-4.06,3.38l-1.92,10.44c-.47,2.54,1.48,4.88,4.06,4.88h6.7c.84,0,1.47.76,1.33,1.58l-14.62,83.46c-.35,1.98-2.06,3.42-4.07,3.42h-8.37c-1.99,0-3.7,1.42-4.06,3.38l-1.92,10.44c-.47,2.54,1.48,4.88,4.06,4.88h43.75c1.99,0,3.7-1.42,4.06-3.38l1.92-10.44c.47-2.54-1.48-4.88-4.06-4.88h-5.33c-2.57,0-4.51-2.32-4.07-4.85L238.3,7.98c.45-2.53-1.5-4.85-4.07-4.85Z"></path>
      <g>
        <path class="cls-1" d="M371.06,0h-13.38c-2,0-3.72,1.44-4.07,3.41l-2.7,15.32c-.45,2.53,1.5,4.85,4.07,4.85h13.38c2,0,3.72-1.44,4.07-3.41l2.7-15.32c.45-2.53-1.5-4.85-4.07-4.85Z"></path>
        <path class="cls-1" d="M337.71,36.86c-1.99,0-3.7,1.42-4.06,3.39l-1.93,10.54c-.46,2.54,1.48,4.87,4.06,4.87h6.91c.84,0,1.47.76,1.33,1.58l-8.63,49.55c-.34,1.98-2.06,3.42-4.07,3.42h-8.4c-1.99,0-3.7,1.43-4.06,3.39l-1.92,10.54c-.46,2.54,1.48,4.87,4.06,4.87h44.19c1.99,0,3.7-1.42,4.06-3.39l1.93-10.54c.46-2.54-1.48-4.87-4.06-4.87h-5.62c-2.57,0-4.51-2.32-4.07-4.85l11.23-63.65c.45-2.53-1.5-4.85-4.07-4.85h-26.88Z"></path>
      </g>
    </g>
  </g>
</svg><style>@media (prefers-color-scheme: light) { :root { filter: none; } }
@media (prefers-color-scheme: dark) { :root { filter: none; } }
</style></svg>