<?xml version="1.0" encoding="UTF-8"?>
<svg id="Layer_1" data-name="Layer 1" xmlns="http://www.w3.org/2000/svg" viewBox="0 0 1200 472.94">
  <defs>
    <style>
      .cls-1 {
        fill: #22a472;
      }

      .cls-2 {
        fill: #303b54;
      }
    </style>
  </defs>
  <g id="Lager_1-2" data-name="Lager 1-2">
    <g>
      <path class="cls-1" d="M309.84,94.41h-38.3c-6.36,0-12.02,3.71-13.75,8.98l-55.33,151.4c-1.3,3.53-6.51,2.7-6.64-1.04l-5.58-149.87c-.49-5.84-4.62-9.47-10.8-9.47h-40.25c-6.1,0-11.5,3.5-13.75,8.95l-58.65,151.4c-1.35,3.5-6.57,2.57-6.62-1.19l-2.28-149.53c0-5.76-4.33-9.63-10.8-9.63H11.07c-2.7,0-5.48,1.32-7.6,3.63-2.26,2.41-3.4,5.5-3.17,8.46l15.08,224.35c0,4.33,2.6,6.93,6.93,6.93h53.8c4.98,0,7.14-3.5,8.3-6.15l62.18-157.11,6.95,156.36c0,4.33,2.6,6.93,6.93,6.93h53.8c4.98,0,7.14-3.5,8.33-6.18l94.07-224.53c1.3-3.37,1.04-6.9-.73-9.47-1.4-2.05-3.56-3.17-6.07-3.17l-.03-.05Z"/>
      <path class="cls-1" d="M831.64,94.41h-39.47c-3.14,0-7.4,1.09-9.91,4.13l-70.74,79.25c-2.05,2.05-4.02,2.23-5.14.96-.47-.54-.67-1.3-.57-2l27.46-156.3c.88-4.2.42-7.47-1.43-9.76-1.82-2.23-4.83-3.35-8.93-3.35h-30.96c-7.97,0-12.9,4.15-14.64,12.4l-53.8,305c-.65,4.1,0,7.34,1.95,9.6,1.95,2.28,5.03,3.43,9.21,3.43h30.96c7.89,0,12.56-4.18,13.86-12.38l12.77-70.51c.39-2.67,4.2-4.96,6.23-1.95l52.63,80.5c1.84,2.75,5.09,4.33,8.93,4.33h37.16c7.06,0,13.49-6.44,13.49-13.49,0-2.65-.47-3.71-1.45-5.66l-65.79-102.87,94.18-101.83c2.67-2.67,4.05-6.12,4.05-10.25,0-4.46-3.5-9.24-10.02-9.24l-.03-.03Z"/>
      <path class="cls-1" d="M1188.81,110.6c-8.93-10.59-23.15-16.19-41.13-16.19h-43.34c-3.22,0-5.97.93-8.04,2.65l-23.25,16.27c-1.25.93-2.47,1.09-3.4.47-.78-.52-1.19-1.48-.99-2.44l.78-3.94c.7-4.41.1-7.66-1.79-9.89-1.79-2.1-4.62-3.14-8.59-3.14h-30.96c-8.17,0-13.36,4.41-14.64,12.4l-38.69,217.94c-.65,4.1,0,7.34,1.95,9.6,1.95,2.28,5.03,3.43,9.21,3.43h30.96c7.89,0,12.56-4.18,13.86-12.4l30.96-175.69c.6-3.3,1.74-4.26,5.11-4.26h62.7c4.26,0,7.58,1.22,9.58,3.56,2.05,2.41,2.78,6.05,2.1,10.48l-29.4,165.28c-.65,4.1,0,7.32,1.95,9.6s5.03,3.43,9.21,3.43h30.96c7.89,0,12.56-4.18,13.86-12.4l30.18-169.93c3.19-18.48.03-34-9.11-44.82h-.03Z"/>
      <path class="cls-1" d="M353.73,262.73l67.16-22.6c45.31-15.39,70.46-33.71,71.99-79.85,1.25-37.55-27.25-62.98-74.89-62.98-57.79,0-97.42,31.71-105.1,75l-14.35,82.73c-1.09,6.54-1.82,13.13-2.1,19.75-1.3,38.93,23.43,62.98,78.81,62.98h67.21c5.19,0,9.65-3.74,10.56-8.85l4.93-27.64c1.17-6.57-3.84-12.61-10.51-12.59-15.75,0-42.97.05-63.29.05s-31.04-6.72-30.6-20.19l.18-5.79v-.03ZM368.62,176.15c3.58-21.18,19.26-30.34,42.87-30.34,15.44,0,28.26,5.79,27.85,18.74s-5.01,19.75-21.07,25.04l-49.57,16.87c-2.49.86-4.96-1.27-4.52-3.84l4.46-26.5-.03.03Z"/>
      <path class="cls-1" d="M608.1,11.1h-68.95c-5.16,0-9.6,3.69-10.54,8.77l-4.98,27.09c-1.22,6.59,3.84,12.66,10.54,12.66h17.39c2.18,0,3.81,1.97,3.45,4.1l-37.94,216.59c-.91,5.14-5.35,8.88-10.56,8.88h-21.72c-5.16,0-9.6,3.69-10.54,8.77l-4.98,27.09c-1.22,6.59,3.84,12.66,10.54,12.66h113.54c5.16,0,9.6-3.69,10.54-8.77l4.98-27.09c1.22-6.59-3.84-12.66-10.54-12.66h-13.83c-6.67,0-11.7-6.02-10.56-12.59l44.74-252.95c1.17-6.57-3.89-12.59-10.56-12.59v.03Z"/>
      <g>
        <path class="cls-1" d="M963.19,2.96h-34.72c-5.19,0-9.65,3.74-10.56,8.85l-7.01,39.76c-1.17,6.57,3.89,12.59,10.56,12.59h34.72c5.19,0,9.65-3.74,10.56-8.85l7.01-39.76c1.17-6.57-3.89-12.59-10.56-12.59Z"/>
        <path class="cls-1" d="M876.64,98.61c-5.16,0-9.6,3.69-10.54,8.8l-5.01,27.35c-1.19,6.59,3.84,12.64,10.54,12.64h17.93c2.18,0,3.81,1.97,3.45,4.1l-22.4,128.59c-.88,5.14-5.35,8.88-10.56,8.88h-21.8c-5.16,0-9.6,3.71-10.54,8.8l-4.98,27.35c-1.19,6.59,3.84,12.64,10.54,12.64h114.68c5.16,0,9.6-3.69,10.54-8.8l5.01-27.35c1.19-6.59-3.84-12.64-10.54-12.64h-14.58c-6.67,0-11.7-6.02-10.56-12.59l29.14-165.18c1.17-6.57-3.89-12.59-10.56-12.59h-69.76,0Z"/>
      </g>
    </g>
  </g>
  <g id="Lager_1-2-2" data-name="Lager 1-2">
    <path class="cls-2" d="M838.74,412.87c.68-4.97,4.3-7.11,9.84-7.11,3.62,0,6.67,1.35,6.67,4.4s-1.02,4.63-4.75,5.87l-12.78,4.41,1.02-7.57h0ZM835.91,434.55v-1.35l15.61-5.31c10.52-3.62,16.28-7.91,16.28-18.75,0-8.81-6.9-14.79-18.09-14.79-13.57,0-22.62,7.44-24.09,17.61l-2.71,19.43c-.21,1.54-.32,3.09-.34,4.64,0,9.14,5.99,14.79,19,14.79h17.89l1.68-11.54s-10.74.02-17.87.02c-4.97,0-7.35-1.58-7.35-4.75h0ZM897.39,373.29h-21.51l-1.7,11.52h8.17l-7.55,54.49h-9.41l-1.7,11.52h32.12l1.7-11.52h-9.37l9.24-66.01h0ZM1061.39,371.75h-13.34l-2.03,14.46h13.34l2.04-14.46h0ZM1058.22,394.34h-21.6l-1.7,11.52h8.26l-4.64,33.44h-9.39l-1.69,11.52h32.23l1.7-11.52h-9.5l6.33-44.96h0ZM1091.91,394.34h-.02c-12.78,0-23.07,5.76-23.07,16.94,0,16.38,22.51,14.35,22.51,22.7,0,4.74-4.74,5.3-8.81,5.31-8.81,0-17-.03-17-.03l-1.64,11.55s7.8.02,17.52.02c14.93,0,23.75-7.48,23.75-18.54,0-16.83-22.62-15.36-22.62-22.59,0-2.48,2.6-3.95,8.25-3.95,6.33,0,15.14-.05,15.14-.05l1.66-11.36h-15.67ZM974.57,394.32h-.02c-12.78,0-23.07,5.79-23.07,16.97,0,16.38,22.51,14.34,22.51,22.7,0,4.74-4.74,5.3-8.81,5.3-8.81,0-17-.02-17-.02l-1.67,11.54s7.83.01,17.55.01c14.93,0,23.75-7.47,23.75-18.54,0-16.83-22.62-15.36-22.62-22.59,0-2.49,2.6-3.96,8.25-3.96,6.34,0,15.14-.04,15.14-.04l1.66-11.36s-6.97-.02-15.66-.03h0ZM1183.48,394.34h-.02c-12.78,0-23.07,5.76-23.07,16.94,0,16.38,22.51,14.35,22.51,22.7,0,4.74-4.74,5.3-8.81,5.31-8.81,0-17-.03-17-.03l-1.69,11.55s7.86.01,17.58.01c14.93,0,23.75-7.47,23.75-18.54,0-16.83-22.62-15.36-22.62-22.59,0-2.48,2.6-3.95,8.25-3.95,6.34,0,15.14-.05,15.14-.05l1.66-11.36h-15.67ZM1148.63,394.34l-17.08,35.69-7.01-35.69h-14.14l11.99,53.2-11.87,23.61h13.46l38.79-76.81h-14.14,0ZM932.84,413.99l-2.71,18.98c-.56,3.84-4.75,6.33-9.28,6.33-4.18,0-7.12-2.04-7.12-5.54,0-1.36.23-2.93.45-4.52l2.6-17.06c.68-4.29,4.64-6.43,9.16-6.43,4.07,0,7.12,2.14,7.12,5.53,0,.9-.11,1.7-.23,2.71h0ZM936.92,394.34l-1.13,4.4s-3.85-4.43-11.42-4.43c-10.97,0-19.34,7.71-20.81,18.32l-2.83,19.88c-.11,1.01-.23,2.14-.23,3.05,0,9.37,6.45,15.25,16.06,15.25,8.15,0,12.56-4.63,12.56-4.63l-.23,4.63h11.99l8.03-56.48h-11.99ZM1011.64,436.25c0-.79.23-2.6.34-3.39l3.84-27.11h10.58l1.7-11.41h-10.58l1.69-12.32h-13.23l-1.7,12.32h-10.29l-1.7,11.41h10.29l-3.96,28.35c-.23,1.69-.45,3.62-.45,4.74,0,8.14,4.75,11.99,16.28,11.99,8.6,0,9.07-.02,9.07-.02l1.56-11.52h-6.9c-5.31,0-6.56-.9-6.56-3.05h0Z"/>
  </g>
  <g>
    <path class="cls-2" d="M742.33,414.34c2.27-1.15,4.8-1.72,7.59-1.72,3.28,0,6.25.79,8.91,2.36,2.65,1.58,4.75,3.81,6.27,6.71s2.29,6.22,2.29,9.95-.77,7.07-2.29,10.02c-1.53,2.95-3.63,5.24-6.31,6.88-2.68,1.64-5.63,2.46-8.87,2.46-2.88,0-5.43-.56-7.66-1.69s-3.99-2.56-5.3-4.32v5.4h-7.69v-49.93h7.69v18.29c1.3-1.8,3.09-3.27,5.36-4.42ZM757.99,425c-1.06-1.87-2.45-3.28-4.18-4.25-1.73-.97-3.59-1.45-5.57-1.45s-3.77.5-5.5,1.48c-1.73.99-3.13,2.43-4.18,4.32s-1.59,4.12-1.59,6.68.53,4.8,1.59,6.71,2.45,3.36,4.18,4.35c1.73.99,3.56,1.49,5.5,1.49s3.83-.51,5.57-1.52c1.73-1.01,3.13-2.48,4.18-4.42,1.06-1.93,1.59-4.18,1.59-6.75s-.53-4.78-1.59-6.65Z"/>
    <path class="cls-2" d="M806.8,413.23l-22.81,54.65h-7.96l7.56-18.08-14.64-36.57h8.57l10.46,28.34,10.86-28.34h7.96Z"/>
  </g>
</svg>